<?xml version="1.0" encoding="UTF-8"?>
<svg width="329px" height="311px" viewBox="0 0 329 311" version="1.1" xmlns="http://www.w3.org/2000/svg" xmlns:xlink="http://www.w3.org/1999/xlink">
    <title>Section 1, Module 2: Reading and Writing</title>
    <g id="页面-1" stroke="none" stroke-width="1" fill="none" fill-rule="evenodd">
        <g id="Section-1,-Module-2:-Reading-and-Writing" transform="translate(-9.000000, -48.000000)">
            <g transform="translate(9.000000, 48.250000)">
                <text id="Days" transform="translate(9.000000, 67.250000) rotate(-90.000000) translate(-9.000000, -67.250000) " font-family="STSongti-SC-Bold, Songti SC" font-size="13" font-weight="bold" fill="#000000">
                    <tspan x="-4.462" y="72.25">Days</tspan>
                </text>
                <text id="1980-81" font-family="STSongti-SC-Bold, Songti SC" font-size="13" font-weight="bold" fill="#000000">
                    <tspan x="107.516296" y="189.25">1980-81</tspan>
                </text>
                <text id="Winter" font-family="STSongti-SC-Bold, Songti SC" font-size="13" font-weight="bold" fill="#000000">
                    <tspan x="169.025978" y="207.5">Winter</tspan>
                </text>
                <text id="40" font-family="STSongti-SC-Black, Songti SC" font-size="14" font-weight="700" fill="#000000">
                    <tspan x="36.9157494" y="137">40</tspan>
                </text>
                <text id="80" font-family="STSongti-SC-Black, Songti SC" font-size="14" font-weight="700" fill="#000000">
                    <tspan x="36.9157494" y="105">80</tspan>
                </text>
                <text id="120" font-family="STSongti-SC-Black, Songti SC" font-size="14" font-weight="700" fill="#000000">
                    <tspan x="30.3497494" y="77">120</tspan>
                </text>
                <text id="200" font-family="STSongti-SC-Black, Songti SC" font-size="14" font-weight="700" fill="#000000">
                    <tspan x="30.3497494" y="15">200</tspan>
                </text>
                <text id="160" font-family="STSongti-SC-Black, Songti SC" font-size="14" font-weight="700" fill="#000000">
                    <tspan x="30.3497494" y="46">160</tspan>
                </text>
                <text id="2005-06" font-family="STSongti-SC-Bold, Songti SC" font-size="13" font-weight="bold" fill="#000000">
                    <tspan x="228.779435" y="189.5">2005-06</tspan>
                </text>
                <polygon id="直线备份-84" fill="#000000" fill-rule="nonzero" points="329 160.75 329 161.75 54 161.75 54 160.75"></polygon>
                <polygon id="直线备份-84" fill="#000000" fill-rule="nonzero" transform="translate(62.000000, 87.250000) rotate(-90.000000) translate(-62.000000, -87.250000) " points="138 86.75 138 87.75 -14 87.75 -14 86.75"></polygon>
                <polygon id="直线备份-86" fill="#000000" fill-rule="nonzero" points="329 100.75 329 101.75 54 101.75 54 100.75"></polygon>
                <polygon id="直线备份-88" fill="#000000" fill-rule="nonzero" points="329 10.75 329 11.75 54 11.75 54 10.75"></polygon>
                <polygon id="直线备份-89" fill="#000000" fill-rule="nonzero" points="329 40.75 329 41.75 54 41.75 54 40.75"></polygon>
                <polygon id="直线备份-85" fill="#000000" fill-rule="nonzero" points="329 130.75 329 131.75 54 131.75 54 130.75"></polygon>
                <polygon id="直线备份-87" fill="#000000" fill-rule="nonzero" points="329 70.75 329 71.75 54 71.75 54 70.75"></polygon>
                <rect id="矩形" fill="#666666" x="86" y="9.75" width="26" height="152"></rect>
                <rect id="矩形备份-3" fill="#666666" x="208" y="45.75" width="26" height="116"></rect>
                <rect id="矩形备份" fill="#B4B4B4" x="112" y="89.75" width="26" height="72"></rect>
                <rect id="矩形备份-4" fill="#B4B4B4" x="234" y="80.75" width="26" height="81"></rect>
                <rect id="矩形备份-2" fill="#000000" x="138" y="93.75" width="26" height="68"></rect>
                <rect id="矩形备份-5" fill="#000000" x="260" y="93.75" width="26" height="68"></rect>
                <g id="10备份-3" transform="translate(44.000000, 158.861133)" fill="#000000" fill-rule="nonzero">
                    <path d="M6.19335938,4.79199219 C6.19335938,5.44824219 6.15348307,6.0008138 6.07373047,6.44970703 C5.99397786,6.89860026 5.87776693,7.27913411 5.72509766,7.59130859 C5.57242839,7.90348307 5.38671875,8.18261719 5.16796875,8.42871094 C4.58463542,9.08496094 3.89420573,9.41308594 3.09667969,9.41308594 C2.75488281,9.41308594 2.40397135,9.34016927 2.04394531,9.19433594 C1.68391927,9.0485026 1.34895833,8.80582682 1.0390625,8.46630859 C0.729166667,8.12679036 0.478515625,7.66422526 0.287109375,7.07861328 C0.095703125,6.4930013 0,5.78548177 0,4.95605469 C0,4.20865885 0.0421549479,3.58317057 0.126464844,3.07958984 C0.21077474,2.57600911 0.309895833,2.19889323 0.423828125,1.94824219 C0.537760417,1.69759115 0.681315104,1.4469401 0.854492188,1.19628906 C1.42415365,0.398763021 2.17154948,0 3.09667969,0 C4.04459635,0 4.79199219,0.398763021 5.33886719,1.19628906 C5.58951823,1.53808594 5.79459635,1.97102865 5.95410156,2.49511719 C6.11360677,3.01920573 6.19335938,3.78483073 6.19335938,4.79199219 Z M4.35449219,4.70996094 L4.35449219,3.80761719 C4.35449219,3.13313802 4.32828776,2.58170573 4.27587891,2.15332031 C4.22347005,1.7249349 4.10498047,1.36946615 3.92041016,1.08691406 C3.73583984,0.804361979 3.46126302,0.663085938 3.09667969,0.663085938 C2.7093099,0.663085938 2.42561849,0.815755208 2.24560547,1.12109375 C2.06559245,1.42643229 1.95279948,1.85026042 1.90722656,2.39257812 C1.86165365,2.93489583 1.83886719,3.70735677 1.83886719,4.70996094 C1.83886719,5.68066406 1.86165365,6.4383138 1.90722656,6.98291016 C1.95279948,7.52750651 2.06559245,7.95817057 2.24560547,8.27490234 C2.42561849,8.59163411 2.7093099,8.75 3.09667969,8.75 C3.38378906,8.75 3.61621094,8.65771484 3.79394531,8.47314453 C3.97167969,8.28857422 4.09928385,8.03678385 4.17675781,7.71777344 C4.25423177,7.39876302 4.30322266,7.06152344 4.32373047,6.70605469 C4.34423828,6.35058594 4.35449219,5.86295573 4.35449219,5.24316406 L4.35449219,4.70996094 Z" id="形状"></path>
                </g>
                <g id="编组备份-4" transform="translate(128.000000, 231.750000)" fill-rule="nonzero">
                    <polygon id="路径" fill="#000000" points="13 0 13 14 0 14 0 0"></polygon>
                    <polygon id="路径" fill="#666666" points="12 1 1 1 1 13 12 13"></polygon>
                </g>
                <g id="编组备份-2" transform="translate(128.000000, 257.750000)" fill-rule="nonzero">
                    <polygon id="路径" fill="#000000" points="13 0 13 14 0 14 0 0"></polygon>
                    <polygon id="路径" fill="#B4B4B4" points="12 1 1 1 1 13 12 13"></polygon>
                </g>
                <g id="编组备份-3" transform="translate(128.000000, 283.750000)" fill-rule="nonzero">
                    <polygon id="路径" fill="#000000" points="13 0 13 14 0 14 0 0"></polygon>
                    <polygon id="路径" fill="#333333" points="12 1 1 1 1 13 12 13"></polygon>
                </g>
                <g id="Kalmarinjarvi" transform="translate(148.377000, 234.390000)" fill="#000000">
                    <path d="M3.432,8.632 C3.26733333,8.61466667 3.04633333,8.60166667 2.769,8.593 C2.49166667,8.58433333 2.15366667,8.58 1.755,8.58 C1.35633333,8.58 1.00533333,8.58433333 0.702,8.593 C0.398666667,8.60166667 0.164666667,8.61466667 0,8.632 L0,8.307 L0.702,8.19 C0.823333333,8.17266667 0.907833333,8.13583333 0.9555,8.0795 C1.00316667,8.02316667 1.027,7.917 1.027,7.761 L1.027,1.209 C1.027,1.06166667 1.0075,0.9685 0.9685,0.9295 C0.9295,0.8905 0.840666667,0.858 0.702,0.832 L0,0.715 L0,0.416 C0.026,0.424666667 0.0975,0.431166667 0.2145,0.4355 C0.3315,0.439833333 0.4745,0.444166667 0.6435,0.4485 C0.8125,0.452833333 0.990166667,0.455 1.1765,0.455 C1.36283333,0.455 1.53833333,0.455 1.703,0.455 C1.81566667,0.455 1.95,0.455 2.106,0.455 C2.262,0.455 2.42233333,0.452833333 2.587,0.4485 C2.75166667,0.444166667 2.90983333,0.439833333 3.0615,0.4355 C3.21316667,0.431166667 3.33666667,0.424666667 3.432,0.416 L3.432,0.715 L2.756,0.832 C2.626,0.849333333 2.53933333,0.879666667 2.496,0.923 C2.45266667,0.966333333 2.431,1.06166667 2.431,1.209 L2.431,7.761 C2.431,7.89966667 2.45483333,7.99716667 2.5025,8.0535 C2.55016667,8.10983333 2.63466667,8.14666667 2.756,8.164 L3.432,8.307 L3.432,8.632 Z M9.373,8.632 C9.139,8.61466667 8.86166667,8.60166667 8.541,8.593 C8.22033333,8.58433333 7.852,8.58 7.436,8.58 C7.228,8.58 7.0135,8.58 6.7925,8.58 C6.5715,8.58 6.35483333,8.58216667 6.1425,8.5865 C5.93016667,8.59083333 5.733,8.59733333 5.551,8.606 C5.369,8.61466667 5.22166667,8.62333333 5.109,8.632 L5.109,8.32 L6.032,8.164 C6.17066667,8.138 6.23566667,8.09466667 6.227,8.034 C6.21833333,7.97333333 6.14033333,7.878 5.993,7.748 L3.367,5.46 C3.16766667,5.29533333 2.97916667,5.14583333 2.8015,5.0115 C2.62383333,4.87716667 2.46133333,4.758 2.314,4.654 C2.51333333,4.55866667 2.743,4.42 3.003,4.238 C3.263,4.056 3.497,3.86966667 3.705,3.679 L5.876,1.716 C6.10133333,1.508 6.2595,1.36066667 6.3505,1.274 C6.4415,1.18733333 6.487,1.105 6.487,1.027 C6.487,0.949 6.42633333,0.901333333 6.305,0.884 L5.46,0.754 L5.46,0.416 C5.70266667,0.442 6.23133333,0.455 7.046,0.455 C7.852,0.455 8.38066667,0.442 8.632,0.416 L8.632,0.754 C8.43266667,0.771333333 8.2485,0.806 8.0795,0.858 C7.9105,0.91 7.73066667,0.979333333 7.54,1.066 C7.34933333,1.15266667 7.13916667,1.26966667 6.9095,1.417 C6.67983333,1.56433333 6.435,1.755 6.175,1.989 L3.887,4.082 L7.436,7.189 C7.67,7.38833333 7.86283333,7.54866667 8.0145,7.67 C8.16616667,7.79133333 8.27666667,7.878 8.346,7.93 C8.424,7.99066667 8.50416667,8.04483333 8.5865,8.0925 C8.66883333,8.14016667 8.75333333,8.17266667 8.84,8.19 L9.373,8.294 L9.373,8.632 Z" id="形状" fill-rule="nonzero"></path>
                    <path d="M11.778,8.749 C11.4226667,8.749 11.115,8.68616667 10.855,8.5605 C10.595,8.43483333 10.3805,8.26366667 10.2115,8.047 C10.0425,7.83033333 9.91683333,7.57466667 9.8345,7.28 C9.75216667,6.98533333 9.711,6.669 9.711,6.331 C9.711,5.87166667 9.78466667,5.4665 9.932,5.1155 C10.0793333,4.7645 10.2721667,4.46766667 10.5105,4.225 C10.7488333,3.98233333 11.0261667,3.80033333 11.3425,3.679 C11.6588333,3.55766667 11.986,3.497 12.324,3.497 C12.532,3.497 12.7183333,3.51433333 12.883,3.549 C13.0476667,3.58366667 13.1906667,3.62266667 13.312,3.666 C13.4506667,3.70933333 13.5763333,3.76133333 13.689,3.822 L14.482,3.393 L14.599,3.432 C14.599,4.108 14.6011667,4.7775 14.6055,5.4405 C14.6098333,6.1035 14.612,6.773 14.612,7.449 C14.612,7.79566667 14.7593333,7.96033333 15.054,7.943 C15.1233333,7.943 15.1796667,7.93216667 15.223,7.9105 C15.2663333,7.88883333 15.3053333,7.86933333 15.34,7.852 C15.3746667,7.826 15.4093333,7.79566667 15.444,7.761 L15.535,7.891 C15.4656667,8.05566667 15.379,8.19866667 15.275,8.32 C15.1796667,8.43266667 15.0626667,8.53233333 14.924,8.619 C14.7853333,8.70566667 14.612,8.749 14.404,8.749 C14.066,8.749 13.8233333,8.645 13.676,8.437 C13.5286667,8.229 13.455,7.96033333 13.455,7.631 L13.455,7.293 C13.403,7.475 13.3336667,7.65483333 13.247,7.8325 C13.1603333,8.01016667 13.0498333,8.16616667 12.9155,8.3005 C12.7811667,8.43483333 12.6208333,8.54316667 12.4345,8.6255 C12.2481667,8.70783333 12.0293333,8.749 11.778,8.749 Z M13.455,5.811 C13.455,5.577 13.4398333,5.35166667 13.4095,5.135 C13.3791667,4.91833333 13.3206667,4.7255 13.234,4.5565 C13.1473333,4.3875 13.0303333,4.251 12.883,4.147 C12.7356667,4.043 12.5406667,3.991 12.298,3.991 C12.1506667,3.991 11.9946667,4.02566667 11.83,4.095 C11.6653333,4.16433333 11.5136667,4.277 11.375,4.433 C11.2363333,4.589 11.1236667,4.797 11.037,5.057 C10.9503333,5.317 10.907,5.63333333 10.907,6.006 C10.907,6.28333333 10.9351667,6.5455 10.9915,6.7925 C11.0478333,7.0395 11.1301667,7.254 11.2385,7.436 C11.3468333,7.618 11.4811667,7.76316667 11.6415,7.8715 C11.8018333,7.97983333 11.986,8.034 12.194,8.034 C12.3846667,8.034 12.558,7.97766667 12.714,7.865 C12.87,7.75233333 13.0021667,7.60283333 13.1105,7.4165 C13.2188333,7.23016667 13.3033333,7.01133333 13.364,6.76 C13.4246667,6.50866667 13.455,6.24 13.455,5.954 L13.455,5.811 Z" id="形状" fill-rule="nonzero"></path>
                    <path d="M19.058,8.619 C18.85,8.61033333 18.6138333,8.60166667 18.3495,8.593 C18.0851667,8.58433333 17.8165,8.58 17.5435,8.58 C17.2705,8.58 17.0018333,8.58433333 16.7375,8.593 C16.4731667,8.60166667 16.237,8.61033333 16.029,8.619 L16.029,8.333 L16.705,8.177 C16.8176667,8.151 16.8956667,8.11633333 16.939,8.073 C16.9823333,8.02966667 17.004,7.943 17.004,7.813 L17.004,1.365 C17.004,1.183 16.952,1.04866667 16.848,0.962 C16.744,0.875333333 16.5143333,0.78 16.159,0.676 L16.159,0.429 C16.2456667,0.411666667 16.3583333,0.39 16.497,0.364 C16.6356667,0.338 16.7873333,0.307666667 16.952,0.273 C17.1166667,0.238333333 17.2835,0.197166667 17.4525,0.1495 C17.6215,0.101833333 17.7796667,0.052 17.927,0 L18.226,0 L18.226,7.787 C18.226,7.96033333 18.2433333,8.0665 18.278,8.1055 C18.3126667,8.1445 18.395,8.18133333 18.525,8.216 L19.058,8.333 L19.058,8.619 Z" id="路径" fill-rule="nonzero"></path>
                    <path d="M26.364,8.333 L26.741,8.255 C26.949,8.21166667 27.092,8.1575 27.17,8.0925 C27.248,8.0275 27.287,7.89966667 27.287,7.709 L27.287,5.46 C27.287,5.26933333 27.2718333,5.096 27.2415,4.94 C27.2111667,4.784 27.1613333,4.6475 27.092,4.5305 C27.0226667,4.4135 26.9251667,4.3225 26.7995,4.2575 C26.6738333,4.1925 26.5156667,4.16 26.325,4.16 C26.0736667,4.16 25.8396667,4.24016667 25.623,4.4005 C25.4063333,4.56083333 25.2156667,4.76233333 25.051,5.005 L25.051,7.605 C25.051,7.787 25.0683333,7.92566667 25.103,8.021 C25.1376667,8.11633333 25.233,8.18133333 25.389,8.216 L25.896,8.346 L25.896,8.632 C25.454,8.59733333 24.9816667,8.58 24.479,8.58 C23.9763333,8.58 23.4866667,8.59733333 23.01,8.632 L23.01,8.346 L23.309,8.268 C23.4996667,8.216 23.6361667,8.14666667 23.7185,8.06 C23.8008333,7.97333333 23.842,7.84333333 23.842,7.67 L23.842,5.46 C23.842,5.28666667 23.8246667,5.11983333 23.79,4.9595 C23.7553333,4.79916667 23.699,4.6605 23.621,4.5435 C23.543,4.4265 23.4455,4.33333333 23.3285,4.264 C23.2115,4.19466667 23.0706667,4.16 22.906,4.16 C22.7586667,4.16 22.6113333,4.19033333 22.464,4.251 C22.3166667,4.31166667 22.1823333,4.3875 22.061,4.4785 C21.9396667,4.5695 21.8378333,4.67133333 21.7555,4.784 C21.6731667,4.89666667 21.619,5.00933333 21.593,5.122 L21.593,7.618 C21.593,7.83466667 21.6211667,7.982 21.6775,8.06 C21.7338333,8.138 21.8226667,8.19 21.944,8.216 L22.529,8.346 L22.529,8.632 C22.087,8.59733333 21.5973333,8.58 21.06,8.58 C20.5226667,8.58 20.02,8.59733333 19.552,8.632 L19.552,8.346 L19.903,8.268 C20.0936667,8.22466667 20.2215,8.164 20.2865,8.086 C20.3515,8.008 20.384,7.878 20.384,7.696 L20.384,4.966 C20.384,4.862 20.3775,4.77316667 20.3645,4.6995 C20.3515,4.62583333 20.3211667,4.56516667 20.2735,4.5175 C20.2258333,4.46983333 20.1586667,4.433 20.072,4.407 C19.9853333,4.381 19.864,4.355 19.708,4.329 L19.708,4.121 C19.8206667,4.095 19.9506667,4.05383333 20.098,3.9975 C20.2453333,3.94116667 20.3948333,3.874 20.5465,3.796 C20.6981667,3.718 20.8455,3.62483333 20.9885,3.5165 C21.1315,3.40816667 21.2506667,3.289 21.346,3.159 L21.593,3.159 L21.593,4.407 C21.775,4.23366667 21.944,4.08416667 22.1,3.9585 C22.256,3.83283333 22.4055,3.72883333 22.5485,3.6465 C22.6915,3.56416667 22.8323333,3.50133333 22.971,3.458 C23.1096667,3.41466667 23.2613333,3.393 23.426,3.393 C23.8246667,3.38433333 24.1496667,3.45366667 24.401,3.601 C24.6523333,3.74833333 24.856,4.02566667 25.012,4.433 C25.1506667,4.277 25.285,4.13616667 25.415,4.0105 C25.545,3.88483333 25.6836667,3.7765 25.831,3.6855 C25.9783333,3.5945 26.1386667,3.523 26.312,3.471 C26.4853333,3.419 26.6846667,3.393 26.91,3.393 C27.4126667,3.393 27.8026667,3.52733333 28.08,3.796 C28.3573333,4.06466667 28.496,4.524 28.496,5.174 L28.496,7.722 C28.496,8.04266667 28.5653333,8.216 28.704,8.242 L29.211,8.346 L29.211,8.632 C28.9943333,8.61466667 28.756,8.60166667 28.496,8.593 C28.236,8.58433333 27.976,8.58 27.716,8.58 C27.456,8.58 27.209,8.58433333 26.975,8.593 C26.741,8.60166667 26.5373333,8.61033333 26.364,8.619 L26.364,8.333 Z" id="路径" fill-rule="nonzero"></path>
                    <path d="M31.928,8.749 C31.5726667,8.749 31.265,8.68616667 31.005,8.5605 C30.745,8.43483333 30.5305,8.26366667 30.3615,8.047 C30.1925,7.83033333 30.0668333,7.57466667 29.9845,7.28 C29.9021667,6.98533333 29.861,6.669 29.861,6.331 C29.861,5.87166667 29.9346667,5.4665 30.082,5.1155 C30.2293333,4.7645 30.4221667,4.46766667 30.6605,4.225 C30.8988333,3.98233333 31.1761667,3.80033333 31.4925,3.679 C31.8088333,3.55766667 32.136,3.497 32.474,3.497 C32.682,3.497 32.8683333,3.51433333 33.033,3.549 C33.1976667,3.58366667 33.3406667,3.62266667 33.462,3.666 C33.6006667,3.70933333 33.7263333,3.76133333 33.839,3.822 L34.632,3.393 L34.749,3.432 C34.749,4.108 34.7511667,4.7775 34.7555,5.4405 C34.7598333,6.1035 34.762,6.773 34.762,7.449 C34.762,7.79566667 34.9093333,7.96033333 35.204,7.943 C35.2733333,7.943 35.3296667,7.93216667 35.373,7.9105 C35.4163333,7.88883333 35.4553333,7.86933333 35.49,7.852 C35.5246667,7.826 35.5593333,7.79566667 35.594,7.761 L35.685,7.891 C35.6156667,8.05566667 35.529,8.19866667 35.425,8.32 C35.3296667,8.43266667 35.2126667,8.53233333 35.074,8.619 C34.9353333,8.70566667 34.762,8.749 34.554,8.749 C34.216,8.749 33.9733333,8.645 33.826,8.437 C33.6786667,8.229 33.605,7.96033333 33.605,7.631 L33.605,7.293 C33.553,7.475 33.4836667,7.65483333 33.397,7.8325 C33.3103333,8.01016667 33.1998333,8.16616667 33.0655,8.3005 C32.9311667,8.43483333 32.7708333,8.54316667 32.5845,8.6255 C32.3981667,8.70783333 32.1793333,8.749 31.928,8.749 Z M33.605,5.811 C33.605,5.577 33.5898333,5.35166667 33.5595,5.135 C33.5291667,4.91833333 33.4706667,4.7255 33.384,4.5565 C33.2973333,4.3875 33.1803333,4.251 33.033,4.147 C32.8856667,4.043 32.6906667,3.991 32.448,3.991 C32.3006667,3.991 32.1446667,4.02566667 31.98,4.095 C31.8153333,4.16433333 31.6636667,4.277 31.525,4.433 C31.3863333,4.589 31.2736667,4.797 31.187,5.057 C31.1003333,5.317 31.057,5.63333333 31.057,6.006 C31.057,6.28333333 31.0851667,6.5455 31.1415,6.7925 C31.1978333,7.0395 31.2801667,7.254 31.3885,7.436 C31.4968333,7.618 31.6311667,7.76316667 31.7915,7.8715 C31.9518333,7.97983333 32.136,8.034 32.344,8.034 C32.5346667,8.034 32.708,7.97766667 32.864,7.865 C33.02,7.75233333 33.1521667,7.60283333 33.2605,7.4165 C33.3688333,7.23016667 33.4533333,7.01133333 33.514,6.76 C33.5746667,6.50866667 33.605,6.24 33.605,5.954 L33.605,5.811 Z" id="形状" fill-rule="nonzero"></path>
                    <path d="M36.192,8.632 L36.192,8.424 L36.686,8.307 C36.8593333,8.255 36.9698333,8.18783333 37.0175,8.1055 C37.0651667,8.02316667 37.089,7.86933333 37.089,7.644 L37.089,5.148 C37.089,4.97466667 37.0543333,4.84683333 36.985,4.7645 C36.9156667,4.68216667 36.751,4.61933333 36.491,4.576 L36.218,4.524 L36.231,4.303 C36.569,4.20766667 36.9026667,4.06466667 37.232,3.874 C37.5613333,3.68333333 37.8256667,3.42333333 38.025,3.094 L38.259,3.094 L38.311,4.628 C38.3803333,4.472 38.4583333,4.33116667 38.545,4.2055 C38.6316667,4.07983333 38.7486667,3.939 38.896,3.783 C39.0433333,3.627 39.1841667,3.523 39.3185,3.471 C39.4528333,3.419 39.5763333,3.393 39.689,3.393 C39.9056667,3.393 40.0855,3.45583333 40.2285,3.5815 C40.3715,3.70716667 40.443,3.89566667 40.443,4.147 C40.443,4.381 40.3888333,4.56516667 40.2805,4.6995 C40.1721667,4.83383333 40.0183333,4.901 39.819,4.901 C39.715,4.901 39.624,4.87716667 39.546,4.8295 C39.468,4.78183333 39.3965,4.72766667 39.3315,4.667 C39.2665,4.60633333 39.2036667,4.55216667 39.143,4.5045 C39.0823333,4.45683333 39.026,4.433 38.974,4.433 C38.896,4.433 38.8223333,4.4655 38.753,4.5305 C38.6836667,4.5955 38.6186667,4.67566667 38.558,4.771 C38.4973333,4.86633333 38.4475,4.9725 38.4085,5.0895 C38.3695,5.2065 38.3456667,5.317 38.337,5.421 C38.3283333,5.50766667 38.3196667,5.58566667 38.311,5.655 C38.3023333,5.72433333 38.3023333,5.78933333 38.311,5.85 L38.311,7.67 C38.311,7.88666667 38.35,8.0275 38.428,8.0925 C38.506,8.1575 38.662,8.22033333 38.896,8.281 L39.559,8.411 L39.559,8.619 C39.351,8.60166667 39.117,8.59083333 38.857,8.5865 C38.597,8.58216667 38.3326667,8.58 38.064,8.58 L37.817,8.58 C37.531,8.58 37.2493333,8.58433333 36.972,8.593 C36.6946667,8.60166667 36.4346667,8.61466667 36.192,8.632 Z" id="路径" fill-rule="nonzero"></path>
                    <path d="M42.64,0.637 C42.8393333,0.637 43.0105,0.7085 43.1535,0.8515 C43.2965,0.9945 43.368,1.16566667 43.368,1.365 C43.368,1.53833333 43.2943333,1.6965 43.147,1.8395 C42.9996667,1.9825 42.8263333,2.054 42.627,2.054 C42.4276667,2.054 42.263,1.98683333 42.133,1.8525 C42.003,1.71816667 41.938,1.55566667 41.938,1.365 C41.938,1.16566667 42.0073333,0.9945 42.146,0.8515 C42.2846667,0.7085 42.4493333,0.637 42.64,0.637 Z M44.005,8.632 C43.8663333,8.61466667 43.667,8.60166667 43.407,8.593 C43.147,8.58433333 42.8436667,8.58 42.497,8.58 C42.1503333,8.58 41.847,8.58433333 41.587,8.593 C41.327,8.60166667 41.1276667,8.61466667 40.989,8.632 L40.989,8.346 L41.574,8.216 C41.8426667,8.164 41.977,8.00366667 41.977,7.735 L41.977,5.291 C41.977,5.083 41.925,4.93133333 41.821,4.836 C41.717,4.74066667 41.509,4.65833333 41.197,4.589 L41.197,4.329 C41.353,4.29433333 41.5133333,4.2445 41.678,4.1795 C41.8426667,4.1145 42.003,4.04083333 42.159,3.9585 C42.315,3.87616667 42.458,3.78733333 42.588,3.692 C42.718,3.59666667 42.822,3.49266667 42.9,3.38 C42.952,3.38 43.0018333,3.38216667 43.0495,3.3865 C43.0971667,3.39083333 43.1426667,3.393 43.186,3.393 L43.186,7.774 C43.186,7.904 43.2055,8.0015 43.2445,8.0665 C43.2835,8.1315 43.3593333,8.177 43.472,8.203 L44.005,8.346 L44.005,8.632 Z" id="形状" fill-rule="nonzero"></path>
                    <path d="M50.908,8.619 C50.4573333,8.593 49.9763333,8.58 49.465,8.58 C48.9536667,8.58 48.4726667,8.593 48.022,8.619 L48.022,8.346 L48.581,8.242 C48.7716667,8.216 48.867,8.047 48.867,7.735 L48.867,5.538 C48.867,5.33 48.8561667,5.1415 48.8345,4.9725 C48.8128333,4.8035 48.7695,4.66266667 48.7045,4.55 C48.6395,4.43733333 48.5463333,4.35066667 48.425,4.29 C48.3036667,4.22933333 48.1433333,4.199 47.944,4.199 C47.71,4.199 47.4738333,4.264 47.2355,4.394 C46.9971667,4.524 46.7783333,4.693 46.579,4.901 L46.579,7.878 C46.579,8.01666667 46.683,8.112 46.891,8.164 L47.424,8.346 L47.424,8.619 C47.2766667,8.60166667 47.1271667,8.59083333 46.9755,8.5865 C46.8238333,8.58216667 46.6136667,8.58 46.345,8.58 L45.929,8.58 C45.643,8.58 45.37,8.58216667 45.11,8.5865 C44.85,8.59083333 44.6463333,8.60166667 44.499,8.619 L44.499,8.346 L45.11,8.216 C45.2833333,8.17266667 45.37,8.04266667 45.37,7.826 L45.37,5.252 C45.37,4.98333333 45.3158333,4.80133333 45.2075,4.706 C45.0991667,4.61066667 44.9063333,4.54133333 44.629,4.498 L44.629,4.264 C44.7676667,4.22933333 44.9171667,4.18383333 45.0775,4.1275 C45.2378333,4.07116667 45.3938333,3.9975 45.5455,3.9065 C45.6971667,3.8155 45.8401667,3.70933333 45.9745,3.588 C46.1088333,3.46666667 46.215,3.32366667 46.293,3.159 L46.579,3.159 L46.579,4.381 C46.865,4.07766667 47.1791667,3.83716667 47.5215,3.6595 C47.8638333,3.48183333 48.1866667,3.393 48.49,3.393 C48.9926667,3.393 49.3848333,3.54033333 49.6665,3.835 C49.9481667,4.12966667 50.089,4.576 50.089,5.174 L50.089,7.696 C50.089,7.86066667 50.1106667,7.98416667 50.154,8.0665 C50.1973333,8.14883333 50.284,8.20733333 50.414,8.242 L50.908,8.346 L50.908,8.619 Z" id="路径" fill-rule="nonzero"></path>
                    <path d="M51.09,11.271 C51.272,11.141 51.428,11.0001667 51.558,10.8485 C51.688,10.6968333 51.7941667,10.5256667 51.8765,10.335 C51.9588333,10.1443333 52.0216667,9.92766667 52.065,9.685 C52.1083333,9.44233333 52.13,9.16066667 52.13,8.84 L52.13,5.486 C52.13,5.33 52.1235,5.19783333 52.1105,5.0895 C52.0975,4.98116667 52.065,4.89016667 52.013,4.8165 C51.961,4.74283333 51.8808333,4.68433333 51.7725,4.641 C51.6641667,4.59766667 51.5146667,4.56733333 51.324,4.55 L51.324,4.238 C51.6446667,4.15133333 51.9718333,4.03216667 52.3055,3.8805 C52.6391667,3.72883333 52.8926667,3.55766667 53.066,3.367 L53.339,3.367 L53.339,8.762 C53.339,9.1 53.2805,9.40983333 53.1635,9.6915 C53.0465,9.97316667 52.8905,10.2266667 52.6955,10.452 C52.5005,10.6773333 52.2751667,10.8766667 52.0195,11.05 C51.7638333,11.2233333 51.493,11.3706667 51.207,11.492 L51.09,11.271 Z M52.689,0.624 C52.8883333,0.624 53.053,0.693333333 53.183,0.832 C53.313,0.970666667 53.378,1.144 53.378,1.352 C53.378,1.54266667 53.3086667,1.70733333 53.17,1.846 C53.0313333,1.98466667 52.858,2.054 52.65,2.054 C52.4506667,2.06266667 52.2881667,1.9955 52.1625,1.8525 C52.0368333,1.7095 51.974,1.54266667 51.974,1.352 C51.974,1.15266667 52.0411667,0.979333333 52.1755,0.832 C52.3098333,0.684666667 52.481,0.615333333 52.689,0.624 Z" id="形状" fill-rule="nonzero"></path>
                    <path d="M56.706,8.749 C56.3506667,8.749 56.043,8.68616667 55.783,8.5605 C55.523,8.43483333 55.3085,8.26366667 55.1395,8.047 C54.9705,7.83033333 54.8448333,7.57466667 54.7625,7.28 C54.6801667,6.98533333 54.639,6.669 54.639,6.331 C54.639,5.87166667 54.7126667,5.4665 54.86,5.1155 C55.0073333,4.7645 55.2001667,4.46766667 55.4385,4.225 C55.6768333,3.98233333 55.9541667,3.80033333 56.2705,3.679 C56.5868333,3.55766667 56.914,3.497 57.252,3.497 C57.46,3.497 57.6463333,3.51433333 57.811,3.549 C57.9756667,3.58366667 58.1186667,3.62266667 58.24,3.666 C58.3786667,3.70933333 58.5043333,3.76133333 58.617,3.822 L59.41,3.393 L59.527,3.432 C59.527,4.108 59.5291667,4.7775 59.5335,5.4405 C59.5378333,6.1035 59.54,6.773 59.54,7.449 C59.54,7.79566667 59.6873333,7.96033333 59.982,7.943 C60.0513333,7.943 60.1076667,7.93216667 60.151,7.9105 C60.1943333,7.88883333 60.2333333,7.86933333 60.268,7.852 C60.3026667,7.826 60.3373333,7.79566667 60.372,7.761 L60.463,7.891 C60.3936667,8.05566667 60.307,8.19866667 60.203,8.32 C60.1076667,8.43266667 59.9906667,8.53233333 59.852,8.619 C59.7133333,8.70566667 59.54,8.749 59.332,8.749 C58.994,8.749 58.7513333,8.645 58.604,8.437 C58.4566667,8.229 58.383,7.96033333 58.383,7.631 L58.383,7.293 C58.331,7.475 58.2616667,7.65483333 58.175,7.8325 C58.0883333,8.01016667 57.9778333,8.16616667 57.8435,8.3005 C57.7091667,8.43483333 57.5488333,8.54316667 57.3625,8.6255 C57.1761667,8.70783333 56.9573333,8.749 56.706,8.749 Z M58.383,5.811 C58.383,5.577 58.3678333,5.35166667 58.3375,5.135 C58.3071667,4.91833333 58.2486667,4.7255 58.162,4.5565 C58.0753333,4.3875 57.9583333,4.251 57.811,4.147 C57.6636667,4.043 57.4686667,3.991 57.226,3.991 C57.0786667,3.991 56.9226667,4.02566667 56.758,4.095 C56.5933333,4.16433333 56.4416667,4.277 56.303,4.433 C56.1643333,4.589 56.0516667,4.797 55.965,5.057 C55.8783333,5.317 55.835,5.63333333 55.835,6.006 C55.835,6.28333333 55.8631667,6.5455 55.9195,6.7925 C55.9758333,7.0395 56.0581667,7.254 56.1665,7.436 C56.2748333,7.618 56.4091667,7.76316667 56.5695,7.8715 C56.7298333,7.97983333 56.914,8.034 57.122,8.034 C57.3126667,8.034 57.486,7.97766667 57.642,7.865 C57.798,7.75233333 57.9301667,7.60283333 58.0385,7.4165 C58.1468333,7.23016667 58.2313333,7.01133333 58.292,6.76 C58.3526667,6.50866667 58.383,6.24 58.383,5.954 L58.383,5.811 Z" id="形状" fill-rule="nonzero"></path>
                    <path d="M55.325,1.36 C55.5243333,1.36 55.6955,1.4315 55.8385,1.5745 C55.9815,1.7175 56.053,1.88866667 56.053,2.088 C56.053,2.26133333 55.9793333,2.4195 55.832,2.5625 C55.6846667,2.7055 55.5113333,2.777 55.312,2.777 C55.1126667,2.777 54.948,2.70983333 54.818,2.5755 C54.688,2.44116667 54.623,2.27866667 54.623,2.088 C54.623,1.88866667 54.6923333,1.7175 54.831,1.5745 C54.9696667,1.4315 55.1343333,1.36 55.325,1.36 Z" id="路径"></path>
                    <path d="M58.325,1.36 C58.5243333,1.36 58.6955,1.4315 58.8385,1.5745 C58.9815,1.7175 59.053,1.88866667 59.053,2.088 C59.053,2.26133333 58.9793333,2.4195 58.832,2.5625 C58.6846667,2.7055 58.5113333,2.777 58.312,2.777 C58.1126667,2.777 57.948,2.70983333 57.818,2.5755 C57.688,2.44116667 57.623,2.27866667 57.623,2.088 C57.623,1.88866667 57.6923333,1.7175 57.831,1.5745 C57.9696667,1.4315 58.1343333,1.36 58.325,1.36 Z" id="路径备份"></path>
                    <path d="M60.97,8.632 L60.97,8.424 L61.464,8.307 C61.6373333,8.255 61.7478333,8.18783333 61.7955,8.1055 C61.8431667,8.02316667 61.867,7.86933333 61.867,7.644 L61.867,5.148 C61.867,4.97466667 61.8323333,4.84683333 61.763,4.7645 C61.6936667,4.68216667 61.529,4.61933333 61.269,4.576 L60.996,4.524 L61.009,4.303 C61.347,4.20766667 61.6806667,4.06466667 62.01,3.874 C62.3393333,3.68333333 62.6036667,3.42333333 62.803,3.094 L63.037,3.094 L63.089,4.628 C63.1583333,4.472 63.2363333,4.33116667 63.323,4.2055 C63.4096667,4.07983333 63.5266667,3.939 63.674,3.783 C63.8213333,3.627 63.9621667,3.523 64.0965,3.471 C64.2308333,3.419 64.3543333,3.393 64.467,3.393 C64.6836667,3.393 64.8635,3.45583333 65.0065,3.5815 C65.1495,3.70716667 65.221,3.89566667 65.221,4.147 C65.221,4.381 65.1668333,4.56516667 65.0585,4.6995 C64.9501667,4.83383333 64.7963333,4.901 64.597,4.901 C64.493,4.901 64.402,4.87716667 64.324,4.8295 C64.246,4.78183333 64.1745,4.72766667 64.1095,4.667 C64.0445,4.60633333 63.9816667,4.55216667 63.921,4.5045 C63.8603333,4.45683333 63.804,4.433 63.752,4.433 C63.674,4.433 63.6003333,4.4655 63.531,4.5305 C63.4616667,4.5955 63.3966667,4.67566667 63.336,4.771 C63.2753333,4.86633333 63.2255,4.9725 63.1865,5.0895 C63.1475,5.2065 63.1236667,5.317 63.115,5.421 C63.1063333,5.50766667 63.0976667,5.58566667 63.089,5.655 C63.0803333,5.72433333 63.0803333,5.78933333 63.089,5.85 L63.089,7.67 C63.089,7.88666667 63.128,8.0275 63.206,8.0925 C63.284,8.1575 63.44,8.22033333 63.674,8.281 L64.337,8.411 L64.337,8.619 C64.129,8.60166667 63.895,8.59083333 63.635,8.5865 C63.375,8.58216667 63.1106667,8.58 62.842,8.58 L62.595,8.58 C62.309,8.58 62.0273333,8.58433333 61.75,8.593 C61.4726667,8.60166667 61.2126667,8.61466667 60.97,8.632 Z" id="路径" fill-rule="nonzero"></path>
                    <path d="M70.538,4.537 L68.744,8.892 L68.484,8.892 L66.521,4.524 C66.417,4.316 66.3346667,4.18166667 66.274,4.121 C66.2133333,4.06033333 66.118,4.017 65.988,3.991 L65.455,3.874 L65.455,3.601 C65.6456667,3.627 66.1266667,3.64 66.898,3.64 C67.288,3.64 67.639,3.63566667 67.951,3.627 C68.263,3.61833333 68.4796667,3.60533333 68.601,3.588 L68.601,3.861 L68.107,3.939 C67.9423333,3.965 67.8491667,4.0365 67.8275,4.1535 C67.8058333,4.2705 67.8686667,4.50233333 68.016,4.849 L69.043,7.241 L69.992,4.849 C70.0353333,4.745 70.0678333,4.65183333 70.0895,4.5695 C70.1111667,4.48716667 70.122,4.41566667 70.122,4.355 C70.122,4.121 69.9443333,3.978 69.589,3.926 L69.121,3.874 L69.121,3.601 C69.2336667,3.627 69.6496667,3.64 70.369,3.64 C71.0883333,3.64 71.5476667,3.627 71.747,3.601 L71.747,3.874 L71.071,3.965 C70.9323333,3.98233333 70.8326667,4.0235 70.772,4.0885 C70.7113333,4.1535 70.6333333,4.303 70.538,4.537 Z" id="路径" fill-rule="nonzero"></path>
                    <path d="M73.554,0.637 C73.7533333,0.637 73.9245,0.7085 74.0675,0.8515 C74.2105,0.9945 74.282,1.16566667 74.282,1.365 C74.282,1.53833333 74.2083333,1.6965 74.061,1.8395 C73.9136667,1.9825 73.7403333,2.054 73.541,2.054 C73.3416667,2.054 73.177,1.98683333 73.047,1.8525 C72.917,1.71816667 72.852,1.55566667 72.852,1.365 C72.852,1.16566667 72.9213333,0.9945 73.06,0.8515 C73.1986667,0.7085 73.3633333,0.637 73.554,0.637 Z M74.919,8.632 C74.7803333,8.61466667 74.581,8.60166667 74.321,8.593 C74.061,8.58433333 73.7576667,8.58 73.411,8.58 C73.0643333,8.58 72.761,8.58433333 72.501,8.593 C72.241,8.60166667 72.0416667,8.61466667 71.903,8.632 L71.903,8.346 L72.488,8.216 C72.7566667,8.164 72.891,8.00366667 72.891,7.735 L72.891,5.291 C72.891,5.083 72.839,4.93133333 72.735,4.836 C72.631,4.74066667 72.423,4.65833333 72.111,4.589 L72.111,4.329 C72.267,4.29433333 72.4273333,4.2445 72.592,4.1795 C72.7566667,4.1145 72.917,4.04083333 73.073,3.9585 C73.229,3.87616667 73.372,3.78733333 73.502,3.692 C73.632,3.59666667 73.736,3.49266667 73.814,3.38 C73.866,3.38 73.9158333,3.38216667 73.9635,3.3865 C74.0111667,3.39083333 74.0566667,3.393 74.1,3.393 L74.1,7.774 C74.1,7.904 74.1195,8.0015 74.1585,8.0665 C74.1975,8.1315 74.2733333,8.177 74.386,8.203 L74.919,8.346 L74.919,8.632 Z" id="形状" fill-rule="nonzero"></path>
                </g>
                <g id="Lake-Baikal" transform="translate(148.247000, 260.390000)" fill="#000000" fill-rule="nonzero">
                    <path d="M2.756,7.839 C2.756,7.95166667 2.7755,8.03616667 2.8145,8.0925 C2.8535,8.14883333 2.95533333,8.177 3.12,8.177 L4.355,8.177 C4.615,8.177 4.8685,8.16616667 5.1155,8.1445 C5.3625,8.12283333 5.60516667,8.05566667 5.8435,7.943 C6.08183333,7.83033333 6.3115,7.65483333 6.5325,7.4165 C6.7535,7.17816667 6.968,6.84666667 7.176,6.422 L7.384,6.422 L7.007,8.632 C6.643,8.61466667 6.16416667,8.60166667 5.5705,8.593 C4.97683333,8.58433333 4.251,8.58 3.393,8.58 C2.535,8.58 1.82433333,8.58433333 1.261,8.593 C0.697666667,8.60166667 0.277333333,8.61466667 0,8.632 L0,8.372 L0.845,8.229 C1.079,8.203 1.21983333,8.15316667 1.2675,8.0795 C1.31516667,8.00583333 1.339,7.878 1.339,7.696 L1.339,1.287 C1.339,1.12233333 1.31083333,1.01833333 1.2545,0.975 C1.19816667,0.931666667 1.11366667,0.897 1.001,0.871 L0.182,0.702 L0.182,0.416 C0.65,0.442 1.352,0.455 2.288,0.455 C3.224,0.455 3.80466667,0.442 4.03,0.416 L4.03,0.702 L3.094,0.871 C2.97266667,0.897 2.886,0.9295 2.834,0.9685 C2.782,1.0075 2.756,1.11366667 2.756,1.287 L2.756,7.839 Z" id="路径"></path>
                    <path d="M9.867,8.749 C9.51166667,8.749 9.204,8.68616667 8.944,8.5605 C8.684,8.43483333 8.4695,8.26366667 8.3005,8.047 C8.1315,7.83033333 8.00583333,7.57466667 7.9235,7.28 C7.84116667,6.98533333 7.8,6.669 7.8,6.331 C7.8,5.87166667 7.87366667,5.4665 8.021,5.1155 C8.16833333,4.7645 8.36116667,4.46766667 8.5995,4.225 C8.83783333,3.98233333 9.11516667,3.80033333 9.4315,3.679 C9.74783333,3.55766667 10.075,3.497 10.413,3.497 C10.621,3.497 10.8073333,3.51433333 10.972,3.549 C11.1366667,3.58366667 11.2796667,3.62266667 11.401,3.666 C11.5396667,3.70933333 11.6653333,3.76133333 11.778,3.822 L12.571,3.393 L12.688,3.432 C12.688,4.108 12.6901667,4.7775 12.6945,5.4405 C12.6988333,6.1035 12.701,6.773 12.701,7.449 C12.701,7.79566667 12.8483333,7.96033333 13.143,7.943 C13.2123333,7.943 13.2686667,7.93216667 13.312,7.9105 C13.3553333,7.88883333 13.3943333,7.86933333 13.429,7.852 C13.4636667,7.826 13.4983333,7.79566667 13.533,7.761 L13.624,7.891 C13.5546667,8.05566667 13.468,8.19866667 13.364,8.32 C13.2686667,8.43266667 13.1516667,8.53233333 13.013,8.619 C12.8743333,8.70566667 12.701,8.749 12.493,8.749 C12.155,8.749 11.9123333,8.645 11.765,8.437 C11.6176667,8.229 11.544,7.96033333 11.544,7.631 L11.544,7.293 C11.492,7.475 11.4226667,7.65483333 11.336,7.8325 C11.2493333,8.01016667 11.1388333,8.16616667 11.0045,8.3005 C10.8701667,8.43483333 10.7098333,8.54316667 10.5235,8.6255 C10.3371667,8.70783333 10.1183333,8.749 9.867,8.749 Z M11.544,5.811 C11.544,5.577 11.5288333,5.35166667 11.4985,5.135 C11.4681667,4.91833333 11.4096667,4.7255 11.323,4.5565 C11.2363333,4.3875 11.1193333,4.251 10.972,4.147 C10.8246667,4.043 10.6296667,3.991 10.387,3.991 C10.2396667,3.991 10.0836667,4.02566667 9.919,4.095 C9.75433333,4.16433333 9.60266667,4.277 9.464,4.433 C9.32533333,4.589 9.21266667,4.797 9.126,5.057 C9.03933333,5.317 8.996,5.63333333 8.996,6.006 C8.996,6.28333333 9.02416667,6.5455 9.0805,6.7925 C9.13683333,7.0395 9.21916667,7.254 9.3275,7.436 C9.43583333,7.618 9.57016667,7.76316667 9.7305,7.8715 C9.89083333,7.97983333 10.075,8.034 10.283,8.034 C10.4736667,8.034 10.647,7.97766667 10.803,7.865 C10.959,7.75233333 11.0911667,7.60283333 11.1995,7.4165 C11.3078333,7.23016667 11.3923333,7.01133333 11.453,6.76 C11.5136667,6.50866667 11.544,6.24 11.544,5.954 L11.544,5.811 Z" id="形状"></path>
                    <path d="M20.423,8.632 C20.2583333,8.61466667 20.0395,8.60166667 19.7665,8.593 C19.4935,8.58433333 19.2053333,8.58 18.902,8.58 C18.5986667,8.58 18.317,8.58433333 18.057,8.593 C17.797,8.60166667 17.5846667,8.61466667 17.42,8.632 L17.42,8.346 L17.862,8.294 C18.0526667,8.268 18.148,8.229 18.148,8.177 C18.148,8.099 18.0721667,7.96033333 17.9205,7.761 C17.7688333,7.56166667 17.537,7.25833333 17.225,6.851 C17.0256667,6.59966667 16.8653333,6.41333333 16.744,6.292 C16.6226667,6.17066667 16.51,6.11 16.406,6.11 L16.172,6.11 L16.172,7.722 C16.172,7.93866667 16.1958333,8.07516667 16.2435,8.1315 C16.2911667,8.18783333 16.3756667,8.229 16.497,8.255 L16.913,8.346 L16.913,8.632 C16.7743333,8.61466667 16.5728333,8.60166667 16.3085,8.593 C16.0441667,8.58433333 15.7733333,8.58 15.496,8.58 C15.2186667,8.58 14.9543333,8.58433333 14.703,8.593 C14.4516667,8.60166667 14.2566667,8.61466667 14.118,8.632 L14.118,8.346 L14.599,8.268 C14.755,8.242 14.8546667,8.20083333 14.898,8.1445 C14.9413333,8.08816667 14.963,7.94733333 14.963,7.722 L14.963,1.417 C14.963,1.313 14.9543333,1.23066667 14.937,1.17 C14.9196667,1.10933333 14.8828333,1.0595 14.8265,1.0205 C14.7701667,0.9815 14.69,0.949 14.586,0.923 C14.482,0.897 14.339,0.871 14.157,0.845 L14.157,0.585 C14.2696667,0.559 14.404,0.528666667 14.56,0.494 C14.716,0.459333333 14.8785,0.418166667 15.0475,0.3705 C15.2165,0.322833333 15.3811667,0.268666667 15.5415,0.208 C15.7018333,0.147333333 15.8426667,0.078 15.964,0 L16.172,0 L16.172,5.733 C16.3453333,5.733 16.5078333,5.68316667 16.6595,5.5835 C16.8111667,5.48383333 17.03,5.317 17.316,5.083 C17.6106667,4.849 17.8143333,4.67566667 17.927,4.563 C18.0396667,4.45033333 18.096,4.355 18.096,4.277 C18.096,4.10366667 17.8186667,3.97366667 17.264,3.887 L17.264,3.627 L19.981,3.627 L19.981,3.887 C19.3483333,3.95633333 18.811,4.186 18.369,4.576 L17.42,5.356 C17.602,5.58133333 17.8035,5.8435 18.0245,6.1425 C18.2455,6.4415 18.4708333,6.73183333 18.7005,7.0135 C18.9301667,7.29516667 19.1511667,7.5465 19.3635,7.7675 C19.5758333,7.9885 19.76,8.12933333 19.916,8.19 C19.9593333,8.216 20.0026667,8.23333333 20.046,8.242 C20.0893333,8.25066667 20.1283333,8.26366667 20.163,8.281 L20.423,8.346 L20.423,8.632 Z" id="路径"></path>
                    <path d="M25.402,5.447 L22.009,5.447 C21.9916667,5.53366667 21.9808333,5.59866667 21.9765,5.642 C21.9721667,5.68533333 21.97,5.75033333 21.97,5.837 C21.97,6.14033333 22.0133333,6.41766667 22.1,6.669 C22.1866667,6.92033333 22.308,7.137 22.464,7.319 C22.62,7.501 22.8085,7.64183333 23.0295,7.7415 C23.2505,7.84116667 23.4996667,7.891 23.777,7.891 C24.0803333,7.891 24.3598333,7.84116667 24.6155,7.7415 C24.8711667,7.64183333 25.142,7.45333333 25.428,7.176 L25.48,7.423 C25.3586667,7.61366667 25.2221667,7.79133333 25.0705,7.956 C24.9188333,8.12066667 24.7476667,8.26583333 24.557,8.3915 C24.3663333,8.51716667 24.1496667,8.61466667 23.907,8.684 C23.6643333,8.75333333 23.3913333,8.788 23.088,8.788 C22.7413333,8.788 22.425,8.723 22.139,8.593 C21.853,8.463 21.606,8.27883333 21.398,8.0405 C21.19,7.80216667 21.0275,7.51833333 20.9105,7.189 C20.7935,6.85966667 20.735,6.5 20.735,6.11 C20.735,5.71133333 20.7978333,5.34733333 20.9235,5.018 C21.0491667,4.68866667 21.2246667,4.40266667 21.45,4.16 C21.6753333,3.91733333 21.9483333,3.72883333 22.269,3.5945 C22.5896667,3.46016667 22.945,3.393 23.335,3.393 C23.673,3.393 23.9676667,3.445 24.219,3.549 C24.4703333,3.653 24.6805,3.79816667 24.8495,3.9845 C25.0185,4.17083333 25.1485,4.38966667 25.2395,4.641 C25.3305,4.89233333 25.3846667,5.161 25.402,5.447 Z M22.074,5.044 L23.608,5.044 C23.7813333,5.044 23.9135,5.02233333 24.0045,4.979 C24.0955,4.93566667 24.128,4.82733333 24.102,4.654 C24.076,4.41133333 24.0045,4.20116667 23.8875,4.0235 C23.7705,3.84583333 23.5733333,3.757 23.296,3.757 C22.984,3.757 22.724,3.8675 22.516,4.0885 C22.308,4.3095 22.1606667,4.628 22.074,5.044 Z" id="形状"></path>
                    <path d="M29.393,0.819 L29.393,0.494 L30.16,0.455 C30.9746667,0.411666667 31.6333333,0.379166667 32.136,0.3575 C32.6386667,0.335833333 32.9593333,0.325 33.098,0.325 C33.514,0.325 33.9083333,0.359666667 34.281,0.429 C34.6536667,0.498333333 34.9808333,0.606666667 35.2625,0.754 C35.5441667,0.901333333 35.7673333,1.09633333 35.932,1.339 C36.0966667,1.58166667 36.179,1.87633333 36.179,2.223 C36.179,2.60433333 36.0338333,2.94016667 35.7435,3.2305 C35.4531667,3.52083333 35.0653333,3.73966667 34.58,3.887 C34.9266667,3.95633333 35.2408333,4.04733333 35.5225,4.16 C35.8041667,4.27266667 36.0446667,4.42 36.244,4.602 C36.4433333,4.784 36.5971667,4.9985 36.7055,5.2455 C36.8138333,5.4925 36.868,5.785 36.868,6.123 C36.868,6.487 36.7726667,6.82066667 36.582,7.124 C36.3913333,7.42733333 36.1313333,7.6895 35.802,7.9105 C35.4726667,8.1315 35.0891667,8.30266667 34.6515,8.424 C34.2138333,8.54533333 33.748,8.60166667 33.254,8.593 C32.786,8.593 32.3223333,8.59083333 31.863,8.5865 C31.4036667,8.58216667 30.94,8.58 30.472,8.58 L29.471,8.58 L29.471,8.255 L30.186,8.099 C30.3506667,8.05566667 30.4676667,7.99066667 30.537,7.904 C30.6063333,7.81733333 30.641,7.64833333 30.641,7.397 L30.641,1.326 C30.641,1.25666667 30.6388333,1.19816667 30.6345,1.1505 C30.6301667,1.10283333 30.6085,1.06383333 30.5695,1.0335 C30.5305,1.00316667 30.472,0.977166667 30.394,0.9555 C30.316,0.933833333 30.2033333,0.914333333 30.056,0.897 L29.393,0.819 Z M32.045,3.887 C32.1143333,3.90433333 32.2291667,3.91516667 32.3895,3.9195 C32.5498333,3.92383333 32.773,3.926 33.059,3.926 C33.579,3.926 33.9863333,3.77433333 34.281,3.471 C34.5756667,3.16766667 34.723,2.74733333 34.723,2.21 C34.723,1.73333333 34.5648333,1.3715 34.2485,1.1245 C33.9321667,0.8775 33.5226667,0.754 33.02,0.754 C32.682,0.754 32.357,0.793 32.045,0.871 L32.045,3.887 Z M32.045,4.394 L32.045,7.176 C32.045,7.50533333 32.1663333,7.75233333 32.409,7.917 C32.6516667,8.08166667 33.007,8.164 33.475,8.164 C33.735,8.164 33.9776667,8.11633333 34.203,8.021 C34.4283333,7.92566667 34.6233333,7.79783333 34.788,7.6375 C34.9526667,7.47716667 35.0805,7.28433333 35.1715,7.059 C35.2625,6.83366667 35.308,6.591 35.308,6.331 C35.308,5.005 34.5496667,4.342 33.033,4.342 C32.8856667,4.342 32.7275,4.34633333 32.5585,4.355 C32.3895,4.36366667 32.2183333,4.37666667 32.045,4.394 Z" id="形状"></path>
                    <path d="M39.78,8.749 C39.4246667,8.749 39.117,8.68616667 38.857,8.5605 C38.597,8.43483333 38.3825,8.26366667 38.2135,8.047 C38.0445,7.83033333 37.9188333,7.57466667 37.8365,7.28 C37.7541667,6.98533333 37.713,6.669 37.713,6.331 C37.713,5.87166667 37.7866667,5.4665 37.934,5.1155 C38.0813333,4.7645 38.2741667,4.46766667 38.5125,4.225 C38.7508333,3.98233333 39.0281667,3.80033333 39.3445,3.679 C39.6608333,3.55766667 39.988,3.497 40.326,3.497 C40.534,3.497 40.7203333,3.51433333 40.885,3.549 C41.0496667,3.58366667 41.1926667,3.62266667 41.314,3.666 C41.4526667,3.70933333 41.5783333,3.76133333 41.691,3.822 L42.484,3.393 L42.601,3.432 C42.601,4.108 42.6031667,4.7775 42.6075,5.4405 C42.6118333,6.1035 42.614,6.773 42.614,7.449 C42.614,7.79566667 42.7613333,7.96033333 43.056,7.943 C43.1253333,7.943 43.1816667,7.93216667 43.225,7.9105 C43.2683333,7.88883333 43.3073333,7.86933333 43.342,7.852 C43.3766667,7.826 43.4113333,7.79566667 43.446,7.761 L43.537,7.891 C43.4676667,8.05566667 43.381,8.19866667 43.277,8.32 C43.1816667,8.43266667 43.0646667,8.53233333 42.926,8.619 C42.7873333,8.70566667 42.614,8.749 42.406,8.749 C42.068,8.749 41.8253333,8.645 41.678,8.437 C41.5306667,8.229 41.457,7.96033333 41.457,7.631 L41.457,7.293 C41.405,7.475 41.3356667,7.65483333 41.249,7.8325 C41.1623333,8.01016667 41.0518333,8.16616667 40.9175,8.3005 C40.7831667,8.43483333 40.6228333,8.54316667 40.4365,8.6255 C40.2501667,8.70783333 40.0313333,8.749 39.78,8.749 Z M41.457,5.811 C41.457,5.577 41.4418333,5.35166667 41.4115,5.135 C41.3811667,4.91833333 41.3226667,4.7255 41.236,4.5565 C41.1493333,4.3875 41.0323333,4.251 40.885,4.147 C40.7376667,4.043 40.5426667,3.991 40.3,3.991 C40.1526667,3.991 39.9966667,4.02566667 39.832,4.095 C39.6673333,4.16433333 39.5156667,4.277 39.377,4.433 C39.2383333,4.589 39.1256667,4.797 39.039,5.057 C38.9523333,5.317 38.909,5.63333333 38.909,6.006 C38.909,6.28333333 38.9371667,6.5455 38.9935,6.7925 C39.0498333,7.0395 39.1321667,7.254 39.2405,7.436 C39.3488333,7.618 39.4831667,7.76316667 39.6435,7.8715 C39.8038333,7.97983333 39.988,8.034 40.196,8.034 C40.3866667,8.034 40.56,7.97766667 40.716,7.865 C40.872,7.75233333 41.0041667,7.60283333 41.1125,7.4165 C41.2208333,7.23016667 41.3053333,7.01133333 41.366,6.76 C41.4266667,6.50866667 41.457,6.24 41.457,5.954 L41.457,5.811 Z" id="形状"></path>
                    <path d="M45.682,0.637 C45.8813333,0.637 46.0525,0.7085 46.1955,0.8515 C46.3385,0.9945 46.41,1.16566667 46.41,1.365 C46.41,1.53833333 46.3363333,1.6965 46.189,1.8395 C46.0416667,1.9825 45.8683333,2.054 45.669,2.054 C45.4696667,2.054 45.305,1.98683333 45.175,1.8525 C45.045,1.71816667 44.98,1.55566667 44.98,1.365 C44.98,1.16566667 45.0493333,0.9945 45.188,0.8515 C45.3266667,0.7085 45.4913333,0.637 45.682,0.637 Z M47.047,8.632 C46.9083333,8.61466667 46.709,8.60166667 46.449,8.593 C46.189,8.58433333 45.8856667,8.58 45.539,8.58 C45.1923333,8.58 44.889,8.58433333 44.629,8.593 C44.369,8.60166667 44.1696667,8.61466667 44.031,8.632 L44.031,8.346 L44.616,8.216 C44.8846667,8.164 45.019,8.00366667 45.019,7.735 L45.019,5.291 C45.019,5.083 44.967,4.93133333 44.863,4.836 C44.759,4.74066667 44.551,4.65833333 44.239,4.589 L44.239,4.329 C44.395,4.29433333 44.5553333,4.2445 44.72,4.1795 C44.8846667,4.1145 45.045,4.04083333 45.201,3.9585 C45.357,3.87616667 45.5,3.78733333 45.63,3.692 C45.76,3.59666667 45.864,3.49266667 45.942,3.38 C45.994,3.38 46.0438333,3.38216667 46.0915,3.3865 C46.1391667,3.39083333 46.1846667,3.393 46.228,3.393 L46.228,7.774 C46.228,7.904 46.2475,8.0015 46.2865,8.0665 C46.3255,8.1315 46.4013333,8.177 46.514,8.203 L47.047,8.346 L47.047,8.632 Z" id="形状"></path>
                    <path d="M53.846,8.632 C53.6813333,8.61466667 53.4625,8.60166667 53.1895,8.593 C52.9165,8.58433333 52.6283333,8.58 52.325,8.58 C52.0216667,8.58 51.74,8.58433333 51.48,8.593 C51.22,8.60166667 51.0076667,8.61466667 50.843,8.632 L50.843,8.346 L51.285,8.294 C51.4756667,8.268 51.571,8.229 51.571,8.177 C51.571,8.099 51.4951667,7.96033333 51.3435,7.761 C51.1918333,7.56166667 50.96,7.25833333 50.648,6.851 C50.4486667,6.59966667 50.2883333,6.41333333 50.167,6.292 C50.0456667,6.17066667 49.933,6.11 49.829,6.11 L49.595,6.11 L49.595,7.722 C49.595,7.93866667 49.6188333,8.07516667 49.6665,8.1315 C49.7141667,8.18783333 49.7986667,8.229 49.92,8.255 L50.336,8.346 L50.336,8.632 C50.1973333,8.61466667 49.9958333,8.60166667 49.7315,8.593 C49.4671667,8.58433333 49.1963333,8.58 48.919,8.58 C48.6416667,8.58 48.3773333,8.58433333 48.126,8.593 C47.8746667,8.60166667 47.6796667,8.61466667 47.541,8.632 L47.541,8.346 L48.022,8.268 C48.178,8.242 48.2776667,8.20083333 48.321,8.1445 C48.3643333,8.08816667 48.386,7.94733333 48.386,7.722 L48.386,1.417 C48.386,1.313 48.3773333,1.23066667 48.36,1.17 C48.3426667,1.10933333 48.3058333,1.0595 48.2495,1.0205 C48.1931667,0.9815 48.113,0.949 48.009,0.923 C47.905,0.897 47.762,0.871 47.58,0.845 L47.58,0.585 C47.6926667,0.559 47.827,0.528666667 47.983,0.494 C48.139,0.459333333 48.3015,0.418166667 48.4705,0.3705 C48.6395,0.322833333 48.8041667,0.268666667 48.9645,0.208 C49.1248333,0.147333333 49.2656667,0.078 49.387,0 L49.595,0 L49.595,5.733 C49.7683333,5.733 49.9308333,5.68316667 50.0825,5.5835 C50.2341667,5.48383333 50.453,5.317 50.739,5.083 C51.0336667,4.849 51.2373333,4.67566667 51.35,4.563 C51.4626667,4.45033333 51.519,4.355 51.519,4.277 C51.519,4.10366667 51.2416667,3.97366667 50.687,3.887 L50.687,3.627 L53.404,3.627 L53.404,3.887 C52.7713333,3.95633333 52.234,4.186 51.792,4.576 L50.843,5.356 C51.025,5.58133333 51.2265,5.8435 51.4475,6.1425 C51.6685,6.4415 51.8938333,6.73183333 52.1235,7.0135 C52.3531667,7.29516667 52.5741667,7.5465 52.7865,7.7675 C52.9988333,7.9885 53.183,8.12933333 53.339,8.19 C53.3823333,8.216 53.4256667,8.23333333 53.469,8.242 C53.5123333,8.25066667 53.5513333,8.26366667 53.586,8.281 L53.846,8.346 L53.846,8.632 Z" id="路径"></path>
                    <path d="M56.225,8.749 C55.8696667,8.749 55.562,8.68616667 55.302,8.5605 C55.042,8.43483333 54.8275,8.26366667 54.6585,8.047 C54.4895,7.83033333 54.3638333,7.57466667 54.2815,7.28 C54.1991667,6.98533333 54.158,6.669 54.158,6.331 C54.158,5.87166667 54.2316667,5.4665 54.379,5.1155 C54.5263333,4.7645 54.7191667,4.46766667 54.9575,4.225 C55.1958333,3.98233333 55.4731667,3.80033333 55.7895,3.679 C56.1058333,3.55766667 56.433,3.497 56.771,3.497 C56.979,3.497 57.1653333,3.51433333 57.33,3.549 C57.4946667,3.58366667 57.6376667,3.62266667 57.759,3.666 C57.8976667,3.70933333 58.0233333,3.76133333 58.136,3.822 L58.929,3.393 L59.046,3.432 C59.046,4.108 59.0481667,4.7775 59.0525,5.4405 C59.0568333,6.1035 59.059,6.773 59.059,7.449 C59.059,7.79566667 59.2063333,7.96033333 59.501,7.943 C59.5703333,7.943 59.6266667,7.93216667 59.67,7.9105 C59.7133333,7.88883333 59.7523333,7.86933333 59.787,7.852 C59.8216667,7.826 59.8563333,7.79566667 59.891,7.761 L59.982,7.891 C59.9126667,8.05566667 59.826,8.19866667 59.722,8.32 C59.6266667,8.43266667 59.5096667,8.53233333 59.371,8.619 C59.2323333,8.70566667 59.059,8.749 58.851,8.749 C58.513,8.749 58.2703333,8.645 58.123,8.437 C57.9756667,8.229 57.902,7.96033333 57.902,7.631 L57.902,7.293 C57.85,7.475 57.7806667,7.65483333 57.694,7.8325 C57.6073333,8.01016667 57.4968333,8.16616667 57.3625,8.3005 C57.2281667,8.43483333 57.0678333,8.54316667 56.8815,8.6255 C56.6951667,8.70783333 56.4763333,8.749 56.225,8.749 Z M57.902,5.811 C57.902,5.577 57.8868333,5.35166667 57.8565,5.135 C57.8261667,4.91833333 57.7676667,4.7255 57.681,4.5565 C57.5943333,4.3875 57.4773333,4.251 57.33,4.147 C57.1826667,4.043 56.9876667,3.991 56.745,3.991 C56.5976667,3.991 56.4416667,4.02566667 56.277,4.095 C56.1123333,4.16433333 55.9606667,4.277 55.822,4.433 C55.6833333,4.589 55.5706667,4.797 55.484,5.057 C55.3973333,5.317 55.354,5.63333333 55.354,6.006 C55.354,6.28333333 55.3821667,6.5455 55.4385,6.7925 C55.4948333,7.0395 55.5771667,7.254 55.6855,7.436 C55.7938333,7.618 55.9281667,7.76316667 56.0885,7.8715 C56.2488333,7.97983333 56.433,8.034 56.641,8.034 C56.8316667,8.034 57.005,7.97766667 57.161,7.865 C57.317,7.75233333 57.4491667,7.60283333 57.5575,7.4165 C57.6658333,7.23016667 57.7503333,7.01133333 57.811,6.76 C57.8716667,6.50866667 57.902,6.24 57.902,5.954 L57.902,5.811 Z" id="形状"></path>
                    <path d="M63.505,8.619 C63.297,8.61033333 63.0608333,8.60166667 62.7965,8.593 C62.5321667,8.58433333 62.2635,8.58 61.9905,8.58 C61.7175,8.58 61.4488333,8.58433333 61.1845,8.593 C60.9201667,8.60166667 60.684,8.61033333 60.476,8.619 L60.476,8.333 L61.152,8.177 C61.2646667,8.151 61.3426667,8.11633333 61.386,8.073 C61.4293333,8.02966667 61.451,7.943 61.451,7.813 L61.451,1.365 C61.451,1.183 61.399,1.04866667 61.295,0.962 C61.191,0.875333333 60.9613333,0.78 60.606,0.676 L60.606,0.429 C60.6926667,0.411666667 60.8053333,0.39 60.944,0.364 C61.0826667,0.338 61.2343333,0.307666667 61.399,0.273 C61.5636667,0.238333333 61.7305,0.197166667 61.8995,0.1495 C62.0685,0.101833333 62.2266667,0.052 62.374,0 L62.673,0 L62.673,7.787 C62.673,7.96033333 62.6903333,8.0665 62.725,8.1055 C62.7596667,8.1445 62.842,8.18133333 62.972,8.216 L63.505,8.333 L63.505,8.619 Z" id="路径"></path>
                </g>
                <g id="Lake-Mendota" transform="translate(148.247000, 288.390000)" fill="#000000" fill-rule="nonzero">
                    <path d="M2.756,7.839 C2.756,7.95166667 2.7755,8.03616667 2.8145,8.0925 C2.8535,8.14883333 2.95533333,8.177 3.12,8.177 L4.355,8.177 C4.615,8.177 4.8685,8.16616667 5.1155,8.1445 C5.3625,8.12283333 5.60516667,8.05566667 5.8435,7.943 C6.08183333,7.83033333 6.3115,7.65483333 6.5325,7.4165 C6.7535,7.17816667 6.968,6.84666667 7.176,6.422 L7.384,6.422 L7.007,8.632 C6.643,8.61466667 6.16416667,8.60166667 5.5705,8.593 C4.97683333,8.58433333 4.251,8.58 3.393,8.58 C2.535,8.58 1.82433333,8.58433333 1.261,8.593 C0.697666667,8.60166667 0.277333333,8.61466667 0,8.632 L0,8.372 L0.845,8.229 C1.079,8.203 1.21983333,8.15316667 1.2675,8.0795 C1.31516667,8.00583333 1.339,7.878 1.339,7.696 L1.339,1.287 C1.339,1.12233333 1.31083333,1.01833333 1.2545,0.975 C1.19816667,0.931666667 1.11366667,0.897 1.001,0.871 L0.182,0.702 L0.182,0.416 C0.65,0.442 1.352,0.455 2.288,0.455 C3.224,0.455 3.80466667,0.442 4.03,0.416 L4.03,0.702 L3.094,0.871 C2.97266667,0.897 2.886,0.9295 2.834,0.9685 C2.782,1.0075 2.756,1.11366667 2.756,1.287 L2.756,7.839 Z" id="路径"></path>
                    <path d="M9.867,8.749 C9.51166667,8.749 9.204,8.68616667 8.944,8.5605 C8.684,8.43483333 8.4695,8.26366667 8.3005,8.047 C8.1315,7.83033333 8.00583333,7.57466667 7.9235,7.28 C7.84116667,6.98533333 7.8,6.669 7.8,6.331 C7.8,5.87166667 7.87366667,5.4665 8.021,5.1155 C8.16833333,4.7645 8.36116667,4.46766667 8.5995,4.225 C8.83783333,3.98233333 9.11516667,3.80033333 9.4315,3.679 C9.74783333,3.55766667 10.075,3.497 10.413,3.497 C10.621,3.497 10.8073333,3.51433333 10.972,3.549 C11.1366667,3.58366667 11.2796667,3.62266667 11.401,3.666 C11.5396667,3.70933333 11.6653333,3.76133333 11.778,3.822 L12.571,3.393 L12.688,3.432 C12.688,4.108 12.6901667,4.7775 12.6945,5.4405 C12.6988333,6.1035 12.701,6.773 12.701,7.449 C12.701,7.79566667 12.8483333,7.96033333 13.143,7.943 C13.2123333,7.943 13.2686667,7.93216667 13.312,7.9105 C13.3553333,7.88883333 13.3943333,7.86933333 13.429,7.852 C13.4636667,7.826 13.4983333,7.79566667 13.533,7.761 L13.624,7.891 C13.5546667,8.05566667 13.468,8.19866667 13.364,8.32 C13.2686667,8.43266667 13.1516667,8.53233333 13.013,8.619 C12.8743333,8.70566667 12.701,8.749 12.493,8.749 C12.155,8.749 11.9123333,8.645 11.765,8.437 C11.6176667,8.229 11.544,7.96033333 11.544,7.631 L11.544,7.293 C11.492,7.475 11.4226667,7.65483333 11.336,7.8325 C11.2493333,8.01016667 11.1388333,8.16616667 11.0045,8.3005 C10.8701667,8.43483333 10.7098333,8.54316667 10.5235,8.6255 C10.3371667,8.70783333 10.1183333,8.749 9.867,8.749 Z M11.544,5.811 C11.544,5.577 11.5288333,5.35166667 11.4985,5.135 C11.4681667,4.91833333 11.4096667,4.7255 11.323,4.5565 C11.2363333,4.3875 11.1193333,4.251 10.972,4.147 C10.8246667,4.043 10.6296667,3.991 10.387,3.991 C10.2396667,3.991 10.0836667,4.02566667 9.919,4.095 C9.75433333,4.16433333 9.60266667,4.277 9.464,4.433 C9.32533333,4.589 9.21266667,4.797 9.126,5.057 C9.03933333,5.317 8.996,5.63333333 8.996,6.006 C8.996,6.28333333 9.02416667,6.5455 9.0805,6.7925 C9.13683333,7.0395 9.21916667,7.254 9.3275,7.436 C9.43583333,7.618 9.57016667,7.76316667 9.7305,7.8715 C9.89083333,7.97983333 10.075,8.034 10.283,8.034 C10.4736667,8.034 10.647,7.97766667 10.803,7.865 C10.959,7.75233333 11.0911667,7.60283333 11.1995,7.4165 C11.3078333,7.23016667 11.3923333,7.01133333 11.453,6.76 C11.5136667,6.50866667 11.544,6.24 11.544,5.954 L11.544,5.811 Z" id="形状"></path>
                    <path d="M20.423,8.632 C20.2583333,8.61466667 20.0395,8.60166667 19.7665,8.593 C19.4935,8.58433333 19.2053333,8.58 18.902,8.58 C18.5986667,8.58 18.317,8.58433333 18.057,8.593 C17.797,8.60166667 17.5846667,8.61466667 17.42,8.632 L17.42,8.346 L17.862,8.294 C18.0526667,8.268 18.148,8.229 18.148,8.177 C18.148,8.099 18.0721667,7.96033333 17.9205,7.761 C17.7688333,7.56166667 17.537,7.25833333 17.225,6.851 C17.0256667,6.59966667 16.8653333,6.41333333 16.744,6.292 C16.6226667,6.17066667 16.51,6.11 16.406,6.11 L16.172,6.11 L16.172,7.722 C16.172,7.93866667 16.1958333,8.07516667 16.2435,8.1315 C16.2911667,8.18783333 16.3756667,8.229 16.497,8.255 L16.913,8.346 L16.913,8.632 C16.7743333,8.61466667 16.5728333,8.60166667 16.3085,8.593 C16.0441667,8.58433333 15.7733333,8.58 15.496,8.58 C15.2186667,8.58 14.9543333,8.58433333 14.703,8.593 C14.4516667,8.60166667 14.2566667,8.61466667 14.118,8.632 L14.118,8.346 L14.599,8.268 C14.755,8.242 14.8546667,8.20083333 14.898,8.1445 C14.9413333,8.08816667 14.963,7.94733333 14.963,7.722 L14.963,1.417 C14.963,1.313 14.9543333,1.23066667 14.937,1.17 C14.9196667,1.10933333 14.8828333,1.0595 14.8265,1.0205 C14.7701667,0.9815 14.69,0.949 14.586,0.923 C14.482,0.897 14.339,0.871 14.157,0.845 L14.157,0.585 C14.2696667,0.559 14.404,0.528666667 14.56,0.494 C14.716,0.459333333 14.8785,0.418166667 15.0475,0.3705 C15.2165,0.322833333 15.3811667,0.268666667 15.5415,0.208 C15.7018333,0.147333333 15.8426667,0.078 15.964,0 L16.172,0 L16.172,5.733 C16.3453333,5.733 16.5078333,5.68316667 16.6595,5.5835 C16.8111667,5.48383333 17.03,5.317 17.316,5.083 C17.6106667,4.849 17.8143333,4.67566667 17.927,4.563 C18.0396667,4.45033333 18.096,4.355 18.096,4.277 C18.096,4.10366667 17.8186667,3.97366667 17.264,3.887 L17.264,3.627 L19.981,3.627 L19.981,3.887 C19.3483333,3.95633333 18.811,4.186 18.369,4.576 L17.42,5.356 C17.602,5.58133333 17.8035,5.8435 18.0245,6.1425 C18.2455,6.4415 18.4708333,6.73183333 18.7005,7.0135 C18.9301667,7.29516667 19.1511667,7.5465 19.3635,7.7675 C19.5758333,7.9885 19.76,8.12933333 19.916,8.19 C19.9593333,8.216 20.0026667,8.23333333 20.046,8.242 C20.0893333,8.25066667 20.1283333,8.26366667 20.163,8.281 L20.423,8.346 L20.423,8.632 Z" id="路径"></path>
                    <path d="M25.402,5.447 L22.009,5.447 C21.9916667,5.53366667 21.9808333,5.59866667 21.9765,5.642 C21.9721667,5.68533333 21.97,5.75033333 21.97,5.837 C21.97,6.14033333 22.0133333,6.41766667 22.1,6.669 C22.1866667,6.92033333 22.308,7.137 22.464,7.319 C22.62,7.501 22.8085,7.64183333 23.0295,7.7415 C23.2505,7.84116667 23.4996667,7.891 23.777,7.891 C24.0803333,7.891 24.3598333,7.84116667 24.6155,7.7415 C24.8711667,7.64183333 25.142,7.45333333 25.428,7.176 L25.48,7.423 C25.3586667,7.61366667 25.2221667,7.79133333 25.0705,7.956 C24.9188333,8.12066667 24.7476667,8.26583333 24.557,8.3915 C24.3663333,8.51716667 24.1496667,8.61466667 23.907,8.684 C23.6643333,8.75333333 23.3913333,8.788 23.088,8.788 C22.7413333,8.788 22.425,8.723 22.139,8.593 C21.853,8.463 21.606,8.27883333 21.398,8.0405 C21.19,7.80216667 21.0275,7.51833333 20.9105,7.189 C20.7935,6.85966667 20.735,6.5 20.735,6.11 C20.735,5.71133333 20.7978333,5.34733333 20.9235,5.018 C21.0491667,4.68866667 21.2246667,4.40266667 21.45,4.16 C21.6753333,3.91733333 21.9483333,3.72883333 22.269,3.5945 C22.5896667,3.46016667 22.945,3.393 23.335,3.393 C23.673,3.393 23.9676667,3.445 24.219,3.549 C24.4703333,3.653 24.6805,3.79816667 24.8495,3.9845 C25.0185,4.17083333 25.1485,4.38966667 25.2395,4.641 C25.3305,4.89233333 25.3846667,5.161 25.402,5.447 Z M22.074,5.044 L23.608,5.044 C23.7813333,5.044 23.9135,5.02233333 24.0045,4.979 C24.0955,4.93566667 24.128,4.82733333 24.102,4.654 C24.076,4.41133333 24.0045,4.20116667 23.8875,4.0235 C23.7705,3.84583333 23.5733333,3.757 23.296,3.757 C22.984,3.757 22.724,3.8675 22.516,4.0885 C22.308,4.3095 22.1606667,4.628 22.074,5.044 Z" id="形状"></path>
                    <path d="M40.651,8.619 C40.2956667,8.61033333 39.9381667,8.60166667 39.5785,8.593 C39.2188333,8.58433333 38.9003333,8.58 38.623,8.58 L38.233,8.58 C37.999,8.58 37.7281667,8.58216667 37.4205,8.5865 C37.1128333,8.59083333 36.7943333,8.60166667 36.465,8.619 L36.465,8.307 L37.245,8.151 C37.4443333,8.10766667 37.57,8.04266667 37.622,7.956 C37.674,7.86933333 37.7,7.70033333 37.7,7.449 L37.7,1.807 L34.632,8.684 L31.226,1.638 L31.226,7.527 C31.226,7.93433333 31.356,8.151 31.616,8.177 L32.812,8.307 L32.812,8.619 C32.292,8.593 31.759,8.58 31.213,8.58 C30.667,8.58 30.0516667,8.593 29.367,8.619 L29.367,8.307 L30.082,8.177 C30.2466667,8.151 30.3745,8.12066667 30.4655,8.086 C30.5565,8.05133333 30.6258333,8.01016667 30.6735,7.9625 C30.7211667,7.91483333 30.7493333,7.85633333 30.758,7.787 C30.7666667,7.71766667 30.771,7.631 30.771,7.527 L30.771,0.897 L29.588,0.754 L29.588,0.416 C29.7266667,0.442 30.1166667,0.455 30.758,0.455 C31.0786667,0.455 31.369,0.452833333 31.629,0.4485 C31.889,0.444166667 32.0753333,0.433333333 32.188,0.416 L35.113,6.37 L37.778,0.416 C37.986,0.433333333 38.2178333,0.444166667 38.4735,0.4485 C38.7291667,0.452833333 38.987,0.455 39.247,0.455 C39.507,0.455 39.7583333,0.452833333 40.001,0.4485 C40.2436667,0.444166667 40.456,0.433333333 40.638,0.416 L40.638,0.754 L39.832,0.923 C39.5806667,0.975 39.4073333,1.053 39.312,1.157 C39.2166667,1.261 39.169,1.43866667 39.169,1.69 L39.169,7.358 C39.169,7.62666667 39.1928333,7.8065 39.2405,7.8975 C39.2881667,7.9885 39.39,8.05133333 39.546,8.086 L40.651,8.307 L40.651,8.619 Z" id="路径"></path>
                    <path d="M45.955,5.447 L42.562,5.447 C42.5446667,5.53366667 42.5338333,5.59866667 42.5295,5.642 C42.5251667,5.68533333 42.523,5.75033333 42.523,5.837 C42.523,6.14033333 42.5663333,6.41766667 42.653,6.669 C42.7396667,6.92033333 42.861,7.137 43.017,7.319 C43.173,7.501 43.3615,7.64183333 43.5825,7.7415 C43.8035,7.84116667 44.0526667,7.891 44.33,7.891 C44.6333333,7.891 44.9128333,7.84116667 45.1685,7.7415 C45.4241667,7.64183333 45.695,7.45333333 45.981,7.176 L46.033,7.423 C45.9116667,7.61366667 45.7751667,7.79133333 45.6235,7.956 C45.4718333,8.12066667 45.3006667,8.26583333 45.11,8.3915 C44.9193333,8.51716667 44.7026667,8.61466667 44.46,8.684 C44.2173333,8.75333333 43.9443333,8.788 43.641,8.788 C43.2943333,8.788 42.978,8.723 42.692,8.593 C42.406,8.463 42.159,8.27883333 41.951,8.0405 C41.743,7.80216667 41.5805,7.51833333 41.4635,7.189 C41.3465,6.85966667 41.288,6.5 41.288,6.11 C41.288,5.71133333 41.3508333,5.34733333 41.4765,5.018 C41.6021667,4.68866667 41.7776667,4.40266667 42.003,4.16 C42.2283333,3.91733333 42.5013333,3.72883333 42.822,3.5945 C43.1426667,3.46016667 43.498,3.393 43.888,3.393 C44.226,3.393 44.5206667,3.445 44.772,3.549 C45.0233333,3.653 45.2335,3.79816667 45.4025,3.9845 C45.5715,4.17083333 45.7015,4.38966667 45.7925,4.641 C45.8835,4.89233333 45.9376667,5.161 45.955,5.447 Z M42.627,5.044 L44.161,5.044 C44.3343333,5.044 44.4665,5.02233333 44.5575,4.979 C44.6485,4.93566667 44.681,4.82733333 44.655,4.654 C44.629,4.41133333 44.5575,4.20116667 44.4405,4.0235 C44.3235,3.84583333 44.1263333,3.757 43.849,3.757 C43.537,3.757 43.277,3.8675 43.069,4.0885 C42.861,4.3095 42.7136667,4.628 42.627,5.044 Z" id="形状"></path>
                    <path d="M53.092,8.619 C52.6413333,8.593 52.1603333,8.58 51.649,8.58 C51.1376667,8.58 50.6566667,8.593 50.206,8.619 L50.206,8.346 L50.765,8.242 C50.9556667,8.216 51.051,8.047 51.051,7.735 L51.051,5.538 C51.051,5.33 51.0401667,5.1415 51.0185,4.9725 C50.9968333,4.8035 50.9535,4.66266667 50.8885,4.55 C50.8235,4.43733333 50.7303333,4.35066667 50.609,4.29 C50.4876667,4.22933333 50.3273333,4.199 50.128,4.199 C49.894,4.199 49.6578333,4.264 49.4195,4.394 C49.1811667,4.524 48.9623333,4.693 48.763,4.901 L48.763,7.878 C48.763,8.01666667 48.867,8.112 49.075,8.164 L49.608,8.346 L49.608,8.619 C49.4606667,8.60166667 49.3111667,8.59083333 49.1595,8.5865 C49.0078333,8.58216667 48.7976667,8.58 48.529,8.58 L48.113,8.58 C47.827,8.58 47.554,8.58216667 47.294,8.5865 C47.034,8.59083333 46.8303333,8.60166667 46.683,8.619 L46.683,8.346 L47.294,8.216 C47.4673333,8.17266667 47.554,8.04266667 47.554,7.826 L47.554,5.252 C47.554,4.98333333 47.4998333,4.80133333 47.3915,4.706 C47.2831667,4.61066667 47.0903333,4.54133333 46.813,4.498 L46.813,4.264 C46.9516667,4.22933333 47.1011667,4.18383333 47.2615,4.1275 C47.4218333,4.07116667 47.5778333,3.9975 47.7295,3.9065 C47.8811667,3.8155 48.0241667,3.70933333 48.1585,3.588 C48.2928333,3.46666667 48.399,3.32366667 48.477,3.159 L48.763,3.159 L48.763,4.381 C49.049,4.07766667 49.3631667,3.83716667 49.7055,3.6595 C50.0478333,3.48183333 50.3706667,3.393 50.674,3.393 C51.1766667,3.393 51.5688333,3.54033333 51.8505,3.835 C52.1321667,4.12966667 52.273,4.576 52.273,5.174 L52.273,7.696 C52.273,7.86066667 52.2946667,7.98416667 52.338,8.0665 C52.3813333,8.14883333 52.468,8.20733333 52.598,8.242 L53.092,8.346 L53.092,8.619 Z" id="路径"></path>
                    <path d="M57.694,1.495 C57.694,1.33033333 57.6853333,1.196 57.668,1.092 C57.6506667,0.988 57.6073333,0.9035 57.538,0.8385 C57.4686667,0.7735 57.3668333,0.717166667 57.2325,0.6695 C57.0981667,0.621833333 56.914,0.567666667 56.68,0.507 L56.68,0.299 C56.8186667,0.290333333 56.9768333,0.277333333 57.1545,0.26 C57.3321667,0.242666667 57.5076667,0.221 57.681,0.195 C57.8543333,0.169 58.0233333,0.140833333 58.188,0.1105 C58.3526667,0.0801666667 58.4913333,0.0433333333 58.604,0 L58.929,0 L58.929,7.618 C58.929,7.774 58.9355,7.89533333 58.9485,7.982 C58.9615,8.06866667 58.9983333,8.1315 59.059,8.1705 C59.1196667,8.2095 59.2085,8.23333333 59.3255,8.242 C59.4425,8.25066667 59.605,8.25933333 59.813,8.268 L59.813,8.554 C59.6483333,8.58866667 59.4685,8.62116667 59.2735,8.6515 C59.0785,8.68183333 58.8835,8.71 58.6885,8.736 C58.4935,8.762 58.3093333,8.78583333 58.136,8.8075 C57.9626667,8.82916667 57.8153333,8.84433333 57.694,8.853 L57.694,8.099 C57.356,8.29833333 57.0505,8.463 56.7775,8.593 C56.5045,8.723 56.1903333,8.788 55.835,8.788 C55.5403333,8.788 55.2673333,8.74033333 55.016,8.645 C54.7646667,8.54966667 54.535,8.37633333 54.327,8.125 C53.911,7.631 53.703,7.02866667 53.703,6.318 C53.703,5.85866667 53.7788333,5.44916667 53.9305,5.0895 C54.0821667,4.72983333 54.2836667,4.42433333 54.535,4.173 C54.7863333,3.92166667 55.068,3.72883333 55.38,3.5945 C55.692,3.46016667 56.0126667,3.393 56.342,3.393 C56.6453333,3.393 56.9075,3.42333333 57.1285,3.484 C57.3495,3.54466667 57.538,3.63133333 57.694,3.744 L57.694,1.495 Z M57.694,7.722 L57.694,5.421 C57.694,5.239 57.6831667,5.05483333 57.6615,4.8685 C57.6398333,4.68216667 57.5878333,4.51533333 57.5055,4.368 C57.4231667,4.22066667 57.2996667,4.09933333 57.135,4.004 C56.9703333,3.90866667 56.745,3.861 56.459,3.861 C56.251,3.861 56.0603333,3.91733333 55.887,4.03 C55.7136667,4.14266667 55.5641667,4.29866667 55.4385,4.498 C55.3128333,4.69733333 55.2175,4.93133333 55.1525,5.2 C55.0875,5.46866667 55.055,5.759 55.055,6.071 C55.055,6.669 55.185,7.15216667 55.445,7.5205 C55.705,7.88883333 56.069,8.073 56.537,8.073 C56.8056667,8.073 57.0331667,8.0405 57.2195,7.9755 C57.4058333,7.9105 57.564,7.826 57.694,7.722 Z" id="形状"></path>
                    <path d="M63.193,8.788 C62.7683333,8.788 62.387,8.72083333 62.049,8.5865 C61.711,8.45216667 61.425,8.26366667 61.191,8.021 C60.957,7.77833333 60.7771667,7.4945 60.6515,7.1695 C60.5258333,6.8445 60.463,6.487 60.463,6.097 C60.463,5.69833333 60.5236667,5.33216667 60.645,4.9985 C60.7663333,4.66483333 60.9483333,4.37883333 61.191,4.1405 C61.4336667,3.90216667 61.7305,3.71583333 62.0815,3.5815 C62.4325,3.44716667 62.8376667,3.38 63.297,3.38 C63.7563333,3.38 64.1593333,3.4515 64.506,3.5945 C64.8526667,3.7375 65.143,3.9325 65.377,4.1795 C65.611,4.4265 65.7886667,4.71683333 65.91,5.0505 C66.0313333,5.38416667 66.092,5.74166667 66.092,6.123 C66.092,6.513 66.0226667,6.8705 65.884,7.1955 C65.7453333,7.5205 65.5503333,7.8 65.299,8.034 C65.0476667,8.268 64.7443333,8.45216667 64.389,8.5865 C64.0336667,8.72083333 63.635,8.788 63.193,8.788 Z M61.815,6.188 C61.815,6.87266667 61.9428333,7.41216667 62.1985,7.8065 C62.4541667,8.20083333 62.803,8.398 63.245,8.398 C63.687,8.398 64.0423333,8.19 64.311,7.774 C64.5796667,7.358 64.714,6.80333333 64.714,6.11 C64.714,5.41666667 64.5883333,4.8555 64.337,4.4265 C64.0856667,3.9975 63.726,3.783 63.258,3.783 C62.79,3.783 62.4325,3.98666667 62.1855,4.394 C61.9385,4.80133333 61.815,5.39933333 61.815,6.188 Z" id="形状"></path>
                    <path d="M68.653,2.314 L68.887,2.314 C68.887,2.548 68.8891667,2.77983333 68.8935,3.0095 C68.8978333,3.23916667 68.9,3.471 68.9,3.705 L70.577,3.666 L70.577,4.225 L68.9,4.277 L68.9,6.734 C68.9,7.16733333 68.9411667,7.4945 69.0235,7.7155 C69.1058333,7.9365 69.3073333,8.03833333 69.628,8.021 C69.758,8.021 69.9031667,8.0015 70.0635,7.9625 C70.2238333,7.9235 70.4036667,7.83033333 70.603,7.683 L70.72,7.865 C70.5726667,8.09033333 70.3625,8.3005 70.0895,8.4955 C69.8165,8.6905 69.4503333,8.788 68.991,8.788 C68.5316667,8.788 68.2001667,8.66883333 67.9965,8.4305 C67.7928333,8.19216667 67.691,7.76533333 67.691,7.15 L67.691,4.303 C67.5696667,4.303 67.4526667,4.30516667 67.34,4.3095 C67.2273333,4.31383333 67.1103333,4.316 66.989,4.316 C66.8676667,4.316 66.8048333,4.26833333 66.8005,4.173 C66.7961667,4.07766667 66.8546667,4.004 66.976,3.952 C67.158,3.874 67.3248333,3.79166667 67.4765,3.705 C67.6281667,3.61833333 67.7516667,3.52733333 67.847,3.432 C67.9423333,3.33666667 68.0766667,3.19366667 68.25,3.003 C68.4233333,2.81233333 68.5576667,2.58266667 68.653,2.314 Z" id="路径"></path>
                    <path d="M73.294,8.749 C72.9386667,8.749 72.631,8.68616667 72.371,8.5605 C72.111,8.43483333 71.8965,8.26366667 71.7275,8.047 C71.5585,7.83033333 71.4328333,7.57466667 71.3505,7.28 C71.2681667,6.98533333 71.227,6.669 71.227,6.331 C71.227,5.87166667 71.3006667,5.4665 71.448,5.1155 C71.5953333,4.7645 71.7881667,4.46766667 72.0265,4.225 C72.2648333,3.98233333 72.5421667,3.80033333 72.8585,3.679 C73.1748333,3.55766667 73.502,3.497 73.84,3.497 C74.048,3.497 74.2343333,3.51433333 74.399,3.549 C74.5636667,3.58366667 74.7066667,3.62266667 74.828,3.666 C74.9666667,3.70933333 75.0923333,3.76133333 75.205,3.822 L75.998,3.393 L76.115,3.432 C76.115,4.108 76.1171667,4.7775 76.1215,5.4405 C76.1258333,6.1035 76.128,6.773 76.128,7.449 C76.128,7.79566667 76.2753333,7.96033333 76.57,7.943 C76.6393333,7.943 76.6956667,7.93216667 76.739,7.9105 C76.7823333,7.88883333 76.8213333,7.86933333 76.856,7.852 C76.8906667,7.826 76.9253333,7.79566667 76.96,7.761 L77.051,7.891 C76.9816667,8.05566667 76.895,8.19866667 76.791,8.32 C76.6956667,8.43266667 76.5786667,8.53233333 76.44,8.619 C76.3013333,8.70566667 76.128,8.749 75.92,8.749 C75.582,8.749 75.3393333,8.645 75.192,8.437 C75.0446667,8.229 74.971,7.96033333 74.971,7.631 L74.971,7.293 C74.919,7.475 74.8496667,7.65483333 74.763,7.8325 C74.6763333,8.01016667 74.5658333,8.16616667 74.4315,8.3005 C74.2971667,8.43483333 74.1368333,8.54316667 73.9505,8.6255 C73.7641667,8.70783333 73.5453333,8.749 73.294,8.749 Z M74.971,5.811 C74.971,5.577 74.9558333,5.35166667 74.9255,5.135 C74.8951667,4.91833333 74.8366667,4.7255 74.75,4.5565 C74.6633333,4.3875 74.5463333,4.251 74.399,4.147 C74.2516667,4.043 74.0566667,3.991 73.814,3.991 C73.6666667,3.991 73.5106667,4.02566667 73.346,4.095 C73.1813333,4.16433333 73.0296667,4.277 72.891,4.433 C72.7523333,4.589 72.6396667,4.797 72.553,5.057 C72.4663333,5.317 72.423,5.63333333 72.423,6.006 C72.423,6.28333333 72.4511667,6.5455 72.5075,6.7925 C72.5638333,7.0395 72.6461667,7.254 72.7545,7.436 C72.8628333,7.618 72.9971667,7.76316667 73.1575,7.8715 C73.3178333,7.97983333 73.502,8.034 73.71,8.034 C73.9006667,8.034 74.074,7.97766667 74.23,7.865 C74.386,7.75233333 74.5181667,7.60283333 74.6265,7.4165 C74.7348333,7.23016667 74.8193333,7.01133333 74.88,6.76 C74.9406667,6.50866667 74.971,6.24 74.971,5.954 L74.971,5.811 Z" id="形状"></path>
                </g>
                <path d="M253,221.75 L253,310.75 L122,310.75 L122,221.75 L253,221.75 Z M252,222.75 L123,222.75 L123,309.75 L252,309.75 L252,222.75 Z" id="矩形" fill="#000000" fill-rule="nonzero"></path>
            </g>
        </g>
    </g>
</svg>