<?xml version="1.0" encoding="utf-8"?>
<!-- Generator: Adobe Illustrator 28.2.0, SVG Export Plug-In . SVG Version: 6.00 Build 0)  -->
<svg version="1.1" id="_图层_1" xmlns="http://www.w3.org/2000/svg" xmlns:xlink="http://www.w3.org/1999/xlink" x="0px" y="0px"
	 viewBox="0 0 311.3 310" style="enable-background:new 0 0 311.3 310;" xml:space="preserve">
<style type="text/css">
	.st0{fill:none;stroke:#231815;stroke-miterlimit:10;}
	.st1{fill:#231815;}
	.st2{fill:#595757;stroke:#231815;stroke-miterlimit:10;}
	.st3{fill:#595757;stroke:#231815;stroke-width:0.75;stroke-miterlimit:10;}
	.st4{fill:#231815;stroke:#231815;stroke-width:0.75;stroke-miterlimit:10;}
	.st5{fill:#C9CACA;stroke:#231815;stroke-miterlimit:10;}
	.st6{fill:#C9CACA;stroke:#231815;stroke-width:0.75;stroke-miterlimit:10;}
	.st7{fill:#231815;stroke:#231815;stroke-miterlimit:10;}
</style>
<line class="st0" x1="74.8" y1="70.7" x2="270.9" y2="70.7"/>
<line class="st0" x1="74.8" y1="91.7" x2="270.9" y2="91.7"/>
<line class="st0" x1="74.8" y1="112.7" x2="270.9" y2="112.7"/>
<line class="st0" x1="78.1" y1="70.7" x2="78.1" y2="195.7"/>
<line class="st0" x1="74.8" y1="132.7" x2="270.9" y2="132.7"/>
<line class="st0" x1="74.8" y1="153.7" x2="270.9" y2="153.7"/>
<line class="st0" x1="74.8" y1="174.7" x2="270.9" y2="174.7"/>
<line class="st0" x1="74.8" y1="195.7" x2="270.9" y2="195.7"/>
<g>
	<path class="st1" d="M114.1,25.2v-0.4c0.9-0.1,1-0.2,0.8-0.7c-0.2-0.5-0.4-1-0.7-1.7h-2.9c-0.2,0.5-0.4,1-0.6,1.5
		c-0.3,0.8-0.1,0.9,1,1v0.4h-3.2v-0.4c0.8-0.1,1.1-0.2,1.5-1.2l2.8-6.3l0.5-0.1c0.8,2.1,1.8,4.3,2.6,6.4c0.4,1.1,0.6,1.1,1.5,1.2
		v0.4C117.6,25.2,114.1,25.2,114.1,25.2z M112.8,18.9c-0.4,1-0.9,2-1.3,3h2.4C114,21.9,112.8,18.9,112.8,18.9z"/>
	<path class="st1" d="M122.7,20.2c-0.7,0.1-0.8,0.2-1.2,0.9c-0.4,1-1.2,2.5-1.9,4.2h-0.4c-0.6-1.4-1.2-2.8-1.9-4.2
		c-0.3-0.7-0.4-0.8-1.1-0.9v-0.3h2.9v0.3c-0.7,0.1-0.8,0.2-0.6,0.7c0.3,0.8,0.9,2.1,1.2,2.9c0.4-1,0.9-2,1.2-2.7
		c0.2-0.5,0.2-0.7-0.7-0.8v-0.3h2.5L122.7,20.2L122.7,20.2z"/>
	<path class="st1" d="M127.4,24.1c-0.8,1-1.8,1.2-2.3,1.2c-1.7,0-2.7-1.2-2.7-2.6c0-0.8,0.3-1.6,0.9-2.1c0.6-0.6,1.3-0.9,2-0.9
		c1.2,0,2.1,0.9,2.1,1.9c0,0.2-0.1,0.4-0.2,0.4c-0.3,0-2,0.1-3.6,0.2c0,1.5,1,2.2,2,2.2c0.6,0,1.1-0.2,1.6-0.6L127.4,24.1z
		 M125.1,20.2c-0.6,0-1.2,0.5-1.3,1.5c0.7,0,1.4,0,2.2,0c0.2,0,0.3-0.1,0.3-0.2C126.2,20.8,125.8,20.2,125.1,20.2L125.1,20.2z"/>
	<path class="st1" d="M131,25.2h-3.2v-0.4c0.8-0.1,0.9-0.1,0.9-0.9v-2.5c0-0.8-0.1-0.8-0.8-0.9v-0.3c0.7-0.1,1.3-0.2,2-0.5V21
		c0.5-0.7,1.1-1.3,1.7-1.3c0.5,0,0.8,0.3,0.8,0.6s-0.3,0.6-0.5,0.7c-0.1,0.1-0.3,0-0.4,0c-0.2-0.2-0.4-0.3-0.6-0.3
		c-0.3,0-0.7,0.3-1,0.9v2.3c0,0.8,0.1,0.8,1.1,0.9V25.2z"/>
	<path class="st1" d="M136.8,25.3c-0.2,0-0.5-0.1-0.7-0.2c-0.2-0.1-0.3-0.3-0.3-0.5c-0.5,0.3-1.2,0.8-1.6,0.8c-1,0-1.7-0.7-1.7-1.5
		c0-0.6,0.4-1,1.1-1.2c0.8-0.2,1.8-0.6,2.1-0.8v-0.3c0-0.8-0.4-1.3-1.1-1.3c-0.3,0-0.5,0.1-0.6,0.3c-0.1,0.2-0.2,0.4-0.4,0.8
		c-0.1,0.2-0.2,0.3-0.4,0.3c-0.3,0-0.6-0.2-0.6-0.5c0-0.2,0.2-0.3,0.4-0.5c0.4-0.3,1.2-0.7,2-0.8c0.4,0,0.9,0.1,1.2,0.3
		c0.5,0.4,0.7,0.8,0.7,1.4v2.3c0,0.6,0.2,0.7,0.5,0.7c0.2,0,0.3-0.1,0.5-0.1l0.1,0.4C138,24.7,136.8,25.3,136.8,25.3z M135.7,22.3
		c-0.3,0.1-0.9,0.4-1.2,0.5c-0.5,0.2-0.8,0.4-0.8,0.9c0,0.6,0.5,0.9,0.9,0.9c0.3,0,0.8-0.2,1-0.4V22.3L135.7,22.3z"/>
	<path class="st1" d="M139.9,23.4c-0.3,0.2-0.4,0.4-0.4,0.6c0,0.2,0.2,0.5,0.8,0.5c0.5,0,1.1,0,1.5,0c0.9,0,2,0.3,2,1.5
		c0,1.3-1.7,2.4-3.5,2.4c-1.6,0-2.4-0.8-2.4-1.5c0-0.3,0.1-0.5,0.4-0.7c0.3-0.2,0.8-0.6,1.1-0.8c-0.5-0.1-0.8-0.4-1-0.6
		c-0.1-0.2-0.2-0.4-0.2-0.5c0.5-0.2,1-0.5,1.3-0.8L139.9,23.4L139.9,23.4z M140.5,23.5c-1.3,0-2.3-0.7-2.3-1.8c0-1.4,1.4-2,2.5-2
		c0.5,0,0.9,0.1,1.3,0.3c0.6,0,1.4-0.1,1.8-0.2l0.1,0.1c-0.1,0.2-0.3,0.5-0.5,0.7c-0.2,0-0.6,0-0.8-0.1c0.2,0.3,0.4,0.6,0.4,1.1
		C142.9,22.9,141.7,23.5,140.5,23.5L140.5,23.5z M140.8,25.3c-0.7,0-1,0.1-1.2,0.2c-0.4,0.3-0.6,0.6-0.6,0.9c0,0.7,0.8,1.1,1.8,1.1
		c1.2,0,1.9-0.6,1.9-1.3c0-0.4-0.2-0.7-0.6-0.9C141.8,25.4,141.3,25.3,140.8,25.3z M140.5,20.1c-0.6,0-1.1,0.5-1.1,1.4
		s0.5,1.6,1.2,1.6c0.6,0,1.1-0.5,1.1-1.4S141.2,20.1,140.5,20.1z"/>
	<path class="st1" d="M148.7,24.1c-0.9,1-1.8,1.2-2.3,1.2c-1.7,0-2.7-1.2-2.7-2.6c0-0.8,0.4-1.6,0.9-2.1c0.6-0.6,1.3-0.9,2-0.9
		c1.2,0,2.1,0.9,2.1,1.9c0,0.2-0.1,0.4-0.2,0.4c-0.3,0-2,0.1-3.6,0.2c0,1.5,1,2.2,2,2.2c0.6,0,1.1-0.2,1.6-0.6L148.7,24.1
		L148.7,24.1z M146.4,20.2c-0.6,0-1.2,0.5-1.4,1.5c0.7,0,1.4,0,2.2,0c0.2,0,0.3-0.1,0.3-0.2C147.5,20.8,147.1,20.2,146.4,20.2
		L146.4,20.2z"/>
	<path class="st1" d="M159,19.3c-0.1-0.4-0.3-0.8-0.5-1c-0.2-0.3-0.4-0.4-1.1-0.4h-1.3v5.8c0,1,0.1,1.1,1.4,1.1v0.4h-4v-0.4
		c1.2-0.1,1.3-0.2,1.3-1.1v-5.8h-1.1c-0.7,0-1,0.1-1.2,0.4c-0.2,0.2-0.3,0.5-0.5,1h-0.4c0.1-0.8,0.2-1.5,0.2-2.2h0.3
		c0.2,0.3,0.4,0.3,0.7,0.3h5.4c0.4,0,0.5,0,0.7-0.3h0.3c0,0.5,0.1,1.5,0.1,2.2L159,19.3L159,19.3z"/>
	<path class="st1" d="M161.6,19.8c1.7,0,3,1.2,3,2.7c0,1.9-1.6,2.9-3,2.9c-1.9,0-3-1.3-3-2.7C158.6,20.7,160.3,19.8,161.6,19.8z
		 M161.5,20.2c-0.8,0-1.5,0.7-1.5,2.1c0,1.5,0.7,2.6,1.8,2.6c0.8,0,1.4-0.5,1.4-2.2C163.2,21.3,162.6,20.2,161.5,20.2L161.5,20.2z"
		/>
	<path class="st1" d="M167.8,25.2c-0.2,0.1-0.4,0.1-0.6,0.1c-0.9,0-1.4-0.5-1.4-1.4v-3.5h-0.9l-0.1-0.1l0.4-0.4h0.6v-1
		c0.3-0.2,0.7-0.6,1-0.8l0.2,0c0,0.5,0,1.2,0,1.8h1.5c0.1,0.1,0.1,0.4-0.1,0.5H167v3c0,1,0.4,1.1,0.8,1.1c0.3,0,0.6-0.1,0.8-0.2
		l0.1,0.3L167.8,25.2L167.8,25.2z"/>
	<path class="st1" d="M173.1,25.3c-0.2,0-0.5-0.1-0.7-0.2c-0.2-0.1-0.3-0.3-0.3-0.5c-0.5,0.3-1.2,0.8-1.6,0.8c-1,0-1.7-0.7-1.7-1.5
		c0-0.6,0.4-1,1.1-1.2c0.8-0.2,1.8-0.6,2.1-0.8v-0.3c0-0.8-0.4-1.3-1.1-1.3c-0.3,0-0.5,0.1-0.6,0.3c-0.1,0.2-0.2,0.4-0.4,0.8
		c-0.1,0.2-0.2,0.3-0.4,0.3c-0.3,0-0.6-0.2-0.6-0.5c0-0.2,0.2-0.3,0.4-0.5c0.4-0.3,1.2-0.7,2-0.8c0.4,0,0.9,0.1,1.2,0.3
		c0.5,0.4,0.7,0.8,0.7,1.4v2.3c0,0.6,0.2,0.7,0.5,0.7c0.2,0,0.3-0.1,0.5-0.1l0.1,0.4C174.3,24.7,173.1,25.3,173.1,25.3z M172.1,22.3
		c-0.3,0.1-0.9,0.4-1.2,0.5c-0.5,0.2-0.8,0.4-0.8,0.9c0,0.6,0.5,0.9,0.9,0.9c0.3,0,0.8-0.2,1-0.4V22.3L172.1,22.3z"/>
	<path class="st1" d="M174.2,25.2v-0.4c0.9-0.1,0.9-0.1,0.9-0.9v-5.7c0-0.7-0.1-0.8-0.9-0.9V17c0.8-0.1,1.6-0.3,2.1-0.4v7.3
		c0,0.8,0.1,0.9,0.9,0.9v0.4L174.2,25.2L174.2,25.2z"/>
	<path class="st1" d="M184.7,25.2v-0.4c0.9-0.1,1-0.2,0.8-0.7c-0.2-0.5-0.4-1-0.7-1.7h-2.9c-0.2,0.5-0.4,1-0.6,1.5
		c-0.3,0.8-0.1,0.9,1,1v0.4h-3.1v-0.4c0.9-0.1,1.1-0.2,1.5-1.2l2.8-6.3l0.5-0.1c0.9,2.1,1.8,4.3,2.6,6.4c0.4,1.1,0.6,1.1,1.5,1.2
		v0.4H184.7L184.7,25.2z M183.4,18.9c-0.4,1-0.9,2-1.3,3h2.4L183.4,18.9z"/>
	<path class="st1" d="M190.1,23.4c-0.3,0.2-0.4,0.4-0.4,0.6c0,0.2,0.2,0.5,0.8,0.5c0.5,0,1.1,0,1.5,0c0.9,0,2,0.3,2,1.5
		c0,1.3-1.7,2.4-3.5,2.4c-1.6,0-2.4-0.8-2.4-1.5c0-0.3,0.1-0.5,0.4-0.7c0.3-0.2,0.8-0.6,1.1-0.8c-0.5-0.1-0.8-0.4-1-0.6
		c-0.1-0.2-0.2-0.4-0.2-0.5c0.5-0.2,1-0.5,1.3-0.8L190.1,23.4L190.1,23.4z M190.8,23.5c-1.3,0-2.3-0.7-2.3-1.8c0-1.4,1.4-2,2.5-2
		c0.5,0,0.9,0.1,1.3,0.3c0.6,0,1.4-0.1,1.8-0.2l0.1,0.1c-0.1,0.2-0.3,0.5-0.5,0.7c-0.2,0-0.6,0-0.8-0.1c0.2,0.3,0.4,0.6,0.4,1.1
		C193.2,22.9,192,23.5,190.8,23.5L190.8,23.5z M191.1,25.3c-0.7,0-1,0.1-1.2,0.2c-0.4,0.3-0.6,0.6-0.6,0.9c0,0.7,0.8,1.1,1.8,1.1
		c1.2,0,1.9-0.6,1.9-1.3c0-0.4-0.2-0.7-0.6-0.9C192.1,25.4,191.6,25.3,191.1,25.3z M190.8,20.1c-0.6,0-1.1,0.5-1.1,1.4
		s0.5,1.6,1.2,1.6c0.6,0,1.1-0.5,1.1-1.4S191.5,20.1,190.8,20.1z"/>
	<path class="st1" d="M197.3,25.2h-3.2v-0.4c0.8-0.1,0.9-0.1,0.9-0.9v-2.5c0-0.8-0.1-0.8-0.8-0.9v-0.3c0.7-0.1,1.3-0.2,2-0.5V21
		c0.5-0.7,1.1-1.3,1.7-1.3c0.5,0,0.8,0.3,0.8,0.6s-0.3,0.6-0.5,0.7c-0.1,0.1-0.3,0-0.4,0c-0.2-0.2-0.4-0.3-0.6-0.3
		c-0.3,0-0.7,0.3-1,0.9v2.3c0,0.8,0.1,0.8,1.1,0.9V25.2z"/>
	<path class="st1" d="M198.8,25.2v-0.4c0.8-0.1,0.9-0.1,0.9-1v-2.5c0-0.8-0.1-0.8-0.8-0.9v-0.3c0.7-0.1,1.4-0.3,2-0.5v4.1
		c0,0.8,0.1,0.9,0.9,1v0.4H198.8L198.8,25.2z M200.2,18.6c-0.4,0-0.8-0.3-0.8-0.7c0-0.4,0.4-0.7,0.8-0.7s0.7,0.3,0.7,0.7
		C201,18.3,200.7,18.6,200.2,18.6L200.2,18.6z"/>
	<path class="st1" d="M207.2,24.1c-0.6,0.7-1.5,1.2-2.3,1.2c-1.7,0-2.8-1.2-2.8-2.5c0-0.9,0.5-1.7,1.4-2.3c0.8-0.5,1.6-0.7,2.1-0.7
		c0.6,0,1,0.2,1.2,0.3c0.2,0.1,0.2,0.2,0.2,0.4c0,0.3-0.4,0.6-0.5,0.6c-0.1,0-0.1,0-0.3-0.1c-0.4-0.4-0.9-0.5-1.4-0.5
		c-0.8,0-1.6,0.6-1.6,1.9c0,1.6,1.3,2.2,2,2.2c0.6,0,1-0.1,1.6-0.6L207.2,24.1L207.2,24.1z"/>
	<path class="st1" d="M214,24.9c-0.7,0.1-1.4,0.2-2.1,0.4v-0.9c-0.7,0.5-1.3,0.9-2,0.9c-0.9,0-1.7-0.5-1.7-1.8v-2.4
		c0-0.6-0.1-0.7-0.4-0.8l-0.4-0.1V20c0.6,0,1.5-0.1,2-0.2c0,0.4,0,1,0,1.8v1.6c0,1,0.6,1.3,1.2,1.3c0.5,0,0.9-0.2,1.4-0.5v-2.8
		c0-0.6-0.1-0.7-0.6-0.8l-0.4,0V20c0.9,0,1.8-0.2,2.2-0.2v4c0,0.6,0.1,0.7,0.6,0.7h0.4L214,24.9L214,24.9z"/>
	<path class="st1" d="M214,25.2v-0.4c0.8-0.1,0.9-0.1,0.9-0.9v-5.7c0-0.7-0.1-0.8-0.9-0.9V17c0.8-0.1,1.6-0.3,2.1-0.4v7.3
		c0,0.8,0.1,0.9,0.9,0.9v0.4L214,25.2L214,25.2z"/>
	<path class="st1" d="M219.9,25.2c-0.2,0.1-0.4,0.1-0.6,0.1c-0.9,0-1.4-0.5-1.4-1.4v-3.5H217l-0.1-0.1l0.4-0.4h0.6v-1
		c0.3-0.2,0.7-0.6,1-0.8l0.2,0c0,0.5,0,1.2,0,1.8h1.5c0.1,0.1,0.1,0.4-0.1,0.5h-1.4v3c0,1,0.4,1.1,0.8,1.1c0.3,0,0.6-0.1,0.8-0.2
		l0.1,0.3L219.9,25.2L219.9,25.2z"/>
	<path class="st1" d="M227.3,24.9c-0.7,0.1-1.4,0.2-2.1,0.4v-0.9c-0.7,0.5-1.3,0.9-2,0.9c-0.9,0-1.7-0.5-1.7-1.8v-2.4
		c0-0.6-0.1-0.7-0.4-0.8l-0.4-0.1V20c0.6,0,1.5-0.1,2-0.2c0,0.4,0,1,0,1.8v1.6c0,1,0.6,1.3,1.2,1.3c0.5,0,0.9-0.2,1.4-0.5v-2.8
		c0-0.6-0.1-0.7-0.6-0.8l-0.4,0V20c0.9,0,1.8-0.2,2.2-0.2v4c0,0.6,0.1,0.7,0.6,0.7h0.4L227.3,24.9L227.3,24.9z"/>
	<path class="st1" d="M230.6,25.2h-3.2v-0.4c0.8-0.1,0.9-0.1,0.9-0.9v-2.5c0-0.8-0.1-0.8-0.8-0.9v-0.3c0.7-0.1,1.3-0.2,2-0.5V21
		c0.5-0.7,1.1-1.3,1.7-1.3c0.5,0,0.8,0.3,0.8,0.6s-0.3,0.6-0.5,0.7c-0.1,0.1-0.3,0-0.4,0c-0.2-0.2-0.4-0.3-0.6-0.3
		c-0.3,0-0.7,0.3-1,0.9v2.3c0,0.8,0.1,0.8,1.1,0.9V25.2z"/>
	<path class="st1" d="M236.4,25.3c-0.2,0-0.5-0.1-0.7-0.2c-0.2-0.1-0.3-0.3-0.3-0.5c-0.5,0.3-1.2,0.8-1.6,0.8c-1,0-1.7-0.7-1.7-1.5
		c0-0.6,0.4-1,1.1-1.2c0.8-0.2,1.8-0.6,2.1-0.8v-0.3c0-0.8-0.4-1.3-1.1-1.3c-0.3,0-0.5,0.1-0.6,0.3c-0.1,0.2-0.2,0.4-0.4,0.8
		c-0.1,0.2-0.2,0.3-0.4,0.3c-0.3,0-0.6-0.2-0.6-0.5c0-0.2,0.2-0.3,0.4-0.5c0.4-0.3,1.2-0.7,2-0.8c0.4,0,0.9,0.1,1.2,0.3
		c0.5,0.4,0.7,0.8,0.7,1.4v2.3c0,0.6,0.2,0.7,0.5,0.7c0.2,0,0.3-0.1,0.5-0.1l0.1,0.4C237.6,24.7,236.4,25.3,236.4,25.3z M235.4,22.3
		c-0.3,0.1-0.9,0.4-1.2,0.5c-0.5,0.2-0.8,0.4-0.8,0.9c0,0.6,0.5,0.9,0.9,0.9c0.3,0,0.8-0.2,1-0.4V22.3L235.4,22.3z"/>
	<path class="st1" d="M237.5,25.2v-0.4c0.8-0.1,0.9-0.1,0.9-0.9v-5.7c0-0.7-0.1-0.8-0.9-0.9V17c0.8-0.1,1.6-0.3,2.1-0.4v7.3
		c0,0.8,0.1,0.9,0.9,0.9v0.4L237.5,25.2L237.5,25.2z"/>
	<path class="st1" d="M103.2,38.2c-0.1,0.3-0.4,1.6-0.6,1.9H96v-0.3c1.2-0.1,1.3-0.2,1.3-1.2V34c0-1.1-0.2-1.1-1.1-1.2v-0.4h4.2
		c1.3,0,1.8,0,2,0c0,0.3,0.1,1.2,0.1,1.8l-0.4,0.1c-0.1-0.4-0.3-0.7-0.4-1c-0.2-0.4-0.5-0.5-1.3-0.5h-1.2c-0.4,0-0.5,0-0.5,0.4v2.6
		h1.5c1,0,1-0.2,1.2-1h0.4v2.5h-0.4c-0.2-0.9-0.3-1-1.2-1h-1.4v2.3c0,0.8,0.2,0.9,0.9,1h1.2c0.8,0,1-0.1,1.2-0.4
		c0.3-0.3,0.6-0.8,0.7-1.1L103.2,38.2L103.2,38.2z"/>
	<path class="st1" d="M106.3,40.2v-0.3c0.6-0.1,0.7-0.2,0.4-0.5l-0.9-1.3c-0.3,0.4-0.6,0.8-0.8,1.2c-0.2,0.4-0.2,0.5,0.5,0.6v0.3
		h-2.6v-0.3c0.8-0.1,1-0.2,1.5-0.8c0.4-0.5,0.7-0.9,1.1-1.4l-1.2-1.6c-0.4-0.6-0.6-0.7-1.3-0.8v-0.3h2.8v0.3
		c-0.5,0.1-0.6,0.2-0.4,0.5l0.8,1.1c0.3-0.3,0.5-0.7,0.8-1.1c0.2-0.3,0.1-0.4-0.4-0.5v-0.3h2.5v0.3c-0.7,0.1-1,0.1-1.5,0.7
		c-0.2,0.2-0.5,0.6-1,1.2l1.3,1.8c0.5,0.7,0.7,0.8,1.5,0.9v0.3L106.3,40.2L106.3,40.2z"/>
	<path class="st1" d="M109.1,35.2c0.7-0.1,1.4-0.3,2.1-0.5v0.9c0,0,1.1-0.6,1.1-0.6c0.3-0.2,0.6-0.2,0.8-0.2c1.5,0,2.4,1.1,2.4,2.3
		c0,1.8-1.6,3-3.4,3.3c-0.4,0-0.8-0.1-0.9-0.2v1.6c0,0.8,0.1,0.9,1.1,1v0.3H109v-0.3c0.9-0.1,1-0.2,1-0.9v-5.4c0-0.7,0-0.8-0.9-0.9
		V35.2L109.1,35.2z M111.1,39.3c0.3,0.3,0.8,0.5,1.2,0.5c1.1,0,1.8-0.9,1.8-2.2s-0.8-2-1.8-2c-0.4,0-1,0.2-1.3,0.5
		C111.1,36,111.1,39.3,111.1,39.3z"/>
	<path class="st1" d="M119.1,34.8c1.7,0,3,1.2,3,2.7c0,1.9-1.6,2.9-3,2.9c-1.9,0-3-1.3-3-2.7C116,35.7,117.8,34.8,119.1,34.8z
		 M118.9,35.2c-0.8,0-1.5,0.7-1.5,2.1c0,1.5,0.7,2.6,1.8,2.6c0.8,0,1.4-0.5,1.4-2.2C120.7,36.3,120,35.2,118.9,35.2z"/>
	<path class="st1" d="M125.6,40.2h-3.2v-0.3c0.8-0.1,0.9-0.1,0.9-0.9v-2.5c0-0.8-0.1-0.8-0.8-0.9v-0.3c0.7-0.1,1.3-0.2,2-0.5V36
		c0.5-0.7,1.1-1.3,1.7-1.3c0.5,0,0.8,0.3,0.8,0.6s-0.3,0.6-0.5,0.7c-0.1,0.1-0.3,0-0.4,0c-0.2-0.2-0.4-0.3-0.6-0.3
		c-0.3,0-0.7,0.3-1,0.9v2.3c0,0.8,0.1,0.8,1.1,0.9C125.6,39.8,125.6,40.2,125.6,40.2z"/>
	<path class="st1" d="M130,40.2c-0.2,0.1-0.4,0.2-0.6,0.2c-0.9,0-1.4-0.5-1.4-1.4v-3.5h-0.9l-0.1-0.1l0.4-0.4h0.6v-1
		c0.3-0.2,0.7-0.6,1-0.8l0.2,0c0,0.5,0,1.2,0,1.8h1.5c0.1,0.1,0.1,0.4-0.1,0.5h-1.4v3c0,1,0.4,1.1,0.8,1.1c0.3,0,0.6-0.1,0.8-0.2
		l0.1,0.3L130,40.2L130,40.2z"/>
	<path class="st1" d="M142.6,36.9c-0.8,0.1-0.9,0.2-0.9,0.9v1c0,0.4,0,0.8,0.1,1.1c-0.8,0.2-2,0.4-3.1,0.4c-3.1,0-4.9-1.7-4.9-4.1
		c0-2.6,2.3-4,5.1-4c1.3,0,2.4,0.2,2.8,0.3c0,0.5,0.1,1.2,0.2,2l-0.4,0.1c-0.3-1-0.7-1.5-1.6-1.7c-0.3-0.1-0.9-0.2-1.2-0.2
		c-2,0-3.3,1.3-3.3,3.4c0,1.9,1.1,3.8,3.6,3.8c0.4,0,0.8-0.1,1.1-0.2c0.3-0.1,0.4-0.3,0.4-0.8v-1c0-0.9-0.1-1-1.4-1v-0.4h3.6
		L142.6,36.9L142.6,36.9z"/>
	<path class="st1" d="M146.2,40.2H143v-0.3c0.8-0.1,0.9-0.1,0.9-0.9v-2.5c0-0.8-0.1-0.8-0.8-0.9v-0.3c0.7-0.1,1.3-0.2,2-0.5V36
		c0.5-0.7,1.1-1.3,1.7-1.3c0.5,0,0.8,0.3,0.8,0.6s-0.3,0.6-0.5,0.7c-0.1,0.1-0.3,0-0.4,0c-0.2-0.2-0.4-0.3-0.6-0.3
		c-0.3,0-0.7,0.3-1,0.9v2.3c0,0.8,0.1,0.8,1.1,0.9C146.2,39.8,146.2,40.2,146.2,40.2z"/>
	<path class="st1" d="M150.6,34.8c1.7,0,3,1.2,3,2.7c0,1.9-1.6,2.9-3,2.9c-1.9,0-3-1.3-3-2.7C147.6,35.7,149.3,34.8,150.6,34.8z
		 M150.4,35.2c-0.8,0-1.5,0.7-1.5,2.1c0,1.5,0.7,2.6,1.8,2.6c0.8,0,1.4-0.5,1.4-2.2C152.2,36.3,151.5,35.2,150.4,35.2L150.4,35.2z"
		/>
	<path class="st1" d="M162.9,35.2c-0.7,0.1-0.8,0.2-1.1,0.9c-0.4,1-1,2.6-1.6,4.2h-0.4c-0.5-1.2-1.1-2.5-1.6-3.7
		c-0.5,1.1-1.1,2.4-1.6,3.7h-0.4c-0.5-1.4-1-2.9-1.6-4.3c-0.2-0.6-0.4-0.7-1-0.8v-0.3h2.9v0.3c-0.8,0.1-0.9,0.2-0.7,0.7
		c0.3,0.9,0.6,1.8,1,2.7c0.5-1.2,1.1-2.4,1.6-3.7h0.4c0.5,1.2,1,2.5,1.6,3.8c0.3-0.7,0.7-1.9,0.9-2.7c0.2-0.6,0.1-0.7-0.9-0.8v-0.3
		h2.6L162.9,35.2L162.9,35.2z"/>
	<path class="st1" d="M165.8,40.2c-0.2,0.1-0.4,0.2-0.6,0.2c-0.9,0-1.4-0.5-1.4-1.4v-3.5H163l-0.1-0.1l0.4-0.4h0.6v-1
		c0.3-0.2,0.7-0.6,1-0.8l0.2,0c0,0.5,0,1.2,0,1.8h1.5c0.1,0.1,0.1,0.4-0.1,0.5h-1.4v3c0,1,0.4,1.1,0.8,1.1c0.3,0,0.6-0.1,0.8-0.2
		l0.1,0.3L165.8,40.2L165.8,40.2z"/>
	<path class="st1" d="M170.5,40.2v-0.3c0.8-0.1,0.8-0.1,0.8-0.9v-2c0-1-0.4-1.5-1.3-1.4c-0.5,0-1,0.2-1.4,0.6v2.9
		c0,0.8,0.1,0.8,0.9,0.9v0.3h-3v-0.3c0.8-0.1,0.9-0.1,0.9-0.9v-5.7c0-0.6-0.1-0.8-0.9-0.8V32c0.8-0.1,1.6-0.2,2.1-0.4v4
		c0.5-0.4,1.2-0.9,1.9-0.9c1.1,0,1.9,0.6,1.9,2v2.1c0,0.8,0.1,0.8,0.9,0.9v0.3L170.5,40.2L170.5,40.2z"/>
	<path class="st1" d="M184.6,40.3c-0.2,0-0.3,0-0.5,0c-1.1-0.1-1.6-0.3-2.2-1c-0.5-0.6-1-1.4-1.4-2c-0.3-0.4-0.4-0.5-1.1-0.5H179
		v1.9c0,1,0.1,1.1,1.2,1.2v0.4h-3.7v-0.4c1.1-0.1,1.2-0.2,1.2-1.2v-4.8c0-1-0.1-1.1-1.2-1.2v-0.4h3.5c1,0,1.7,0.1,2.2,0.4
		c0.6,0.3,0.9,0.8,0.9,1.6c0,1-0.8,1.7-1.7,2c0.2,0.4,0.8,1.2,1.2,1.7c0.5,0.6,0.8,0.9,1.1,1.2c0.4,0.3,0.6,0.5,1,0.5L184.6,40.3
		L184.6,40.3z M179.6,36.4c0.7,0,1.1-0.1,1.4-0.3c0.5-0.3,0.7-0.8,0.7-1.5c0-1.3-0.9-1.8-1.9-1.8c-0.4,0-0.6,0-0.7,0.1
		c-0.1,0.1-0.1,0.2-0.1,0.5v2.9H179.6L179.6,36.4z"/>
	<path class="st1" d="M189.1,40.3c-0.2,0-0.5-0.1-0.7-0.2c-0.2-0.2-0.3-0.3-0.3-0.5c-0.5,0.3-1.2,0.8-1.6,0.8c-1,0-1.7-0.7-1.7-1.5
		c0-0.6,0.4-1,1.1-1.2c0.8-0.2,1.8-0.6,2.1-0.8v-0.3c0-0.8-0.4-1.3-1.1-1.3c-0.3,0-0.5,0.1-0.6,0.3c-0.1,0.2-0.2,0.4-0.4,0.8
		c-0.1,0.2-0.2,0.3-0.4,0.3c-0.3,0-0.6-0.2-0.6-0.5c0-0.2,0.2-0.3,0.4-0.5c0.4-0.3,1.2-0.7,2-0.8c0.4,0,0.9,0.1,1.2,0.3
		c0.5,0.4,0.7,0.8,0.7,1.4v2.3c0,0.6,0.2,0.7,0.5,0.7c0.2,0,0.3-0.1,0.5-0.1l0.1,0.3L189.1,40.3z M188.1,37.3
		c-0.3,0.1-0.9,0.4-1.2,0.5c-0.5,0.2-0.8,0.4-0.8,0.9c0,0.6,0.5,0.9,0.9,0.9c0.3,0,0.8-0.2,1-0.4V37.3L188.1,37.3z"/>
	<path class="st1" d="M192.9,40.2c-0.2,0.1-0.4,0.2-0.6,0.2c-0.9,0-1.4-0.5-1.4-1.4v-3.5H190l-0.1-0.1l0.4-0.4h0.6v-1
		c0.3-0.2,0.7-0.6,1-0.8l0.2,0c0,0.5,0,1.2,0,1.8h1.5c0.1,0.1,0.1,0.4-0.1,0.5h-1.4v3c0,1,0.4,1.1,0.8,1.1c0.3,0,0.6-0.1,0.8-0.2
		l0.1,0.3L192.9,40.2L192.9,40.2z"/>
	<path class="st1" d="M198.7,39.1c-0.9,1-1.8,1.2-2.3,1.2c-1.7,0-2.7-1.2-2.7-2.6c0-0.8,0.4-1.6,0.9-2.1c0.6-0.6,1.3-0.9,2-0.9
		c1.2,0,2.1,0.9,2.1,1.9c0,0.2-0.1,0.4-0.2,0.4c-0.3,0-2,0.2-3.6,0.2c0,1.5,1,2.2,2,2.2c0.6,0,1.1-0.2,1.6-0.6L198.7,39.1
		L198.7,39.1z M196.3,35.2c-0.6,0-1.2,0.5-1.4,1.5c0.7,0,1.4,0,2.2,0c0.2,0,0.3-0.1,0.3-0.2C197.5,35.8,197,35.2,196.3,35.2
		L196.3,35.2z"/>
	<path class="st1" d="M199.4,41.3c0.6-0.3,1.1-0.6,1.1-1.1c0-0.4-0.4-0.5-0.9-0.7c-0.1,0-0.2-0.2-0.2-0.4c0-0.3,0.3-0.6,0.8-0.6
		s1.2,0.4,1.2,1.3c0,1-1,1.6-1.8,1.8L199.4,41.3L199.4,41.3z"/>
	<path class="st1" d="M210.9,34.3c-0.1-0.4-0.2-0.7-0.4-0.9c-0.3-0.4-0.5-0.5-1.2-0.5h-1.4c-0.4,0-0.4,0-0.4,0.4V36h1.6
		c0.9,0,1-0.2,1.2-1h0.4v2.5h-0.4c-0.2-0.8-0.3-1-1.2-1h-1.6v2.1c0,1,0.1,1.1,1.4,1.2v0.4h-3.9v-0.4c1.1-0.1,1.2-0.2,1.2-1.2v-4.7
		c0-1-0.1-1.1-1.2-1.2v-0.4h4.3c1.2,0,1.7,0,1.9,0c0,0.4,0.1,1.3,0.1,1.9L210.9,34.3L210.9,34.3z"/>
	<path class="st1" d="M211.5,40.2v-0.3c0.8-0.1,0.9-0.1,0.9-1v-2.5c0-0.8-0.1-0.8-0.8-0.9v-0.3c0.7-0.1,1.4-0.3,2-0.5v4.1
		c0,0.8,0.1,0.9,0.9,1v0.3L211.5,40.2L211.5,40.2z M212.9,33.6c-0.4,0-0.8-0.3-0.8-0.7c0-0.4,0.4-0.7,0.8-0.7s0.7,0.3,0.7,0.7
		C213.7,33.3,213.3,33.6,212.9,33.6L212.9,33.6z"/>
	<path class="st1" d="M220.6,35.2c-0.7,0.1-0.8,0.2-1.2,0.9c-0.4,1-1.2,2.5-1.9,4.2h-0.4c-0.6-1.4-1.2-2.8-1.9-4.2
		c-0.3-0.7-0.4-0.8-1.1-0.8v-0.3h2.9v0.3c-0.7,0.1-0.8,0.2-0.6,0.7c0.3,0.8,0.9,2.1,1.2,2.8c0.4-1,0.9-2,1.2-2.7
		c0.2-0.5,0.2-0.7-0.7-0.8v-0.3h2.5L220.6,35.2L220.6,35.2z"/>
	<path class="st1" d="M225.4,39.1c-0.9,1-1.8,1.2-2.3,1.2c-1.7,0-2.7-1.2-2.7-2.6c0-0.8,0.4-1.6,0.9-2.1c0.6-0.6,1.3-0.9,2-0.9
		c1.2,0,2.1,0.9,2.1,1.9c0,0.2-0.1,0.4-0.2,0.4c-0.3,0-2,0.2-3.6,0.2c0,1.5,1,2.2,2,2.2c0.6,0,1.1-0.2,1.6-0.6L225.4,39.1
		L225.4,39.1z M223.1,35.2c-0.6,0-1.2,0.5-1.4,1.5c0.7,0,1.4,0,2.2,0c0.2,0,0.3-0.1,0.3-0.2C224.2,35.8,223.8,35.2,223.1,35.2
		L223.1,35.2z"/>
	<path class="st1" d="M235.9,32.7c-0.9,0.1-1.1,0.2-1.6,1c-0.6,0.8-1.1,1.7-1.7,2.7c-0.1,0.3-0.2,0.4-0.2,0.7v1.5
		c0,1,0.1,1.1,1.4,1.2v0.4h-3.9v-0.4c1.2-0.1,1.3-0.2,1.3-1.2v-1.5c0-0.2-0.1-0.3-0.2-0.7c-0.5-0.8-0.9-1.5-1.7-2.7
		c-0.5-0.8-0.7-1-1.6-1v-0.4h3.4v0.4c-1,0.1-0.9,0.3-0.7,0.7c0.5,0.9,1.2,2,1.7,2.8c0.5-0.8,1.2-2.1,1.6-2.7
		c0.3-0.6,0.2-0.7-0.8-0.8v-0.4h3.1L235.9,32.7L235.9,32.7z"/>
	<path class="st1" d="M239.1,39.1c-0.9,1-1.8,1.2-2.3,1.2c-1.7,0-2.7-1.2-2.7-2.6c0-0.8,0.3-1.6,0.9-2.1c0.6-0.6,1.3-0.9,2-0.9
		c1.2,0,2.1,0.9,2.1,1.9c0,0.2-0.1,0.4-0.2,0.4c-0.3,0-2,0.2-3.6,0.2c0,1.5,1,2.2,2,2.2c0.6,0,1.1-0.2,1.6-0.6L239.1,39.1
		L239.1,39.1z M236.8,35.2c-0.6,0-1.2,0.5-1.4,1.5c0.7,0,1.4,0,2.2,0c0.2,0,0.3-0.1,0.3-0.2C237.9,35.8,237.5,35.2,236.8,35.2
		L236.8,35.2z"/>
	<path class="st1" d="M243.9,40.3c-0.2,0-0.5-0.1-0.7-0.2c-0.2-0.2-0.3-0.3-0.3-0.5c-0.5,0.3-1.2,0.8-1.6,0.8c-1,0-1.7-0.7-1.7-1.5
		c0-0.6,0.4-1,1.1-1.2c0.8-0.2,1.8-0.6,2.1-0.8v-0.3c0-0.8-0.4-1.3-1.1-1.3c-0.3,0-0.5,0.1-0.6,0.3c-0.1,0.2-0.2,0.4-0.4,0.8
		c-0.1,0.2-0.2,0.3-0.4,0.3c-0.3,0-0.6-0.2-0.6-0.5c0-0.2,0.2-0.3,0.4-0.5c0.4-0.3,1.2-0.7,2-0.8c0.4,0,0.9,0.1,1.2,0.3
		c0.5,0.4,0.7,0.8,0.7,1.4v2.3c0,0.6,0.2,0.7,0.5,0.7c0.2,0,0.3-0.1,0.5-0.1l0.1,0.3L243.9,40.3z M242.9,37.3
		c-0.3,0.1-0.9,0.4-1.2,0.5c-0.5,0.2-0.8,0.4-0.8,0.9c0,0.6,0.5,0.9,0.9,0.9c0.3,0,0.8-0.2,1-0.4V37.3L242.9,37.3z"/>
	<path class="st1" d="M248.4,40.2h-3.2v-0.3c0.8-0.1,0.9-0.1,0.9-0.9v-2.5c0-0.8-0.1-0.8-0.8-0.9v-0.3c0.7-0.1,1.3-0.2,2-0.5V36
		c0.5-0.7,1.1-1.3,1.7-1.3c0.5,0,0.8,0.3,0.8,0.6s-0.3,0.6-0.5,0.7c-0.1,0.1-0.3,0-0.4,0c-0.2-0.2-0.4-0.3-0.6-0.3
		c-0.3,0-0.7,0.3-1,0.9v2.3c0,0.8,0.1,0.8,1.1,0.9L248.4,40.2L248.4,40.2z"/>
	<path class="st1" d="M253.3,36.3c-0.3-0.7-0.6-1.2-1.4-1.2c-0.5,0-0.8,0.3-0.8,0.8c0,0.5,0.4,0.7,1.1,1c1.1,0.5,1.8,0.8,1.8,1.7
		c0,1.1-1.2,1.7-2.2,1.7c-0.7,0-1.3-0.2-1.6-0.3c-0.1-0.3-0.2-1-0.2-1.4l0.4-0.1c0.2,0.8,0.7,1.4,1.7,1.4c0.5,0,0.9-0.3,0.9-0.8
		c0-0.5-0.3-0.8-1.1-1.1c-0.9-0.4-1.7-0.8-1.7-1.7s0.8-1.6,2.1-1.6c0.6,0,1.1,0.1,1.3,0.2c0,0.3,0.1,1,0.2,1.3L253.3,36.3
		L253.3,36.3z"/>
	<path class="st1" d="M75.6,47.4c1,0,1.8,0.2,2.3,0.5c0.6,0.4,0.9,0.9,0.9,1.7c0,1.8-1.7,2.5-3,2.5c-0.2,0-0.3,0-0.4,0l-0.9-0.2v1.8
		c0,1,0.1,1,1.3,1.2v0.4H72v-0.4c1.1-0.1,1.2-0.2,1.2-1.2v-4.7c0-1.1-0.2-1.1-1.2-1.2v-0.4L75.6,47.4L75.6,47.4z M74.6,51.4
		c0.2,0.1,0.5,0.2,0.9,0.2c0.8,0,1.9-0.4,1.9-1.9c0-1.3-0.9-1.8-2-1.8c-0.4,0-0.6,0.1-0.7,0.1c-0.1,0.1-0.1,0.2-0.1,0.5L74.6,51.4
		L74.6,51.4z"/>
	<path class="st1" d="M82.4,55.2h-3.2v-0.3c0.8-0.1,0.9-0.1,0.9-0.9v-2.5c0-0.8-0.1-0.8-0.8-0.9v-0.3c0.7-0.1,1.3-0.2,2-0.5V51
		c0.5-0.7,1.1-1.3,1.7-1.3c0.5,0,0.8,0.3,0.8,0.6s-0.3,0.6-0.5,0.7c-0.1,0.1-0.3,0-0.4,0c-0.2-0.2-0.4-0.3-0.6-0.3
		c-0.3,0-0.7,0.3-1,0.9v2.3c0,0.8,0.1,0.8,1.1,0.9C82.4,54.8,82.4,55.2,82.4,55.2z"/>
	<path class="st1" d="M88.7,54.1c-0.8,1-1.8,1.2-2.3,1.2c-1.7,0-2.7-1.2-2.7-2.6c0-0.8,0.3-1.6,0.9-2.1c0.6-0.6,1.3-0.9,2-0.9
		c1.2,0,2.1,0.9,2.1,1.9c0,0.2-0.1,0.4-0.2,0.4c-0.3,0-2,0.2-3.6,0.2c0,1.5,1,2.2,2,2.2c0.6,0,1.1-0.2,1.6-0.6L88.7,54.1z
		 M86.4,50.2c-0.6,0-1.2,0.5-1.3,1.5c0.7,0,1.4,0,2.2,0c0.2,0,0.3-0.1,0.3-0.2C87.6,50.8,87.1,50.2,86.4,50.2L86.4,50.2z"/>
	<path class="st1" d="M92.5,52.8h-3.2l0.1-0.8h3.2L92.5,52.8z"/>
	<path class="st1" d="M100.2,55.3c-0.2,0-0.5-0.1-0.7-0.2c-0.2-0.2-0.3-0.3-0.3-0.5c-0.5,0.3-1.2,0.8-1.6,0.8c-1,0-1.7-0.7-1.7-1.5
		c0-0.6,0.4-1,1.1-1.2c0.8-0.2,1.8-0.6,2.1-0.8v-0.3c0-0.8-0.4-1.3-1.1-1.3c-0.3,0-0.5,0.1-0.6,0.3c-0.2,0.2-0.2,0.4-0.4,0.8
		c-0.1,0.2-0.2,0.3-0.4,0.3c-0.3,0-0.6-0.2-0.6-0.5c0-0.2,0.2-0.3,0.4-0.5c0.4-0.3,1.2-0.7,2-0.8c0.4,0,0.8,0.1,1.2,0.3
		c0.5,0.4,0.7,0.8,0.7,1.4v2.3c0,0.6,0.2,0.7,0.5,0.7c0.2,0,0.3-0.1,0.5-0.1l0.1,0.3C101.4,54.7,100.2,55.3,100.2,55.3z M99.1,52.3
		c-0.3,0.1-0.9,0.4-1.2,0.5c-0.5,0.2-0.8,0.4-0.8,0.9c0,0.6,0.5,0.9,0.9,0.9c0.3,0,0.8-0.2,1-0.4V52.3L99.1,52.3z"/>
	<path class="st1" d="M105.3,55.2v-0.3c0.7-0.1,0.8-0.2,0.8-1v-2c0-0.8-0.4-1.3-1.2-1.3c-0.5,0-1,0.3-1.4,0.6v2.8
		c0,0.8,0.1,0.8,0.8,0.9v0.3h-2.9v-0.3c0.9-0.1,0.9-0.1,0.9-0.9v-2.5c0-0.8-0.1-0.8-0.8-0.9v-0.3c0.7-0.1,1.4-0.2,2-0.5
		c0,0.3,0,0.7,0,0.9c0.3-0.2,0.6-0.3,0.9-0.5c0.4-0.2,0.7-0.3,1.1-0.3c1.1,0,1.8,0.7,1.8,1.9v2.3c0,0.8,0.1,0.8,0.8,0.9v0.3
		L105.3,55.2L105.3,55.2z"/>
	<path class="st1" d="M115,54.9c-0.3,0-1.3,0.2-2.2,0.5v-0.8c-0.2,0.1-0.6,0.3-0.8,0.4c-0.5,0.3-0.8,0.3-1,0.3
		c-1.1,0-2.6-0.9-2.6-2.6s1.6-2.9,3.5-2.9c0.2,0,0.6,0,0.8,0.1v-1.7c0-0.7-0.1-0.8-1-0.8V47c0.7-0.1,1.7-0.2,2.2-0.4v7.2
		c0,0.6,0.1,0.7,0.6,0.7l0.4,0L115,54.9L115,54.9z M112.8,50.8c-0.3-0.4-0.8-0.6-1.3-0.6c-0.6,0-1.7,0.4-1.7,2.1
		c0,1.5,1,2.2,1.8,2.2c0.4,0,0.9-0.2,1.2-0.4C112.8,54.2,112.8,50.8,112.8,50.8z"/>
	<path class="st1" d="M121.5,47.4c1,0,1.8,0.2,2.3,0.5c0.6,0.4,0.9,0.9,0.9,1.7c0,1.8-1.7,2.5-3,2.5c-0.2,0-0.3,0-0.4,0l-0.9-0.2
		v1.8c0,1,0.1,1,1.3,1.2v0.4h-3.8v-0.4c1.1-0.1,1.2-0.2,1.2-1.2v-4.7c0-1.1-0.2-1.1-1.2-1.2v-0.4L121.5,47.4L121.5,47.4z
		 M120.4,51.4c0.2,0.1,0.5,0.2,0.9,0.2c0.8,0,1.9-0.4,1.9-1.9c0-1.3-0.9-1.8-2-1.8c-0.4,0-0.6,0.1-0.7,0.1c-0.1,0.1-0.1,0.2-0.1,0.5
		L120.4,51.4L120.4,51.4z"/>
	<path class="st1" d="M127.8,49.8c1.7,0,3,1.2,3,2.7c0,1.9-1.6,2.9-3,2.9c-1.9,0-3-1.3-3-2.7C124.8,50.7,126.5,49.8,127.8,49.8z
		 M127.7,50.2c-0.8,0-1.5,0.7-1.5,2.1c0,1.5,0.7,2.6,1.8,2.6c0.8,0,1.5-0.5,1.5-2.2C129.4,51.3,128.8,50.2,127.7,50.2z"/>
	<path class="st1" d="M134.8,51.3c-0.3-0.7-0.6-1.2-1.4-1.2c-0.4,0-0.8,0.3-0.8,0.8c0,0.5,0.4,0.7,1.1,1c1.1,0.5,1.8,0.8,1.8,1.7
		c0,1.1-1.2,1.7-2.2,1.7c-0.7,0-1.3-0.2-1.6-0.3c-0.1-0.3-0.2-1-0.2-1.4l0.4-0.1c0.2,0.8,0.7,1.4,1.7,1.4c0.5,0,0.9-0.3,0.9-0.8
		c0-0.5-0.3-0.8-1.1-1.1c-0.9-0.4-1.7-0.8-1.7-1.7s0.8-1.6,2.1-1.6c0.6,0,1.1,0.1,1.3,0.2c0,0.3,0.1,1,0.2,1.3L134.8,51.3
		L134.8,51.3z"/>
	<path class="st1" d="M138.4,55.2c-0.2,0.1-0.4,0.2-0.6,0.2c-0.9,0-1.4-0.5-1.4-1.4v-3.5h-0.9l-0.1-0.1l0.4-0.4h0.6v-1
		c0.3-0.2,0.7-0.6,1-0.8l0.2,0c0,0.5,0,1.2,0,1.8h1.5c0.1,0.1,0.1,0.4-0.1,0.5h-1.4v3c0,1,0.4,1.1,0.8,1.1c0.3,0,0.6-0.1,0.8-0.2
		l0.1,0.3L138.4,55.2L138.4,55.2z"/>
	<path class="st1" d="M142.8,52.8h-3.1l0.1-0.8h3.1L142.8,52.8z"/>
	<path class="st1" d="M149.6,49.3c-0.1-0.4-0.2-0.7-0.4-0.9c-0.3-0.4-0.5-0.5-1.2-0.5h-1.4c-0.4,0-0.4,0-0.4,0.4V51h1.6
		c0.9,0,1-0.2,1.2-1h0.4v2.5H149c-0.2-0.8-0.3-1-1.2-1h-1.6v2.1c0,1,0.1,1.1,1.4,1.2v0.4h-3.9v-0.4c1.1-0.1,1.2-0.2,1.2-1.2v-4.7
		c0-1-0.1-1.1-1.2-1.2v-0.4h4.3c1.2,0,1.7,0,1.9,0c0,0.4,0.1,1.3,0.1,1.9L149.6,49.3L149.6,49.3z"/>
	<path class="st1" d="M158,49.3c-0.1-0.4-0.3-0.8-0.5-1c-0.2-0.3-0.4-0.4-1.1-0.4h-1.3v5.8c0,1,0.1,1.1,1.4,1.1v0.4h-4v-0.4
		c1.2-0.1,1.3-0.2,1.3-1.1v-5.8h-1.1c-0.7,0-1,0.1-1.2,0.4c-0.2,0.2-0.3,0.5-0.5,1h-0.4c0.1-0.8,0.2-1.5,0.2-2.2h0.3
		c0.2,0.3,0.4,0.3,0.7,0.3h5.4c0.4,0,0.5,0,0.7-0.3h0.3c0,0.5,0.1,1.5,0.1,2.2L158,49.3L158,49.3z"/>
	<path class="st1" d="M162.8,55.2v-0.4c0.9-0.1,1-0.2,0.8-0.7c-0.2-0.5-0.4-1-0.7-1.7H160c-0.2,0.5-0.4,1-0.6,1.5
		c-0.3,0.8-0.1,0.9,1,1v0.4h-3.1v-0.4c0.9-0.1,1.1-0.2,1.5-1.2l2.8-6.3l0.5-0.1c0.9,2.1,1.8,4.3,2.6,6.4c0.4,1.1,0.6,1.2,1.5,1.2
		v0.4H162.8L162.8,55.2z M161.5,48.9c-0.4,1-0.9,2-1.3,3h2.4L161.5,48.9z"/>
	<path class="st1" d="M177.5,50.2c-0.7,0.1-0.8,0.2-1.1,0.9c-0.4,1-1,2.6-1.6,4.2h-0.4c-0.5-1.2-1.1-2.5-1.6-3.7
		c-0.5,1.1-1.1,2.4-1.6,3.7h-0.4c-0.5-1.4-1-2.9-1.6-4.3c-0.2-0.6-0.4-0.7-1-0.8v-0.3h2.9v0.3c-0.8,0.1-0.9,0.2-0.7,0.7
		c0.3,0.9,0.6,1.8,1,2.7c0.5-1.2,1.1-2.4,1.6-3.7h0.4c0.5,1.2,1,2.5,1.6,3.8c0.3-0.7,0.7-1.9,0.9-2.7c0.2-0.6,0.1-0.7-0.9-0.8v-0.3
		h2.6L177.5,50.2L177.5,50.2z"/>
	<path class="st1" d="M177.5,55.2v-0.3c0.8-0.1,0.9-0.1,0.9-1v-2.5c0-0.8-0.1-0.8-0.8-0.9v-0.3c0.7-0.1,1.4-0.3,2-0.5v4.1
		c0,0.8,0.1,0.9,0.9,1v0.3L177.5,55.2L177.5,55.2z M178.9,48.6c-0.4,0-0.8-0.3-0.8-0.7c0-0.4,0.4-0.7,0.8-0.7s0.7,0.3,0.7,0.7
		C179.7,48.3,179.4,48.6,178.9,48.6L178.9,48.6z"/>
	<path class="st1" d="M183.3,55.2c-0.2,0.1-0.4,0.2-0.6,0.2c-0.9,0-1.4-0.5-1.4-1.4v-3.5h-0.9l-0.1-0.1l0.4-0.4h0.6v-1
		c0.3-0.2,0.7-0.6,1-0.8l0.2,0c0,0.5,0,1.2,0,1.8h1.5c0.1,0.1,0.1,0.4-0.1,0.5h-1.4v3c0,1,0.4,1.1,0.8,1.1c0.3,0,0.6-0.1,0.8-0.2
		l0.1,0.3L183.3,55.2L183.3,55.2z"/>
	<path class="st1" d="M188.1,55.2v-0.3c0.8-0.1,0.8-0.1,0.8-0.9v-2c0-1-0.4-1.5-1.3-1.4c-0.5,0-1,0.2-1.4,0.6v2.9
		c0,0.8,0.1,0.8,0.9,0.9v0.3h-3v-0.3c0.8-0.1,0.9-0.1,0.9-0.9v-5.7c0-0.6-0.1-0.8-0.9-0.8V47c0.8-0.1,1.6-0.2,2.1-0.4v4
		c0.5-0.4,1.2-0.9,1.9-0.9c1.1,0,1.9,0.6,1.9,2v2.1c0,0.8,0.1,0.8,0.9,0.9v0.3L188.1,55.2L188.1,55.2z"/>
	<path class="st1" d="M196.5,55.2c-0.2,0.1-0.4,0.2-0.6,0.2c-0.9,0-1.4-0.5-1.4-1.4v-3.5h-0.9l-0.1-0.1l0.4-0.4h0.6v-1
		c0.3-0.2,0.7-0.6,1-0.8l0.2,0c0,0.5,0,1.2,0,1.8h1.5c0.1,0.1,0.1,0.4-0.1,0.5h-1.4v3c0,1,0.4,1.1,0.8,1.1c0.3,0,0.6-0.1,0.8-0.2
		l0.1,0.3L196.5,55.2L196.5,55.2z"/>
	<path class="st1" d="M201.2,55.2v-0.3c0.8-0.1,0.8-0.1,0.8-0.9v-2c0-1-0.4-1.5-1.3-1.4c-0.5,0-1,0.2-1.4,0.6v2.9
		c0,0.8,0.1,0.8,0.9,0.9v0.3h-3v-0.3c0.8-0.1,0.9-0.1,0.9-0.9v-5.7c0-0.6-0.1-0.8-0.9-0.8V47c0.8-0.1,1.6-0.2,2.1-0.4v4
		c0.5-0.4,1.2-0.9,1.9-0.9c1.1,0,1.9,0.6,1.9,2v2.1c0,0.8,0.1,0.8,0.9,0.9v0.3L201.2,55.2L201.2,55.2z"/>
	<path class="st1" d="M209.4,54.1c-0.9,1-1.8,1.2-2.3,1.2c-1.7,0-2.7-1.2-2.7-2.6c0-0.8,0.4-1.6,0.9-2.1c0.6-0.6,1.3-0.9,2-0.9
		c1.2,0,2.1,0.9,2.1,1.9c0,0.2-0.1,0.4-0.2,0.4c-0.3,0-2,0.2-3.6,0.2c0,1.5,1,2.2,2,2.2c0.6,0,1.1-0.2,1.6-0.6L209.4,54.1
		L209.4,54.1z M207,50.2c-0.6,0-1.2,0.5-1.4,1.5c0.7,0,1.4,0,2.2,0c0.2,0,0.3-0.1,0.3-0.2C208.2,50.8,207.7,50.2,207,50.2L207,50.2z
		"/>
	<path class="st1" d="M221.7,47.7c-0.9,0-1.1,0.2-1.2,0.8c0,0.3-0.1,0.8-0.1,1.8v1.3c0,1.2-0.2,2.1-0.9,2.9
		c-0.6,0.6-1.6,0.8-2.5,0.8c-0.8,0-1.6-0.2-2.2-0.6c-0.8-0.5-1.2-1.4-1.2-2.8v-3c0-1.1-0.1-1.2-1.2-1.2v-0.4h3.6v0.4
		c-1.1,0.1-1.2,0.2-1.2,1.2v3c0,1.7,0.9,2.6,2.5,2.6c1.9,0,2.5-1,2.5-3v-1.3c0-1,0-1.5-0.1-1.8c0-0.5-0.4-0.7-1.4-0.8v-0.4h3.2
		L221.7,47.7L221.7,47.7z"/>
	<path class="st1" d="M225.1,55.2v-0.3c0.7-0.1,0.8-0.2,0.8-1v-2c0-0.8-0.4-1.3-1.2-1.3c-0.5,0-1,0.3-1.4,0.6v2.8
		c0,0.8,0.1,0.8,0.8,0.9v0.3h-2.9v-0.3c0.9-0.1,0.9-0.1,0.9-0.9v-2.5c0-0.8-0.1-0.8-0.8-0.9v-0.3c0.7-0.1,1.4-0.2,2-0.5
		c0,0.3,0,0.7,0,0.9c0.3-0.2,0.6-0.3,0.9-0.5c0.4-0.2,0.7-0.3,1.1-0.3c1.1,0,1.8,0.7,1.8,1.9v2.3c0,0.8,0.1,0.8,0.8,0.9v0.3
		L225.1,55.2L225.1,55.2z"/>
	<path class="st1" d="M228.2,55.2v-0.3c0.8-0.1,0.9-0.1,0.9-1v-2.5c0-0.8,0-0.8-0.8-0.9v-0.3c0.7-0.1,1.4-0.3,2-0.5v4.1
		c0,0.8,0.1,0.9,0.9,1v0.3L228.2,55.2L228.2,55.2z M229.7,48.6c-0.4,0-0.8-0.3-0.8-0.7c0-0.4,0.4-0.7,0.8-0.7s0.7,0.3,0.7,0.7
		C230.4,48.3,230.1,48.6,229.7,48.6L229.7,48.6z"/>
	<path class="st1" d="M234.1,55.2c-0.2,0.1-0.4,0.2-0.6,0.2c-0.9,0-1.4-0.5-1.4-1.4v-3.5h-0.9l-0.1-0.1l0.4-0.4h0.6v-1
		c0.3-0.2,0.7-0.6,1-0.8l0.2,0c0,0.5,0,1.2,0,1.8h1.5c0.1,0.1,0.1,0.4-0.1,0.5h-1.4v3c0,1,0.4,1.1,0.8,1.1c0.3,0,0.6-0.1,0.8-0.2
		l0.1,0.3L234.1,55.2L234.1,55.2z"/>
	<path class="st1" d="M239.8,54.1c-0.9,1-1.8,1.2-2.3,1.2c-1.7,0-2.7-1.2-2.7-2.6c0-0.8,0.4-1.6,0.9-2.1c0.6-0.6,1.3-0.9,2-0.9
		c1.2,0,2.1,0.9,2.1,1.9c0,0.2-0.1,0.4-0.2,0.4c-0.3,0-2,0.2-3.6,0.2c0,1.5,1,2.2,2,2.2c0.6,0,1.1-0.2,1.6-0.6L239.8,54.1
		L239.8,54.1z M237.5,50.2c-0.6,0-1.2,0.5-1.4,1.5c0.7,0,1.4,0,2.2,0c0.2,0,0.3-0.1,0.3-0.2C238.6,50.8,238.2,50.2,237.5,50.2
		L237.5,50.2z"/>
	<path class="st1" d="M247,54.9c-0.3,0-1.3,0.2-2.2,0.5v-0.8c-0.2,0.1-0.6,0.3-0.8,0.4c-0.5,0.3-0.8,0.3-1,0.3
		c-1.1,0-2.6-0.9-2.6-2.6s1.6-2.9,3.5-2.9c0.2,0,0.6,0,0.9,0.1v-1.7c0-0.7-0.1-0.8-1-0.8V47c0.7-0.1,1.7-0.2,2.2-0.4v7.2
		c0,0.6,0.1,0.7,0.6,0.7l0.4,0L247,54.9L247,54.9z M244.8,50.8c-0.3-0.4-0.8-0.6-1.3-0.6c-0.6,0-1.7,0.4-1.7,2.1
		c0,1.5,1,2.2,1.8,2.2c0.4,0,0.9-0.2,1.2-0.4V50.8z"/>
	<path class="st1" d="M254.6,49.2c-0.2-0.8-0.6-1.6-1.9-1.6c-1,0-1.4,0.7-1.4,1.3c0,0.8,0.6,1.2,1.7,1.7c1.6,0.7,2.3,1.3,2.3,2.4
		c0,1.3-1.2,2.3-3,2.3c-0.8,0-1.5-0.2-2.1-0.4c-0.1-0.3-0.3-1.2-0.4-1.8l0.4-0.1c0.3,0.8,0.9,1.9,2.3,1.9c0.9,0,1.5-0.6,1.5-1.3
		c0-0.9-0.5-1.3-1.7-1.8c-1.4-0.7-2.2-1.3-2.2-2.4s1-2.1,2.8-2.1c0.8,0,1.5,0.2,1.8,0.2c0.1,0.4,0.1,0.9,0.2,1.7L254.6,49.2
		L254.6,49.2z"/>
	<path class="st1" d="M258.5,55.2c-0.2,0.1-0.4,0.2-0.6,0.2c-0.9,0-1.4-0.5-1.4-1.4v-3.5h-0.9l-0.1-0.1l0.4-0.4h0.6v-1
		c0.3-0.2,0.7-0.6,1-0.8l0.2,0c0,0.5,0,1.2,0,1.8h1.5c0.1,0.1,0.1,0.4-0.1,0.5h-1.4v3c0,1,0.4,1.1,0.8,1.1c0.3,0,0.6-0.1,0.8-0.2
		l0.1,0.3L258.5,55.2L258.5,55.2z"/>
	<path class="st1" d="M263.8,55.3c-0.2,0-0.5-0.1-0.7-0.2c-0.2-0.2-0.3-0.3-0.3-0.5c-0.5,0.3-1.2,0.8-1.6,0.8c-1,0-1.7-0.7-1.7-1.5
		c0-0.6,0.4-1,1.1-1.2c0.8-0.2,1.8-0.6,2.1-0.8v-0.3c0-0.8-0.4-1.3-1.1-1.3c-0.3,0-0.5,0.1-0.6,0.3c-0.1,0.2-0.2,0.4-0.4,0.8
		c-0.1,0.2-0.2,0.3-0.4,0.3c-0.3,0-0.6-0.2-0.6-0.5c0-0.2,0.2-0.3,0.5-0.5c0.4-0.3,1.2-0.7,2-0.8c0.4,0,0.9,0.1,1.2,0.3
		c0.5,0.4,0.7,0.8,0.7,1.4v2.3c0,0.6,0.2,0.7,0.5,0.7c0.2,0,0.3-0.1,0.5-0.1l0.1,0.3L263.8,55.3L263.8,55.3z M262.8,52.3
		c-0.3,0.1-0.9,0.4-1.2,0.5c-0.5,0.2-0.8,0.4-0.8,0.9c0,0.6,0.5,0.9,0.9,0.9c0.3,0,0.8-0.2,1-0.4V52.3L262.8,52.3z"/>
	<path class="st1" d="M267.6,55.2c-0.2,0.1-0.4,0.2-0.6,0.2c-0.9,0-1.4-0.5-1.4-1.4v-3.5h-0.9l-0.1-0.1l0.4-0.4h0.6v-1
		c0.3-0.2,0.7-0.6,1-0.8l0.2,0c0,0.5,0,1.2,0,1.8h1.5c0.1,0.1,0.1,0.4-0.1,0.5h-1.4v3c0,1,0.4,1.1,0.8,1.1c0.3,0,0.6-0.1,0.8-0.2
		l0.1,0.3L267.6,55.2L267.6,55.2z"/>
	<path class="st1" d="M273.4,54.1c-0.9,1-1.8,1.2-2.3,1.2c-1.7,0-2.7-1.2-2.7-2.6c0-0.8,0.3-1.6,0.9-2.1c0.6-0.6,1.3-0.9,2-0.9
		c1.2,0,2.1,0.9,2.1,1.9c0,0.2,0,0.4-0.2,0.4c-0.3,0-2,0.2-3.6,0.2c0,1.5,1,2.2,2,2.2c0.5,0,1.1-0.2,1.6-0.6L273.4,54.1L273.4,54.1z
		 M271,50.2c-0.6,0-1.2,0.5-1.4,1.5c0.7,0,1.4,0,2.2,0c0.2,0,0.3-0.1,0.3-0.2C272.2,50.8,271.8,50.2,271,50.2L271,50.2z"/>
	<path class="st1" d="M277.3,51.3c-0.3-0.7-0.6-1.2-1.4-1.2c-0.5,0-0.8,0.3-0.8,0.8c0,0.5,0.4,0.7,1.1,1c1.1,0.5,1.8,0.8,1.8,1.7
		c0,1.1-1.2,1.7-2.2,1.7c-0.7,0-1.3-0.2-1.6-0.3c-0.1-0.3-0.2-1-0.2-1.4l0.4-0.1c0.2,0.8,0.7,1.4,1.7,1.4c0.5,0,0.9-0.3,0.9-0.8
		c0-0.5-0.3-0.8-1.1-1.1c-0.9-0.4-1.7-0.8-1.7-1.7s0.8-1.6,2.1-1.6c0.6,0,1,0.1,1.3,0.2c0,0.3,0.1,1,0.2,1.3L277.3,51.3L277.3,51.3z
		"/>
</g>
<g>
	<path class="st1" d="M64.1,197.1h-3.7l0.1-0.9h3.7C64.2,196.2,64,197.1,64.1,197.1z"/>
	<path class="st1" d="M71,191l0.1,0.1l-0.4,1h-3.7c-0.1,0.8-0.3,1.8-0.5,2.5c0.6-0.2,1.5-0.4,1.9-0.4c2,0,3,1.2,3,2.4
		c0,0.9-0.4,1.7-1.4,2.4c-0.9,0.6-2,1-2.9,1c-0.7,0-1.3-0.3-1.7-0.5c-0.2-0.2-0.3-0.3-0.3-0.5c0-0.1,0.1-0.4,0.4-0.5
		c0.2-0.1,0.3-0.1,0.5,0c0.4,0.4,1,0.8,2,0.8c1.3,0,1.9-1,1.9-2c0-1.3-0.9-2.1-2.6-2.1c-0.7,0-1.2,0.1-1.6,0.2l-0.1-0.1
		c0.2-1.1,0.6-3.1,0.8-4.3L71,191L71,191z"/>
</g>
<g>
	<path class="st1" d="M113.7,200.1c0.9,0,1.7,0.1,2.2,0.5s0.9,0.9,0.9,1.7c0,1.7-1.6,2.4-2.9,2.4c-0.1,0-0.3,0-0.4,0l-0.9-0.2v1.8
		c0,1,0.1,1,1.3,1.1v0.3h-3.7v-0.3c1.1-0.1,1.2-0.2,1.2-1.1v-4.6c0-1-0.1-1.1-1.2-1.1v-0.3L113.7,200.1L113.7,200.1z M112.7,204
		c0.2,0.1,0.5,0.1,0.9,0.1c0.8,0,1.9-0.4,1.9-1.9c0-1.3-0.9-1.8-2-1.8c-0.4,0-0.6,0.1-0.7,0.1c-0.1,0.1-0.1,0.2-0.1,0.5V204
		L112.7,204z"/>
	<path class="st1" d="M120.3,207.7h-3.1v-0.3c0.8-0.1,0.9-0.1,0.9-0.9v-2.4c0-0.7-0.1-0.8-0.8-0.9v-0.3c0.7-0.1,1.3-0.2,1.9-0.5v1.3
		c0.5-0.6,1-1.2,1.7-1.2c0.5,0,0.8,0.3,0.8,0.6s-0.2,0.6-0.5,0.7c-0.1,0.1-0.2,0.1-0.3,0c-0.2-0.2-0.4-0.3-0.6-0.3
		c-0.3,0-0.7,0.3-1,0.9v2.2c0,0.8,0.1,0.8,1.1,0.9L120.3,207.7L120.3,207.7z"/>
	<path class="st1" d="M126.4,206.7c-0.8,0.9-1.8,1.2-2.2,1.2c-1.6,0-2.6-1.2-2.6-2.5c0-0.8,0.3-1.5,0.9-2.1c0.6-0.5,1.3-0.8,2-0.8
		c1.2,0,2,0.9,2,1.8c0,0.2,0,0.4-0.2,0.4c-0.3,0.1-2,0.1-3.5,0.2c0,1.5,1,2.1,1.9,2.1c0.5,0,1-0.2,1.5-0.6L126.4,206.7L126.4,206.7z
		 M124.2,202.9c-0.6,0-1.2,0.5-1.3,1.4c0.7,0,1.4,0,2.1,0c0.2,0,0.3-0.1,0.3-0.2C125.3,203.5,124.9,202.9,124.2,202.9L124.2,202.9z"
		/>
	<path class="st1" d="M127.2,204.9h3.1v0.6h-3.1C127.3,205.5,127.3,204.9,127.2,204.9z"/>
	<path class="st1" d="M137.1,202c-0.1-0.4-0.2-0.6-0.4-0.9c-0.2-0.4-0.4-0.5-1.2-0.5h-1.3c-0.4,0-0.4,0-0.4,0.4v2.7h1.6
		c0.9,0,1-0.1,1.2-1h0.4v2.5h-0.4c-0.2-0.8-0.3-1-1.2-1h-1.6v2c0,1,0.1,1.1,1.3,1.2v0.3h-3.7v-0.3c1.1-0.1,1.2-0.1,1.2-1.2v-4.6
		c0-1-0.1-1.1-1.2-1.2v-0.3h4.2c1.2,0,1.6,0,1.9,0c0,0.4,0.1,1.2,0.1,1.8L137.1,202L137.1,202z"/>
	<path class="st1" d="M145.4,202c-0.1-0.4-0.3-0.8-0.4-1c-0.2-0.3-0.3-0.4-1.1-0.4h-1.2v5.6c0,0.9,0.1,1,1.3,1.1v0.3h-3.9v-0.3
		c1.2-0.1,1.3-0.2,1.3-1.1v-5.6h-1.1c-0.7,0-0.9,0.1-1.2,0.4c-0.2,0.2-0.3,0.5-0.4,1h-0.4c0.1-0.7,0.2-1.5,0.2-2.1h0.3
		c0.2,0.3,0.3,0.3,0.7,0.3h5.2c0.4,0,0.5-0.1,0.7-0.3h0.3c0,0.5,0.1,1.4,0.1,2.1L145.4,202L145.4,202z"/>
	<path class="st1" d="M150,207.7v-0.3c0.9-0.1,0.9-0.2,0.8-0.7c-0.2-0.4-0.4-1-0.7-1.7h-2.8c-0.2,0.5-0.4,0.9-0.6,1.4
		c-0.3,0.8-0.1,0.9,1,1v0.3h-3.1v-0.3c0.8-0.1,1-0.2,1.5-1.2l2.7-6.1l0.5-0.1c0.8,2,1.7,4.2,2.6,6.2c0.4,1,0.6,1.1,1.5,1.2v0.3
		L150,207.7L150,207.7z M148.7,201.6c-0.4,1-0.8,2-1.2,2.9h2.4L148.7,201.6z"/>
</g>
<g>
	<path class="st1" d="M197.2,200.3c0.9,0,1.7,0.1,2.2,0.5c0.5,0.4,0.9,0.9,0.9,1.7c0,1.7-1.6,2.4-2.9,2.4c-0.1,0-0.3,0-0.4,0
		l-0.9-0.2v1.8c0,1,0.1,1,1.3,1.1v0.3h-3.7v-0.3c1.1-0.1,1.2-0.2,1.2-1.1v-4.6c0-1-0.1-1.1-1.2-1.1v-0.3L197.2,200.3L197.2,200.3z
		 M196.2,204.2c0.2,0.1,0.5,0.1,0.9,0.1c0.8,0,1.9-0.4,1.9-1.9c0-1.3-0.9-1.8-2-1.8c-0.4,0-0.6,0.1-0.7,0.1
		c-0.1,0.1-0.1,0.2-0.1,0.5V204.2L196.2,204.2z"/>
	<path class="st1" d="M203.3,202.6c1.7,0,2.9,1.1,2.9,2.6c0,1.9-1.6,2.8-2.9,2.8c-1.8,0-2.9-1.3-2.9-2.6
		C200.4,203.5,202,202.6,203.3,202.6z M203.2,203c-0.8,0-1.4,0.7-1.4,2c0,1.5,0.7,2.6,1.7,2.6c0.8,0,1.4-0.5,1.4-2.1
		C204.9,204.1,204.3,203,203.2,203z"/>
	<path class="st1" d="M210.1,204.1c-0.2-0.7-0.6-1.1-1.4-1.1c-0.4,0-0.8,0.3-0.8,0.7c0,0.5,0.4,0.7,1.1,1c1.1,0.5,1.7,0.8,1.7,1.6
		c0,1.1-1.1,1.6-2.2,1.6c-0.7,0-1.3-0.2-1.6-0.3c-0.1-0.3-0.2-1-0.2-1.4l0.4-0.1c0.2,0.7,0.7,1.4,1.6,1.4c0.5,0,0.9-0.3,0.9-0.8
		c0-0.5-0.3-0.8-1-1.1c-0.9-0.4-1.7-0.8-1.7-1.6s0.8-1.5,2.1-1.5c0.6,0,1,0.1,1.3,0.2c0,0.3,0.1,1,0.2,1.3L210.1,204.1L210.1,204.1z
		"/>
	<path class="st1" d="M213.6,207.8c-0.2,0.1-0.4,0.1-0.6,0.1c-0.9,0-1.3-0.4-1.3-1.4v-3.4h-0.9l-0.1-0.1l0.4-0.4h0.6v-1
		c0.3-0.2,0.7-0.6,1-0.8l0.2,0c0,0.5,0,1.1,0,1.7h1.5c0.1,0.1,0.1,0.4-0.1,0.5h-1.4v3c0,0.9,0.4,1.1,0.7,1.1c0.3,0,0.6-0.1,0.8-0.2
		l0.1,0.3L213.6,207.8L213.6,207.8z"/>
	<path class="st1" d="M215,205.1h3.1v0.6H215V205.1z"/>
	<path class="st1" d="M224.9,202.1c-0.1-0.4-0.2-0.6-0.4-0.9c-0.2-0.4-0.4-0.5-1.2-0.5H222c-0.4,0-0.4,0-0.4,0.4v2.7h1.6
		c0.9,0,1-0.1,1.2-1h0.4v2.5h-0.4c-0.2-0.8-0.3-1-1.2-1h-1.6v2c0,1,0.1,1.1,1.3,1.2v0.3h-3.7v-0.3c1.1-0.1,1.2-0.1,1.2-1.2v-4.6
		c0-1-0.1-1.1-1.2-1.2v-0.3h4.2c1.2,0,1.6,0,1.9,0c0,0.4,0.1,1.2,0.1,1.8L224.9,202.1L224.9,202.1z"/>
	<path class="st1" d="M233.1,202.1c-0.1-0.4-0.3-0.8-0.4-1c-0.2-0.3-0.3-0.4-1.1-0.4h-1.2v5.6c0,0.9,0.1,1,1.3,1.1v0.3h-3.9v-0.3
		c1.2-0.1,1.3-0.2,1.3-1.1v-5.6H228c-0.7,0-0.9,0.1-1.2,0.4c-0.2,0.2-0.3,0.5-0.4,1H226c0.1-0.7,0.2-1.5,0.2-2.1h0.3
		c0.2,0.3,0.3,0.3,0.7,0.3h5.2c0.4,0,0.5-0.1,0.7-0.3h0.3c0,0.5,0.1,1.4,0.1,2.1L233.1,202.1L233.1,202.1z"/>
	<path class="st1" d="M237.8,207.8v-0.3c0.8-0.1,0.9-0.2,0.8-0.7c-0.2-0.4-0.4-1-0.7-1.7h-2.8c-0.2,0.5-0.4,0.9-0.6,1.4
		c-0.3,0.8-0.1,0.9,1,1v0.3h-3.1v-0.3c0.8-0.1,1-0.2,1.5-1.2l2.7-6.1l0.5-0.1c0.8,2,1.7,4.2,2.6,6.2c0.4,1,0.6,1.1,1.5,1.2v0.3
		L237.8,207.8L237.8,207.8z M236.5,201.8c-0.4,1-0.8,2-1.2,2.9h2.4L236.5,201.8z"/>
</g>
<g>
	<path class="st1" d="M145.7,226.5c-0.1,0.3-0.4,1.6-0.6,1.9h-6.6v-0.4c1.2-0.1,1.3-0.2,1.3-1.2v-4.7c0-1.1-0.1-1.1-1.1-1.2v-0.4
		h4.1c1.3,0,1.8,0,2,0c0,0.3,0.1,1.2,0.1,1.8l-0.4,0.1c-0.1-0.4-0.3-0.7-0.4-0.9c-0.2-0.4-0.5-0.4-1.3-0.4h-1.2
		c-0.4,0-0.5,0-0.5,0.4v2.6h1.4c1,0,1-0.2,1.2-1h0.4v2.5h-0.4c-0.2-0.9-0.3-1-1.2-1h-1.4v2.3c0,0.8,0.2,0.9,0.9,0.9h1.2
		c0.8,0,0.9-0.1,1.2-0.4c0.3-0.3,0.6-0.8,0.7-1.1L145.7,226.5L145.7,226.5z"/>
	<path class="st1" d="M148.8,228.4v-0.4c0.6-0.1,0.7-0.1,0.4-0.5l-0.9-1.3c-0.3,0.4-0.6,0.8-0.8,1.2s-0.2,0.5,0.5,0.6v0.4h-2.5v-0.4
		c0.8-0.1,1-0.2,1.5-0.8c0.4-0.4,0.7-0.9,1.1-1.4l-1.1-1.6c-0.4-0.6-0.6-0.7-1.3-0.7v-0.3h2.8v0.3c-0.5,0.1-0.6,0.2-0.4,0.5l0.8,1.1
		c0.3-0.3,0.5-0.7,0.8-1.1c0.2-0.3,0.1-0.4-0.4-0.5v-0.3h2.4v0.3c-0.7,0.1-1,0.1-1.5,0.7c-0.2,0.2-0.5,0.6-0.9,1.2l1.3,1.8
		c0.5,0.6,0.7,0.8,1.4,0.9v0.4L148.8,228.4L148.8,228.4z"/>
	<path class="st1" d="M151.6,223.5c0.6-0.1,1.4-0.3,2-0.5v0.9c0,0,1.1-0.6,1.1-0.6c0.3-0.2,0.6-0.2,0.8-0.2c1.5,0,2.4,1.1,2.4,2.3
		c0,1.8-1.6,2.9-3.3,3.2c-0.4,0-0.7-0.1-0.9-0.2v1.6c0,0.8,0.1,0.9,1.1,1v0.3h-3.2v-0.3c0.9-0.1,1-0.1,1-0.9v-5.4
		c0-0.7,0-0.8-0.9-0.9V223.5L151.6,223.5z M153.6,227.5c0.3,0.3,0.8,0.5,1.2,0.5c1.1,0,1.8-0.9,1.8-2.2s-0.8-2-1.7-2
		c-0.4,0-0.9,0.2-1.3,0.5L153.6,227.5L153.6,227.5z"/>
	<path class="st1" d="M161.5,223.1c1.7,0,2.9,1.1,2.9,2.7c0,1.9-1.6,2.9-2.9,2.9c-1.9,0-3-1.3-3-2.7
		C158.5,224,160.2,223.1,161.5,223.1z M161.3,223.5c-0.8,0-1.5,0.7-1.5,2.1c0,1.5,0.7,2.6,1.8,2.6c0.8,0,1.4-0.5,1.4-2.1
		C163,224.6,162.4,223.5,161.3,223.5L161.3,223.5z"/>
	<path class="st1" d="M167.9,228.4h-3.1v-0.4c0.8-0.1,0.9-0.1,0.9-0.9v-2.5c0-0.8-0.1-0.8-0.8-0.9v-0.3c0.7-0.1,1.3-0.2,2-0.5v1.3
		c0.5-0.6,1-1.3,1.7-1.3c0.5,0,0.8,0.3,0.8,0.6s-0.3,0.6-0.5,0.7c-0.1,0.1-0.2,0.1-0.4,0c-0.2-0.2-0.4-0.3-0.6-0.3
		c-0.3,0-0.7,0.3-1,0.9v2.2c0,0.8,0.1,0.8,1.1,0.9L167.9,228.4L167.9,228.4z"/>
	<path class="st1" d="M172.3,228.4c-0.2,0.1-0.4,0.1-0.6,0.1c-0.9,0-1.4-0.5-1.4-1.4v-3.4h-0.9l-0.1-0.1l0.4-0.4h0.6v-1
		c0.3-0.2,0.7-0.6,1-0.8l0.2,0c0,0.5,0,1.1,0,1.8h1.5c0.1,0.1,0.1,0.4-0.1,0.5h-1.4v3c0,1,0.4,1.1,0.8,1.1c0.3,0,0.6-0.1,0.8-0.2
		l0.1,0.3L172.3,228.4L172.3,228.4z"/>
	<path class="st1" d="M177.8,226.7c-0.3,0.2-0.4,0.4-0.4,0.6c0,0.2,0.2,0.4,0.8,0.4c0.5,0,1.1,0,1.5,0c0.9,0,2,0.3,2,1.4
		c0,1.3-1.7,2.4-3.4,2.4c-1.6,0-2.4-0.8-2.4-1.5c0-0.3,0.1-0.5,0.4-0.7c0.3-0.2,0.8-0.6,1.1-0.8c-0.5-0.1-0.8-0.4-1-0.6
		c-0.1-0.2-0.2-0.4-0.2-0.5c0.5-0.2,1-0.5,1.3-0.8L177.8,226.7L177.8,226.7z M178.4,226.8c-1.3,0-2.3-0.7-2.3-1.8c0-1.3,1.4-2,2.4-2
		c0.5,0,0.9,0.1,1.3,0.3c0.6,0,1.4-0.1,1.8-0.2l0.1,0.1c-0.1,0.2-0.3,0.5-0.5,0.6c-0.2,0-0.6-0.1-0.8-0.1c0.2,0.3,0.4,0.6,0.4,1.1
		C180.9,226.2,179.6,226.8,178.4,226.8L178.4,226.8z M178.7,228.6c-0.7,0-1,0.1-1.2,0.2c-0.4,0.2-0.6,0.6-0.6,0.9
		c0,0.6,0.7,1.1,1.8,1.1c1.2,0,1.9-0.6,1.9-1.3c0-0.4-0.2-0.7-0.6-0.9C179.7,228.6,179.3,228.6,178.7,228.6L178.7,228.6z
		 M178.4,223.4c-0.6,0-1.1,0.5-1.1,1.4s0.5,1.6,1.2,1.6c0.6,0,1.1-0.5,1.1-1.4S179.2,223.4,178.4,223.4L178.4,223.4z"/>
	<path class="st1" d="M184.9,228.4h-3.1v-0.4c0.8-0.1,0.9-0.1,0.9-0.9v-2.5c0-0.8-0.1-0.8-0.8-0.9v-0.3c0.7-0.1,1.3-0.2,2-0.5v1.3
		c0.5-0.6,1-1.3,1.7-1.3c0.5,0,0.8,0.3,0.8,0.6s-0.3,0.6-0.5,0.7c-0.1,0.1-0.2,0.1-0.4,0c-0.2-0.2-0.4-0.3-0.6-0.3
		c-0.3,0-0.7,0.3-1,0.9v2.2c0,0.8,0.1,0.8,1.1,0.9L184.9,228.4L184.9,228.4z"/>
	<path class="st1" d="M189.3,223.1c1.7,0,2.9,1.1,2.9,2.7c0,1.9-1.6,2.9-2.9,2.9c-1.9,0-3-1.3-3-2.7
		C186.3,224,188,223.1,189.3,223.1z M189.1,223.5c-0.8,0-1.5,0.7-1.5,2.1c0,1.5,0.7,2.6,1.8,2.6c0.8,0,1.4-0.5,1.4-2.1
		C190.8,224.6,190.2,223.5,189.1,223.5L189.1,223.5z"/>
	<path class="st1" d="M201.5,223.5c-0.7,0.1-0.8,0.2-1.1,0.9c-0.4,0.9-1,2.6-1.6,4.1h-0.4c-0.5-1.2-1.1-2.5-1.6-3.6
		c-0.5,1.1-1.1,2.4-1.6,3.6h-0.4c-0.5-1.4-1-2.8-1.6-4.2c-0.2-0.6-0.4-0.7-1-0.8v-0.3h2.9v0.3c-0.8,0.1-0.9,0.2-0.7,0.7
		c0.3,0.9,0.6,1.8,0.9,2.7c0.5-1.2,1.1-2.4,1.6-3.7h0.4c0.5,1.2,1,2.5,1.6,3.7c0.3-0.7,0.7-1.9,0.9-2.7c0.2-0.6,0.1-0.7-0.9-0.8
		v-0.3h2.5L201.5,223.5L201.5,223.5z"/>
	<path class="st1" d="M204.4,228.4c-0.2,0.1-0.4,0.1-0.6,0.1c-0.9,0-1.4-0.5-1.4-1.4v-3.4h-0.9l-0.1-0.1l0.4-0.4h0.6v-1
		c0.3-0.2,0.7-0.6,1-0.8l0.2,0c0,0.5,0,1.1,0,1.8h1.5c0.1,0.1,0.1,0.4-0.1,0.5h-1.4v3c0,1,0.4,1.1,0.8,1.1c0.3,0,0.6-0.1,0.8-0.2
		l0.1,0.3L204.4,228.4L204.4,228.4z"/>
	<path class="st1" d="M209,228.4v-0.4c0.7-0.1,0.8-0.1,0.8-0.9v-2c0-1-0.4-1.4-1.2-1.4c-0.5,0-1,0.2-1.3,0.6v2.8
		c0,0.8,0.1,0.8,0.9,0.9v0.4h-3v-0.4c0.8-0.1,0.9-0.1,0.9-0.9v-5.7c0-0.6-0.1-0.8-0.9-0.8v-0.3c0.8-0.1,1.6-0.2,2.1-0.4v4
		c0.5-0.4,1.2-0.9,1.9-0.9c1.1,0,1.9,0.6,1.9,2v2.1c0,0.8,0.1,0.8,0.9,0.9v0.4L209,228.4L209,228.4z"/>
</g>
<g>
	<path class="st1" d="M41.1,162.8c0.1,0.8,0.2,0.9,0.9,0.9h1c0.4,0,0.8,0,1.1-0.1c0.2,0.8,0.4,1.9,0.4,3.1c0,3.1-1.7,4.9-4.1,4.9
		c-2.5,0-4-2.3-4-5c0-1.3,0.2-2.3,0.3-2.8c0.5,0,1.2-0.1,1.9-0.2l0.1,0.4c-1,0.3-1.5,0.7-1.7,1.6c-0.1,0.3-0.2,0.8-0.2,1.2
		c0,2,1.2,3.3,3.4,3.3c1.9,0,3.8-1.1,3.8-3.6c0-0.4-0.1-0.8-0.2-1.1c-0.1-0.3-0.3-0.4-0.8-0.4h-1c-0.9,0-1,0.1-1,1.4h-0.4v-3.5
		L41.1,162.8L41.1,162.8z"/>
	<path class="st1" d="M44.3,159.3v3.1H44c-0.1-0.8-0.1-0.9-0.9-0.9h-2.5c-0.8,0-0.8,0.1-0.9,0.8h-0.3c-0.1-0.7-0.2-1.3-0.5-2h1.3
		c-0.7-0.5-1.3-1-1.3-1.7c0-0.5,0.3-0.8,0.6-0.8s0.6,0.3,0.7,0.5c0.1,0.1,0,0.2,0,0.4c-0.2,0.2-0.3,0.4-0.3,0.6c0,0.3,0.3,0.7,0.9,1
		h2.2c0.8,0,0.8-0.1,0.9-1.1L44.3,159.3L44.3,159.3z"/>
	<path class="st1" d="M39,154.9c0-1.7,1.2-2.9,2.7-2.9c1.9,0,2.8,1.6,2.8,2.9c0,1.9-1.3,3-2.7,3C39.9,157.9,39,156.2,39,154.9z
		 M39.4,155.1c0,0.8,0.7,1.5,2.1,1.5c1.5,0,2.6-0.7,2.6-1.8c0-0.8-0.5-1.4-2.1-1.4C40.5,153.4,39.4,154,39.4,155.1L39.4,155.1z"/>
	<path class="st1" d="M39.5,142.7c0.1,0.7,0.2,0.8,0.9,1.1c1,0.4,2.6,1,4.2,1.6v0.4c-1.2,0.5-2.5,1.1-3.7,1.6
		c1.1,0.5,2.4,1.1,3.7,1.6v0.4c-1.4,0.5-2.8,1-4.2,1.6c-0.6,0.2-0.7,0.4-0.8,1h-0.3v-2.9h0.3c0.1,0.8,0.2,0.9,0.7,0.7
		c0.9-0.3,1.8-0.6,2.7-0.9c-1.2-0.5-2.4-1.1-3.7-1.6v-0.4c1.2-0.5,2.5-1,3.7-1.6c-0.7-0.3-1.9-0.7-2.7-0.9c-0.6-0.2-0.7-0.1-0.8,0.9
		h-0.3v-2.5L39.5,142.7L39.5,142.7z"/>
	<path class="st1" d="M44.3,139.8c0.1,0.2,0.2,0.4,0.2,0.6c0,0.9-0.5,1.4-1.4,1.4h-3.4v0.9l-0.1,0.1l-0.4-0.4v-0.6h-1
		c-0.2-0.3-0.6-0.7-0.8-1l0-0.2c0.5,0,1.2,0,1.8,0v-1.5c0.1-0.1,0.4-0.1,0.5,0.1v1.4h3c1,0,1.1-0.4,1.1-0.8c0-0.3-0.1-0.6-0.2-0.8
		l0.3-0.1L44.3,139.8L44.3,139.8z"/>
	<path class="st1" d="M44.3,135.2H44c-0.1-0.7-0.1-0.8-0.9-0.8h-2c-1,0-1.4,0.4-1.4,1.2c0,0.5,0.2,1,0.6,1.3h2.8
		c0.8,0,0.8-0.1,0.9-0.9h0.3v3H44c-0.1-0.8-0.1-0.9-0.9-0.9h-5.7c-0.6,0-0.8,0.1-0.8,0.9h-0.3c-0.1-0.8-0.2-1.6-0.4-2.1h4
		c-0.4-0.5-0.8-1.2-0.8-1.9c0-1.1,0.6-1.9,2-1.9h2.1c0.8,0,0.8-0.1,0.9-0.9h0.3L44.3,135.2L44.3,135.2z"/>
	<path class="st1" d="M44.3,126.3v3.2H44c-0.1-0.8-0.1-0.9-0.9-0.9h-2.5c-0.8,0-0.8,0.1-0.9,0.8h-0.3c-0.1-0.7-0.2-1.3-0.5-2h1.3
		c-0.7-0.5-1.3-1-1.3-1.7c0-0.5,0.3-0.8,0.6-0.8s0.6,0.3,0.7,0.5c0.1,0.1,0,0.2,0,0.4c-0.2,0.2-0.3,0.4-0.3,0.6c0,0.3,0.3,0.7,0.9,1
		h2.2c0.8,0,0.8-0.1,0.9-1.1L44.3,126.3L44.3,126.3z"/>
	<path class="st1" d="M44.5,120.6c0,0.2-0.1,0.5-0.2,0.7c-0.2,0.2-0.3,0.3-0.5,0.3c0.3,0.5,0.8,1.2,0.8,1.6c0,1-0.7,1.7-1.5,1.7
		c-0.6,0-1-0.3-1.2-1.1c-0.2-0.8-0.6-1.8-0.8-2.1h-0.3c-0.8,0-1.3,0.4-1.3,1.1c0,0.3,0.1,0.5,0.3,0.6c0.2,0.2,0.4,0.2,0.8,0.3
		c0.2,0.1,0.3,0.2,0.3,0.4c0,0.3-0.2,0.6-0.5,0.6c-0.2,0-0.3-0.2-0.5-0.4c-0.3-0.4-0.7-1.2-0.8-2c0-0.4,0.1-0.8,0.3-1.2
		c0.4-0.5,0.8-0.7,1.4-0.7H43c0.5,0,0.7-0.2,0.7-0.5c0-0.2,0-0.3-0.1-0.5l0.3-0.1L44.5,120.6L44.5,120.6z M41.5,121.6
		c0.1,0.3,0.3,0.8,0.5,1.2c0.2,0.5,0.4,0.8,0.9,0.8c0.6,0,0.9-0.5,0.9-0.9c0-0.3-0.2-0.8-0.4-1H41.5z"/>
	<path class="st1" d="M44.3,116.8c0.1,0.2,0.2,0.4,0.2,0.6c0,0.9-0.5,1.4-1.4,1.4h-3.4v0.9l-0.1,0.1l-0.4-0.4v-0.6h-1
		c-0.2-0.3-0.6-0.7-0.8-1l0-0.2c0.5,0,1.2,0,1.8,0v-1.5c0.1-0.1,0.4-0.1,0.5,0.1v1.4h3c1,0,1.1-0.4,1.1-0.8c0-0.3-0.1-0.6-0.2-0.8
		l0.3-0.1L44.3,116.8L44.3,116.8z"/>
	<path class="st1" d="M43.3,111.1c1,0.8,1.2,1.8,1.2,2.3c0,1.7-1.2,2.7-2.6,2.7c-0.8,0-1.6-0.3-2.1-0.9c-0.5-0.6-0.9-1.3-0.9-2
		c0-1.2,0.9-2.1,1.9-2.1c0.2,0,0.4,0.1,0.4,0.2c0,0.3,0.2,2,0.2,3.5c1.5,0,2.2-1,2.2-2c0-0.5-0.2-1.1-0.6-1.5L43.3,111.1z
		 M39.4,113.4c0,0.6,0.5,1.2,1.5,1.3c0-0.7,0-1.4,0-2.2c0-0.2-0.1-0.3-0.2-0.3C40,112.2,39.4,112.7,39.4,113.4z"/>
	<path class="st1" d="M46.7,104.5c-1.3,1.9-3.3,3.1-5.5,3.1s-4.2-1.2-5.5-3.1l0.3-0.3c1.1,1.3,3,2.2,5.2,2.2s4.2-0.9,5.2-2.2
		C46.3,104.2,46.7,104.5,46.7,104.5z"/>
	<path class="st1" d="M44.6,101.2l-0.3,0.5l-7.5-5.4l0.3-0.5L44.6,101.2L44.6,101.2z M36.8,101.4c0-1.4,1.2-2,2.2-2s2.2,0.6,2.2,2
		s-1.2,2-2.2,2S36.8,102.9,36.8,101.4z M37.2,101.4c0,0.8,1.1,0.9,1.8,0.9s1.8-0.2,1.8-0.9s-1.1-0.9-1.8-0.9S37.2,100.7,37.2,101.4z
		 M40.1,95.9c0-1.4,1.2-2,2.2-2s2.2,0.6,2.2,2s-1.2,2-2.2,2C41.3,97.9,40.1,97.3,40.1,95.9z M40.5,95.8c0,0.8,1.1,0.9,1.8,0.9
		s1.8-0.2,1.8-0.9s-1.1-0.9-1.8-0.9S40.5,95.1,40.5,95.8z"/>
	<path class="st1" d="M35.6,92.8c1.3-1.9,3.3-3.1,5.5-3.1s4.2,1.2,5.5,3.1l-0.3,0.3c-1.1-1.3-3-2.2-5.2-2.2s-4.2,0.9-5.2,2.2
		L35.6,92.8z"/>
</g>
<g>
	<path class="st1" d="M108.2,252.6c-0.1,0.3-0.4,1.6-0.6,1.9h-6.6v-0.4c1.2-0.1,1.3-0.2,1.3-1.2v-4.7c0-1.1-0.2-1.1-1.1-1.2v-0.4
		h4.1c1.3,0,1.8,0,2,0c0,0.3,0.1,1.2,0.1,1.8l-0.4,0.1c-0.1-0.4-0.3-0.7-0.4-0.9c-0.2-0.4-0.5-0.4-1.3-0.4h-1.2
		c-0.4,0-0.5,0-0.5,0.4v2.6h1.4c1,0,1-0.2,1.2-1h0.4v2.5h-0.4c-0.2-0.9-0.3-1-1.2-1h-1.4v2.3c0,0.8,0.2,0.9,0.9,0.9h1.2
		c0.8,0,0.9-0.1,1.2-0.4c0.3-0.3,0.6-0.8,0.7-1.1L108.2,252.6L108.2,252.6z"/>
	<path class="st1" d="M108.5,254.6v-0.4c1.1-0.1,1.2-0.1,1.2-1.2v-4.7c0-1-0.1-1.1-1.2-1.2v-0.4h3.7v0.4c-1.1,0.1-1.2,0.2-1.2,1.2
		v4.7c0,1,0.1,1.1,1.2,1.2v0.4H108.5z"/>
	<path class="st1" d="M120,248.7c-0.2-0.8-0.6-1.6-1.9-1.6c-1,0-1.4,0.6-1.4,1.3c0,0.8,0.6,1.2,1.7,1.7c1.6,0.7,2.3,1.3,2.3,2.4
		c0,1.3-1.2,2.2-3,2.2c-0.8,0-1.5-0.2-2.1-0.4c-0.1-0.3-0.3-1.2-0.4-1.8l0.4-0.1c0.3,0.8,0.9,1.9,2.3,1.9c0.9,0,1.5-0.6,1.5-1.3
		c0-0.9-0.5-1.2-1.7-1.8c-1.4-0.7-2.2-1.2-2.2-2.4s1-2.1,2.8-2.1c0.8,0,1.5,0.2,1.8,0.2c0.1,0.4,0.1,0.9,0.2,1.7L120,248.7
		L120,248.7z"/>
	<path class="st1" d="M125.5,254.7c-0.2,0-0.5-0.1-0.7-0.2c-0.2-0.1-0.3-0.3-0.3-0.5c-0.5,0.3-1.2,0.8-1.6,0.8c-1,0-1.7-0.7-1.7-1.5
		c0-0.6,0.3-0.9,1.1-1.2c0.8-0.2,1.8-0.6,2.1-0.8V251c0-0.8-0.4-1.3-1.1-1.3c-0.3,0-0.5,0.1-0.6,0.3c-0.2,0.2-0.2,0.4-0.3,0.8
		c-0.1,0.2-0.2,0.3-0.4,0.3c-0.3,0-0.6-0.2-0.6-0.5c0-0.2,0.2-0.3,0.4-0.5c0.4-0.3,1.2-0.7,2-0.8c0.4,0,0.8,0.1,1.2,0.3
		c0.5,0.4,0.7,0.8,0.7,1.4v2.2c0,0.6,0.2,0.7,0.5,0.7c0.2,0,0.3-0.1,0.5-0.1l0.1,0.4L125.5,254.7L125.5,254.7z M124.5,251.7
		c-0.3,0.1-0.8,0.4-1.2,0.5c-0.5,0.2-0.8,0.4-0.8,0.9c0,0.6,0.5,0.9,0.9,0.9c0.3,0,0.8-0.2,1-0.4L124.5,251.7L124.5,251.7z"/>
	<path class="st1" d="M126.5,254.6v-0.4c0.8-0.1,0.9-0.1,0.9-0.9v-5.6c0-0.7-0.1-0.8-0.9-0.9v-0.3c0.8-0.1,1.6-0.2,2.1-0.4v7.2
		c0,0.8,0.1,0.8,0.9,0.9v0.4L126.5,254.6L126.5,254.6z"/>
	<path class="st1" d="M135.5,249.7c-0.7,0.1-0.8,0.2-1.1,0.9c-0.4,0.9-1.2,2.5-1.9,4.1H132c-0.6-1.4-1.2-2.8-1.9-4.2
		c-0.3-0.7-0.4-0.7-1.1-0.8v-0.3h2.8v0.3c-0.7,0.1-0.8,0.2-0.5,0.7c0.3,0.8,0.9,2.1,1.2,2.8c0.4-1,0.9-1.9,1.2-2.7
		c0.2-0.5,0.2-0.7-0.7-0.8v-0.3h2.4L135.5,249.7L135.5,249.7z"/>
	<path class="st1" d="M139.6,254.7c-0.2,0-0.5-0.1-0.7-0.2c-0.2-0.1-0.3-0.3-0.3-0.5c-0.5,0.3-1.2,0.8-1.6,0.8c-1,0-1.7-0.7-1.7-1.5
		c0-0.6,0.4-0.9,1.1-1.2c0.8-0.2,1.8-0.6,2.1-0.8V251c0-0.8-0.4-1.3-1.1-1.3c-0.3,0-0.5,0.1-0.6,0.3c-0.1,0.2-0.2,0.4-0.4,0.8
		c-0.1,0.2-0.2,0.3-0.4,0.3c-0.3,0-0.6-0.2-0.6-0.5c0-0.2,0.2-0.3,0.4-0.5c0.4-0.3,1.2-0.7,2-0.8c0.4,0,0.9,0.1,1.2,0.3
		c0.5,0.4,0.7,0.8,0.7,1.4v2.2c0,0.6,0.2,0.7,0.5,0.7c0.2,0,0.3-0.1,0.5-0.1l0.1,0.4L139.6,254.7L139.6,254.7z M138.6,251.7
		c-0.3,0.1-0.9,0.4-1.1,0.5c-0.5,0.2-0.8,0.4-0.8,0.9c0,0.6,0.5,0.9,0.9,0.9c0.3,0,0.8-0.2,1-0.4L138.6,251.7L138.6,251.7z"/>
	<path class="st1" d="M147.2,254.3c-0.3,0.1-1.3,0.2-2.2,0.4V254c-0.2,0.1-0.6,0.3-0.8,0.4c-0.5,0.3-0.8,0.3-1,0.3
		c-1.1,0-2.5-0.9-2.5-2.6s1.6-2.9,3.5-2.9c0.2,0,0.6,0,0.8,0.1v-1.7c0-0.7-0.1-0.8-1-0.8v-0.3c0.7-0.1,1.7-0.2,2.2-0.4v7.1
		c0,0.6,0.1,0.7,0.6,0.7l0.4,0L147.2,254.3L147.2,254.3z M145.1,250.3c-0.3-0.4-0.8-0.6-1.3-0.6c-0.6,0-1.7,0.4-1.7,2.1
		c0,1.5,1,2.2,1.8,2.2c0.4,0,0.9-0.2,1.2-0.4L145.1,250.3L145.1,250.3z"/>
	<path class="st1" d="M150.3,249.2c1.7,0,2.9,1.1,2.9,2.7c0,1.9-1.6,2.9-2.9,2.9c-1.9,0-3-1.3-3-2.7
		C147.3,250.1,149,249.2,150.3,249.2z M150.2,249.6c-0.8,0-1.5,0.7-1.5,2.1c0,1.5,0.7,2.6,1.8,2.6c0.8,0,1.4-0.5,1.4-2.1
		C151.9,250.7,151.3,249.6,150.2,249.6L150.2,249.6z"/>
	<path class="st1" d="M156.7,254.6h-3.1v-0.4c0.8-0.1,0.9-0.1,0.9-0.9v-2.5c0-0.8-0.1-0.8-0.8-0.9v-0.3c0.7-0.1,1.3-0.2,2-0.5v1.3
		c0.5-0.6,1-1.3,1.7-1.3c0.5,0,0.8,0.3,0.8,0.6s-0.3,0.6-0.5,0.7c-0.1,0.1-0.2,0.1-0.4,0c-0.2-0.2-0.4-0.3-0.6-0.3
		c-0.3,0-0.7,0.3-1,0.9v2.2c0,0.8,0.1,0.8,1.1,0.9L156.7,254.6L156.7,254.6z"/>
	<path class="st1" d="M161.7,256.9c-1.9-1.3-3.1-3.3-3.1-5.5s1.2-4.2,3.1-5.5l0.3,0.3c-1.3,1.1-2.2,3-2.2,5.2s0.9,4.2,2.2,5.2
		L161.7,256.9z"/>
	<path class="st1" d="M170.5,252.6c-0.2,0.6-0.5,1.4-0.7,1.8c-0.4,0.1-1.4,0.3-2.4,0.3c-3.3,0-4.9-1.9-4.9-4c0-2.4,2.1-4.1,5.1-4.1
		c1.1,0,2.1,0.2,2.5,0.3c0.1,0.5,0.1,1.3,0.2,1.9l-0.4,0.1c-0.3-0.8-0.6-1.3-1.3-1.6c-0.3-0.1-0.9-0.2-1.4-0.2
		c-2.1,0-3.3,1.4-3.3,3.4c0,2.3,1.3,3.8,3.4,3.8c1.3,0,2-0.6,2.7-1.8L170.5,252.6L170.5,252.6z"/>
	<path class="st1" d="M176.2,254.6v-0.4c0.9-0.1,0.9-0.2,0.8-0.7c-0.2-0.4-0.4-1-0.7-1.7h-2.8c-0.2,0.5-0.4,1-0.6,1.4
		c-0.3,0.8-0.1,0.9,1,1v0.4h-3.1v-0.4c0.8-0.1,1.1-0.2,1.5-1.2l2.8-6.2l0.5-0.1c0.8,2,1.8,4.3,2.6,6.3c0.4,1.1,0.6,1.1,1.5,1.2v0.4
		L176.2,254.6L176.2,254.6z M174.9,248.4c-0.4,1-0.9,2-1.2,2.9h2.4L174.9,248.4z"/>
	<path class="st1" d="M185.4,248.7c-0.1-0.4-0.2-0.7-0.4-0.9c-0.3-0.4-0.4-0.5-1.2-0.5h-1.4c-0.4,0-0.4,0-0.4,0.4v2.7h1.6
		c0.9,0,1-0.1,1.2-1h0.4v2.5h-0.4c-0.2-0.8-0.3-1-1.2-1H182v2.1c0,1,0.1,1.1,1.3,1.2v0.4h-3.8v-0.4c1.1-0.1,1.2-0.1,1.2-1.2v-4.6
		c0-1-0.1-1.1-1.2-1.2v-0.4h4.3c1.2,0,1.7,0,1.9,0c0,0.4,0.1,1.2,0.1,1.9L185.4,248.7L185.4,248.7z"/>
	<path class="st1" d="M193.7,248.7c-0.1-0.4-0.3-0.8-0.4-1c-0.2-0.3-0.4-0.4-1.1-0.4H191v5.8c0,0.9,0.1,1.1,1.4,1.1v0.4h-4v-0.4
		c1.2-0.1,1.3-0.2,1.3-1.1v-5.8h-1.1c-0.7,0-0.9,0.1-1.2,0.4c-0.2,0.2-0.3,0.6-0.5,1h-0.4c0.1-0.8,0.2-1.5,0.2-2.2h0.3
		c0.2,0.3,0.4,0.3,0.7,0.3h5.3c0.4,0,0.5-0.1,0.7-0.3h0.3c0,0.6,0.1,1.4,0.1,2.1L193.7,248.7L193.7,248.7z"/>
	<path class="st1" d="M198.4,254.6v-0.4c0.9-0.1,0.9-0.2,0.8-0.7c-0.2-0.4-0.4-1-0.7-1.7h-2.8c-0.2,0.5-0.4,1-0.6,1.4
		c-0.3,0.8-0.1,0.9,1,1v0.4h-3.1v-0.4c0.8-0.1,1.1-0.2,1.5-1.2l2.8-6.2l0.5-0.1c0.8,2,1.8,4.3,2.6,6.3c0.4,1.1,0.6,1.1,1.5,1.2v0.4
		L198.4,254.6L198.4,254.6z M197.1,248.4c-0.4,1-0.9,2-1.2,2.9h2.4L197.1,248.4z"/>
	<path class="st1" d="M204.7,252.2h-3.1l0.1-0.8h3.1L204.7,252.2z"/>
	<path class="st1" d="M209.2,246.8c1.9,0,3.1,0.3,3.9,1c0.7,0.6,1.1,1.4,1.1,2.6c0,1.4-0.6,2.5-1.7,3.2c-1,0.7-2.3,0.9-3.9,0.9h-3.2
		v-0.4c1.1-0.1,1.2-0.2,1.2-1.1v-4.7c0-1-0.2-1.1-1.2-1.2v-0.4H209.2z M207.9,253c0,0.9,0.4,1.1,1.4,1.1c2.3,0,3.5-1.4,3.5-3.5
		c0-1.3-0.5-2.2-1.4-2.8c-0.6-0.4-1.4-0.5-2.3-0.5c-0.6,0-0.9,0.1-1,0.2c-0.1,0.1-0.2,0.2-0.2,0.7L207.9,253L207.9,253z"/>
	<path class="st1" d="M222.9,254.6c-0.2,0-0.3,0-0.5,0c-1.1-0.1-1.6-0.3-2.2-1c-0.5-0.6-1-1.4-1.4-2c-0.2-0.4-0.4-0.4-1.1-0.4h-0.4
		v1.8c0,1,0.1,1.1,1.2,1.2v0.4h-3.7v-0.4c1.1-0.1,1.2-0.2,1.2-1.2v-4.7c0-1-0.1-1.1-1.2-1.1v-0.4h3.5c1,0,1.7,0.1,2.2,0.4
		c0.5,0.3,0.9,0.8,0.9,1.6c0,1-0.7,1.7-1.7,2c0.2,0.4,0.8,1.2,1.2,1.7c0.5,0.6,0.8,0.9,1.1,1.2c0.4,0.3,0.6,0.5,0.9,0.5L222.9,254.6
		L222.9,254.6z M218,250.8c0.7,0,1.1-0.1,1.4-0.3c0.5-0.3,0.7-0.8,0.7-1.4c0-1.3-0.9-1.7-1.9-1.7c-0.4,0-0.6,0.1-0.7,0.1
		c-0.1,0.1-0.1,0.2-0.1,0.5v2.9H218L218,250.8z"/>
	<path class="st1" d="M223.7,245.8c1.9,1.3,3.1,3.3,3.1,5.5s-1.2,4.2-3.1,5.5l-0.3-0.3c1.3-1.1,2.2-3,2.2-5.2s-0.9-4.2-2.2-5.2
		L223.7,245.8L223.7,245.8z"/>
</g>
<g>
	<path class="st1" d="M109,274.6v-0.4c1.1-0.1,1.1-0.2,1.1-1.4V268c-1.1,2.1-2.7,5.4-3.2,6.6h-0.4c-0.5-1.2-1.9-4.3-2.9-6.5
		c-0.2,4.1-0.2,5-0.2,5.2c0,0.7,0.3,0.8,1.3,0.9v0.4h-3.2v-0.4c0.8-0.1,1.1-0.2,1.2-0.9c0.1-0.5,0.1-1,0.4-5.2
		c0.1-0.6-0.1-0.8-1.2-0.9v-0.4h2.4l2.9,5.9l3.1-5.9h2.4v0.4c-1.1,0.1-1.3,0.2-1.2,1.1l0.1,4.5c0.1,1.2,0.1,1.3,1.2,1.4v0.4
		L109,274.6L109,274.6z"/>
	<path class="st1" d="M117.6,273.5c-0.8,1-1.8,1.2-2.3,1.2c-1.7,0-2.7-1.2-2.7-2.6c0-0.8,0.3-1.6,0.9-2.1c0.6-0.5,1.3-0.9,2-0.9
		c1.2,0,2.1,0.9,2.1,1.9c0,0.2-0.1,0.4-0.2,0.4c-0.3,0-2,0.1-3.5,0.2c0,1.5,1,2.2,2,2.2c0.5,0,1.1-0.2,1.5-0.6L117.6,273.5z
		 M115.3,269.6c-0.6,0-1.2,0.5-1.3,1.5c0.7,0,1.4,0,2.2,0c0.2,0,0.3-0.1,0.3-0.2C116.4,270.2,116,269.6,115.3,269.6z"/>
	<path class="st1" d="M120.9,274.6v-0.4c0.6-0.1,0.7-0.1,0.4-0.5l-0.9-1.3c-0.3,0.4-0.6,0.8-0.8,1.2c-0.2,0.4-0.2,0.5,0.5,0.6v0.4
		h-2.5v-0.4c0.8-0.1,1-0.2,1.5-0.8c0.4-0.4,0.7-0.9,1.1-1.4l-1.2-1.6c-0.4-0.6-0.6-0.7-1.3-0.7v-0.3h2.8v0.3
		c-0.5,0.1-0.6,0.2-0.4,0.5l0.8,1c0.3-0.3,0.5-0.7,0.8-1.1c0.2-0.3,0.1-0.4-0.4-0.5v-0.3h2.4v0.3c-0.7,0.1-1,0.1-1.5,0.7
		c-0.2,0.2-0.5,0.6-0.9,1.2l1.3,1.8c0.5,0.6,0.7,0.8,1.4,0.9v0.4L120.9,274.6L120.9,274.6z"/>
	<path class="st1" d="M123.8,274.6v-0.4c0.8-0.1,0.9-0.1,0.9-1v-2.4c0-0.8,0-0.8-0.8-0.9v-0.3c0.7-0.1,1.4-0.3,2-0.5v4.1
		c0,0.8,0.1,0.9,0.9,1v0.4H123.8L123.8,274.6z M125.2,268.1c-0.4,0-0.8-0.3-0.8-0.7c0-0.4,0.4-0.7,0.8-0.7s0.7,0.3,0.7,0.7
		C126,267.8,125.6,268.1,125.2,268.1L125.2,268.1z"/>
	<path class="st1" d="M132,273.5c-0.6,0.7-1.5,1.2-2.3,1.2c-1.7,0-2.7-1.2-2.7-2.5c0-0.9,0.5-1.7,1.3-2.3c0.7-0.5,1.6-0.7,2.1-0.7
		c0.6,0,1,0.2,1.2,0.3c0.2,0.1,0.2,0.2,0.2,0.4c0,0.3-0.3,0.6-0.5,0.6c-0.1,0-0.1,0-0.3-0.1c-0.4-0.4-0.9-0.5-1.4-0.5
		c-0.8,0-1.6,0.6-1.6,1.9c0,1.6,1.3,2.2,2,2.2c0.6,0,1-0.1,1.6-0.6L132,273.5L132,273.5z"/>
	<path class="st1" d="M135.1,269.2c1.7,0,2.9,1.1,2.9,2.7c0,1.9-1.6,2.9-2.9,2.9c-1.9,0-3-1.3-3-2.7
		C132.1,270.1,133.8,269.2,135.1,269.2z M135,269.6c-0.8,0-1.5,0.7-1.5,2.1c0,1.5,0.7,2.6,1.8,2.6c0.8,0,1.4-0.5,1.4-2.1
		C136.7,270.7,136.1,269.6,135,269.6L135,269.6z"/>
	<path class="st1" d="M144.6,276.9c-1.9-1.3-3.1-3.3-3.1-5.5s1.2-4.2,3.1-5.5l0.3,0.3c-1.3,1.1-2.2,3-2.2,5.2s0.9,4.2,2.2,5.2
		L144.6,276.9L144.6,276.9z"/>
	<path class="st1" d="M154.6,267.2c-0.9,0.1-1.1,0.2-1.2,0.8c0,0.4-0.1,0.9-0.1,2v4.8h-0.6l-5.7-6.2v2.9c0,1.1,0,1.6,0.1,1.9
		c0,0.6,0.4,0.8,1.3,0.9v0.4h-3.3v-0.4c0.8-0.1,1.1-0.2,1.2-0.8c0-0.4,0.1-0.9,0.1-2v-3c0-0.3,0-0.5-0.3-0.8
		c-0.2-0.3-0.5-0.4-1.2-0.4v-0.4h2.1l5.6,5.9v-2.8c0-1.1,0-1.6-0.1-2c0-0.5-0.3-0.7-1.4-0.8v-0.4h3.3L154.6,267.2L154.6,267.2z"/>
	<path class="st1" d="M159.6,274.6v-0.4c0.9-0.1,0.9-0.2,0.8-0.7c-0.2-0.4-0.4-1-0.7-1.7h-2.8c-0.2,0.5-0.4,1-0.6,1.4
		c-0.3,0.8-0.1,0.9,1,1v0.4h-3.1v-0.4c0.8-0.1,1.1-0.2,1.5-1.2l2.8-6.2l0.5-0.1c0.8,2,1.8,4.3,2.6,6.3c0.4,1,0.6,1.1,1.5,1.2v0.4
		L159.6,274.6L159.6,274.6z M158.3,268.4c-0.4,1-0.9,2-1.2,3h2.4L158.3,268.4z"/>
	<path class="st1" d="M168.9,268.7c-0.1-0.4-0.2-0.7-0.4-0.9c-0.3-0.4-0.4-0.5-1.2-0.5h-1.4c-0.4,0-0.4,0-0.4,0.4v2.7h1.6
		c0.9,0,1-0.1,1.2-1h0.4v2.5h-0.4c-0.2-0.8-0.3-1-1.2-1h-1.6v2.1c0,1,0.1,1.1,1.3,1.2v0.4H163v-0.4c1.1-0.1,1.2-0.1,1.2-1.2v-4.6
		c0-1-0.1-1.1-1.2-1.2v-0.4h4.3c1.2,0,1.7,0,1.9,0c0,0.4,0.1,1.2,0.1,1.9L168.9,268.7L168.9,268.7z"/>
	<path class="st1" d="M177.2,268.7c-0.1-0.4-0.3-0.8-0.4-1c-0.2-0.3-0.4-0.4-1.1-0.4h-1.2v5.8c0,0.9,0.1,1.1,1.4,1.1v0.4h-4v-0.4
		c1.2-0.1,1.3-0.2,1.3-1.1v-5.8H172c-0.7,0-0.9,0.1-1.2,0.4c-0.2,0.2-0.3,0.5-0.5,1h-0.4c0.1-0.8,0.2-1.5,0.2-2.2h0.3
		c0.2,0.3,0.4,0.3,0.7,0.3h5.3c0.4,0,0.5,0,0.7-0.3h0.3c0,0.5,0.1,1.4,0.1,2.1L177.2,268.7L177.2,268.7z"/>
	<path class="st1" d="M181.8,274.6v-0.4c0.9-0.1,0.9-0.2,0.8-0.7c-0.2-0.4-0.4-1-0.7-1.7H179c-0.2,0.5-0.4,1-0.6,1.4
		c-0.3,0.8-0.1,0.9,1,1v0.4h-3.1v-0.4c0.8-0.1,1.1-0.2,1.5-1.2l2.8-6.2l0.5-0.1c0.8,2,1.8,4.3,2.6,6.3c0.4,1,0.6,1.1,1.5,1.2v0.4
		L181.8,274.6L181.8,274.6z M180.5,268.4c-0.4,1-0.9,2-1.2,3h2.4L180.5,268.4z"/>
	<path class="st1" d="M185.6,265.8c1.9,1.3,3.1,3.3,3.1,5.5s-1.2,4.2-3.1,5.5l-0.3-0.3c1.3-1.1,2.2-3,2.2-5.2s-0.9-4.2-2.2-5.2
		L185.6,265.8z"/>
</g>
<g>
	<path class="st1" d="M110.9,287.3c-0.8,0.1-1.1,0.2-1.2,0.8c0,0.4-0.1,0.9-0.1,2v4.8h-0.6l-5.7-6.2v2.9c0,1.1,0,1.6,0.1,1.9
		c0,0.6,0.4,0.8,1.3,0.9v0.4h-3.3v-0.4c0.8-0.1,1.1-0.2,1.2-0.8c0-0.4,0.1-0.9,0.1-2v-3c0-0.3,0-0.5-0.3-0.8
		c-0.2-0.3-0.5-0.4-1.2-0.4v-0.4h2.1l5.6,5.9V290c0-1.1,0-1.6-0.1-2c0-0.5-0.3-0.7-1.4-0.8v-0.4h3.3L110.9,287.3L110.9,287.3z"/>
	<path class="st1" d="M111.3,294.7v-0.4c0.8-0.1,0.9-0.1,0.9-1V291c0-0.8,0-0.8-0.8-0.9v-0.3c0.7-0.1,1.4-0.3,2-0.5v4.1
		c0,0.8,0.1,0.9,0.9,1v0.4H111.3L111.3,294.7z M112.8,288.2c-0.4,0-0.8-0.3-0.8-0.7c0-0.4,0.4-0.7,0.8-0.7s0.7,0.3,0.7,0.7
		C113.5,287.9,113.2,288.2,112.8,288.2L112.8,288.2z"/>
	<path class="st1" d="M119.5,293.6c-0.6,0.7-1.5,1.2-2.3,1.2c-1.7,0-2.7-1.2-2.7-2.5c0-0.9,0.5-1.7,1.3-2.3c0.7-0.5,1.6-0.7,2.1-0.7
		c0.6,0,1,0.2,1.2,0.3c0.2,0.1,0.2,0.2,0.2,0.4c0,0.3-0.3,0.6-0.5,0.6c-0.1,0-0.1,0-0.3-0.1c-0.4-0.4-0.9-0.5-1.4-0.5
		c-0.8,0-1.6,0.6-1.6,1.9c0,1.6,1.3,2.2,2,2.2c0.6,0,1-0.1,1.6-0.6L119.5,293.6L119.5,293.6z"/>
	<path class="st1" d="M123.9,294.8c-0.2,0-0.5-0.1-0.7-0.2c-0.2-0.1-0.3-0.3-0.3-0.5c-0.5,0.3-1.2,0.8-1.6,0.8c-1,0-1.7-0.7-1.7-1.5
		c0-0.6,0.3-1,1.1-1.2c0.8-0.2,1.8-0.6,2.1-0.8v-0.3c0-0.8-0.4-1.3-1.1-1.3c-0.3,0-0.5,0.1-0.6,0.3c-0.2,0.2-0.2,0.4-0.3,0.8
		c-0.1,0.2-0.2,0.3-0.4,0.3c-0.3,0-0.6-0.2-0.6-0.5c0-0.2,0.2-0.3,0.4-0.5c0.4-0.3,1.2-0.7,2-0.8c0.4,0,0.8,0.1,1.2,0.3
		c0.5,0.4,0.7,0.8,0.7,1.4v2.2c0,0.5,0.2,0.7,0.5,0.7c0.2,0,0.3,0,0.5-0.1l0.1,0.4L123.9,294.8L123.9,294.8z M122.9,291.8
		c-0.3,0.1-0.8,0.4-1.2,0.5c-0.5,0.2-0.8,0.4-0.8,0.9c0,0.6,0.5,0.9,0.9,0.9c0.3,0,0.8-0.2,1-0.4L122.9,291.8L122.9,291.8z"/>
	<path class="st1" d="M128.2,294.7h-3.2v-0.4c0.8-0.1,0.9-0.1,0.9-0.9v-2.5c0-0.8-0.1-0.8-0.8-0.9v-0.3c0.7-0.1,1.3-0.2,2-0.5v1.3
		c0.5-0.6,1-1.3,1.7-1.3c0.5,0,0.8,0.3,0.8,0.6s-0.3,0.6-0.5,0.7c-0.1,0.1-0.2,0-0.4,0c-0.2-0.2-0.4-0.3-0.6-0.3
		c-0.3,0-0.7,0.3-1,0.9v2.2c0,0.8,0.1,0.8,1.1,0.9L128.2,294.7L128.2,294.7z"/>
	<path class="st1" d="M133.8,294.8c-0.2,0-0.5-0.1-0.7-0.2c-0.2-0.1-0.3-0.3-0.3-0.5c-0.5,0.3-1.2,0.8-1.6,0.8c-1,0-1.7-0.7-1.7-1.5
		c0-0.6,0.4-1,1.1-1.2c0.8-0.2,1.8-0.6,2.1-0.8v-0.3c0-0.8-0.4-1.3-1.1-1.3c-0.3,0-0.5,0.1-0.6,0.3c-0.1,0.2-0.2,0.4-0.4,0.8
		c-0.1,0.2-0.2,0.3-0.4,0.3c-0.3,0-0.6-0.2-0.6-0.5c0-0.2,0.2-0.3,0.4-0.5c0.4-0.3,1.2-0.7,2-0.8c0.4,0,0.9,0.1,1.2,0.3
		c0.5,0.4,0.7,0.8,0.7,1.4v2.2c0,0.5,0.2,0.7,0.5,0.7c0.2,0,0.3,0,0.5-0.1l0.1,0.4L133.8,294.8L133.8,294.8z M132.8,291.8
		c-0.3,0.1-0.9,0.4-1.1,0.5c-0.5,0.2-0.8,0.4-0.8,0.9c0,0.6,0.5,0.9,0.9,0.9c0.3,0,0.8-0.2,1-0.4L132.8,291.8L132.8,291.8z"/>
	<path class="st1" d="M136.8,292.9c-0.3,0.2-0.4,0.4-0.4,0.6c0,0.2,0.2,0.5,0.8,0.5c0.5,0,1.1,0,1.5,0c0.9,0,2,0.3,2,1.4
		c0,1.3-1.7,2.4-3.4,2.4c-1.6,0-2.4-0.8-2.4-1.5c0-0.3,0.1-0.5,0.4-0.7c0.3-0.2,0.8-0.6,1.1-0.8c-0.5-0.1-0.8-0.4-1-0.6
		c-0.1-0.2-0.2-0.4-0.2-0.5c0.5-0.2,1-0.5,1.3-0.8L136.8,292.9L136.8,292.9z M137.4,293c-1.3,0-2.3-0.7-2.3-1.8c0-1.3,1.4-2,2.4-2
		c0.5,0,0.9,0.1,1.3,0.3c0.6,0,1.4-0.1,1.8-0.2l0.1,0.1c-0.1,0.2-0.3,0.5-0.5,0.6c-0.2,0-0.6,0-0.8-0.1c0.2,0.3,0.4,0.6,0.4,1.1
		C139.8,292.4,138.6,293,137.4,293L137.4,293z M137.7,294.8c-0.7,0-1,0.1-1.2,0.2c-0.4,0.2-0.6,0.6-0.6,0.9c0,0.6,0.7,1.1,1.8,1.1
		c1.2,0,1.9-0.5,1.9-1.3c0-0.4-0.2-0.7-0.6-0.9C138.7,294.9,138.3,294.9,137.7,294.8L137.7,294.8z M137.4,289.7
		c-0.6,0-1.1,0.5-1.1,1.4s0.5,1.6,1.2,1.6c0.6,0,1.1-0.5,1.1-1.4S138.2,289.7,137.4,289.7L137.4,289.7z"/>
	<path class="st1" d="M147.1,294.4c-0.7,0.1-1.4,0.2-2.1,0.4v-0.9c-0.7,0.5-1.3,0.9-2,0.9c-0.9,0-1.7-0.5-1.7-1.8v-2.3
		c0-0.6-0.1-0.7-0.4-0.8l-0.4-0.1v-0.3c0.6,0,1.5-0.1,2-0.2c0,0.4,0,1,0,1.8v1.6c0,1,0.6,1.3,1.2,1.3c0.5,0,0.9-0.2,1.4-0.5v-2.8
		c0-0.6-0.1-0.7-0.6-0.8l-0.4,0v-0.3c0.8,0,1.8-0.2,2.2-0.2v4c0,0.6,0.1,0.7,0.6,0.7h0.4V294.4L147.1,294.4z"/>
	<path class="st1" d="M151.5,294.8c-0.2,0-0.5-0.1-0.7-0.2c-0.2-0.1-0.3-0.3-0.3-0.5c-0.5,0.3-1.2,0.8-1.6,0.8c-1,0-1.7-0.7-1.7-1.5
		c0-0.6,0.4-1,1.1-1.2c0.8-0.2,1.8-0.6,2.1-0.8v-0.3c0-0.8-0.4-1.3-1.1-1.3c-0.3,0-0.5,0.1-0.6,0.3c-0.1,0.2-0.2,0.4-0.4,0.8
		c-0.1,0.2-0.2,0.3-0.4,0.3c-0.3,0-0.6-0.2-0.6-0.5c0-0.2,0.2-0.3,0.4-0.5c0.4-0.3,1.2-0.7,2-0.8c0.4,0,0.9,0.1,1.2,0.3
		c0.5,0.4,0.7,0.8,0.7,1.4v2.2c0,0.5,0.2,0.7,0.5,0.7c0.2,0,0.3,0,0.5-0.1l0.1,0.4L151.5,294.8L151.5,294.8z M150.5,291.8
		c-0.3,0.1-0.9,0.4-1.1,0.5c-0.5,0.2-0.8,0.4-0.8,0.9c0,0.6,0.5,0.9,0.9,0.9c0.3,0,0.8-0.2,1-0.4L150.5,291.8L150.5,291.8z"/>
	<path class="st1" d="M158.8,297c-1.9-1.3-3.1-3.3-3.1-5.5s1.2-4.2,3.1-5.5l0.3,0.3c-1.3,1.1-2.2,3-2.2,5.2s0.9,4.2,2.2,5.2
		L158.8,297L158.8,297z"/>
	<path class="st1" d="M167.7,292.8c-0.2,0.6-0.5,1.4-0.7,1.8c-0.4,0.1-1.4,0.3-2.4,0.3c-3.3,0-4.9-1.9-4.9-4c0-2.4,2.1-4.1,5.1-4.1
		c1.1,0,2.1,0.2,2.5,0.3c0.1,0.5,0.1,1.3,0.2,1.9l-0.4,0.1c-0.3-0.8-0.6-1.3-1.3-1.5c-0.3-0.1-0.9-0.2-1.4-0.2
		c-2.2,0-3.3,1.5-3.3,3.4c0,2.3,1.3,3.8,3.4,3.8c1.3,0,2-0.5,2.7-1.8L167.7,292.8L167.7,292.8z"/>
	<path class="st1" d="M173.3,294.7v-0.4c0.9-0.1,0.9-0.2,0.8-0.7c-0.2-0.4-0.4-1-0.7-1.7h-2.8c-0.2,0.5-0.4,1-0.6,1.4
		c-0.3,0.8-0.1,0.9,1,1v0.4h-3.1v-0.4c0.8-0.1,1.1-0.2,1.5-1.2l2.8-6.2l0.5-0.1c0.8,2,1.8,4.3,2.6,6.3c0.4,1,0.6,1.1,1.5,1.2v0.4
		L173.3,294.7L173.3,294.7z M172,288.5c-0.4,1-0.9,2-1.2,3h2.4L172,288.5z"/>
	<path class="st1" d="M182.6,288.8c-0.1-0.4-0.2-0.7-0.4-0.9c-0.3-0.4-0.4-0.5-1.2-0.5h-1.4c-0.4,0-0.4,0-0.4,0.4v2.7h1.6
		c0.9,0,1-0.1,1.2-1h0.4v2.5H182c-0.2-0.8-0.3-1-1.2-1h-1.6v2.1c0,1,0.1,1.1,1.3,1.2v0.4h-3.8v-0.4c1.1-0.1,1.2-0.1,1.2-1.2v-4.6
		c0-1-0.1-1.1-1.2-1.2V287h4.3c1.2,0,1.7,0,1.9,0c0,0.4,0.1,1.2,0.1,1.9L182.6,288.8L182.6,288.8z"/>
	<path class="st1" d="M190.9,288.9c-0.1-0.4-0.3-0.8-0.4-1c-0.2-0.3-0.4-0.4-1.1-0.4h-1.2v5.8c0,0.9,0.1,1.1,1.4,1.1v0.4h-4v-0.4
		c1.2-0.1,1.3-0.2,1.3-1.1v-5.8h-1.1c-0.7,0-0.9,0.1-1.2,0.4c-0.2,0.2-0.3,0.5-0.5,1h-0.4c0.1-0.8,0.2-1.5,0.2-2.2h0.3
		c0.2,0.3,0.4,0.3,0.7,0.3h5.3c0.4,0,0.5,0,0.7-0.3h0.3c0,0.5,0.1,1.4,0.1,2.1L190.9,288.9L190.9,288.9z"/>
	<path class="st1" d="M195.5,294.7v-0.4c0.9-0.1,0.9-0.2,0.8-0.7c-0.2-0.4-0.4-1-0.7-1.7h-2.8c-0.2,0.5-0.4,1-0.6,1.4
		c-0.3,0.8-0.1,0.9,1,1v0.4h-3.1v-0.4c0.8-0.1,1.1-0.2,1.5-1.2l2.8-6.2l0.5-0.1c0.8,2,1.8,4.3,2.6,6.3c0.4,1,0.6,1.1,1.5,1.2v0.4
		L195.5,294.7L195.5,294.7z M194.2,288.5c-0.4,1-0.9,2-1.2,3h2.4L194.2,288.5z"/>
	<path class="st1" d="M201.8,292.4h-3.1l0.1-0.8h3.1L201.8,292.4z"/>
	<path class="st1" d="M206.4,287c1.9,0,3.1,0.3,3.9,1c0.7,0.6,1.1,1.4,1.1,2.5c0,1.4-0.6,2.5-1.7,3.2c-1,0.7-2.3,1-3.9,1h-3.2v-0.4
		c1.1-0.1,1.2-0.2,1.2-1.1v-4.7c0-1-0.2-1.1-1.2-1.2V287L206.4,287L206.4,287z M205.1,293.1c0,0.9,0.4,1.1,1.4,1.1
		c2.3,0,3.5-1.4,3.5-3.5c0-1.3-0.5-2.2-1.4-2.8c-0.6-0.4-1.4-0.5-2.3-0.5c-0.6,0-0.9,0.1-1,0.2c-0.1,0.1-0.2,0.2-0.2,0.7
		L205.1,293.1L205.1,293.1z"/>
	<path class="st1" d="M220.1,294.8c-0.2,0-0.3,0-0.5,0c-1.1-0.1-1.6-0.3-2.2-1c-0.5-0.6-1-1.4-1.4-2c-0.2-0.4-0.4-0.4-1.1-0.4h-0.4
		v1.8c0,1,0.1,1.1,1.2,1.2v0.4h-3.7v-0.4c1.1-0.1,1.2-0.2,1.2-1.2v-4.7c0-1-0.1-1-1.2-1.1V287h3.5c1,0,1.7,0.1,2.2,0.4
		c0.5,0.3,0.9,0.8,0.9,1.6c0,1-0.7,1.7-1.7,2c0.2,0.4,0.8,1.2,1.2,1.7c0.5,0.6,0.8,0.9,1.1,1.2c0.4,0.3,0.6,0.5,0.9,0.5L220.1,294.8
		L220.1,294.8z M215.1,290.9c0.7,0,1.1-0.1,1.4-0.3c0.5-0.3,0.7-0.8,0.7-1.5c0-1.3-0.9-1.7-1.9-1.7c-0.4,0-0.6,0-0.7,0.1
		c-0.1,0.1-0.1,0.2-0.1,0.5v2.9L215.1,290.9L215.1,290.9z"/>
	<path class="st1" d="M220.8,286c1.9,1.3,3.1,3.3,3.1,5.5s-1.2,4.2-3.1,5.5l-0.3-0.3c1.3-1.1,2.2-3,2.2-5.2s-0.9-4.2-2.2-5.2
		L220.8,286z"/>
</g>
<path class="st1" d="M67.5,170.1c2.5,0,3.3,2.4,3.3,4.6s-0.9,4.6-3.3,4.6s-3.4-2.4-3.4-4.6C64.1,172.6,65,170.1,67.5,170.1z
	 M67.5,170.6c-1.4,0-1.8,2.1-1.8,4.1s0.4,4.1,1.8,4.1s1.7-2.1,1.7-4.1S68.8,170.6,67.5,170.6L67.5,170.6z"/>
<path class="st1" d="M70.2,148.6l0.1,0.1l-0.4,1h-3.7c-0.1,0.8-0.3,1.8-0.5,2.5c0.6-0.2,1.5-0.4,1.9-0.4c2,0,3,1.2,3,2.4
	c0,0.9-0.4,1.7-1.4,2.4c-0.9,0.6-2,1-2.9,1c-0.7,0-1.3-0.3-1.7-0.5c-0.2-0.2-0.3-0.3-0.3-0.5c0-0.1,0.1-0.4,0.4-0.5
	c0.2-0.1,0.3-0.1,0.5,0c0.4,0.4,1,0.8,2,0.8c1.3,0,1.9-1,1.9-2c0-1.3-0.9-2.1-2.6-2.1c-0.7,0-1.2,0.1-1.6,0.2l-0.1-0.1
	c0.2-1.1,0.6-3.1,0.8-4.3L70.2,148.6L70.2,148.6z"/>
<g>
	<path class="st1" d="M58.2,137.3v-0.4c1.8-0.1,1.8-0.2,1.8-1.2v-5.4c0-0.7-0.1-0.8-0.8-0.8l-0.7-0.1V129c1.1-0.1,2.2-0.4,3-0.7v7.4
		c0,1.1,0.1,1.1,1.9,1.2v0.4L58.2,137.3L58.2,137.3z"/>
	<path class="st1" d="M68,128.3c2.5,0,3.3,2.4,3.3,4.6s-0.9,4.6-3.3,4.6s-3.4-2.4-3.4-4.6C64.6,130.8,65.5,128.3,68,128.3z
		 M68,128.8c-1.4,0-1.8,2.1-1.8,4.1s0.4,4.1,1.8,4.1s1.7-2.1,1.7-4.1S69.3,128.8,68,128.8L68,128.8z"/>
</g>
<g>
	<path class="st1" d="M58.2,116.4V116c1.8-0.1,1.8-0.2,1.8-1.2v-5.4c0-0.7-0.1-0.8-0.8-0.8l-0.7-0.1v-0.4c1.1-0.2,2.2-0.4,3-0.7v7.4
		c0,1.1,0.1,1.2,1.9,1.2v0.4L58.2,116.4L58.2,116.4z"/>
	<path class="st1" d="M70.7,107.6l0.1,0.1l-0.4,1h-3.7c-0.1,0.8-0.3,1.8-0.5,2.5c0.6-0.2,1.5-0.4,1.9-0.4c2,0,3,1.2,3,2.4
		c0,0.9-0.4,1.7-1.4,2.4c-0.9,0.6-2,1-2.9,1c-0.7,0-1.3-0.3-1.7-0.5c-0.2-0.2-0.3-0.3-0.3-0.5c0-0.2,0.1-0.4,0.4-0.5
		c0.2-0.1,0.3-0.1,0.5,0c0.4,0.4,1,0.8,2,0.8c1.3,0,1.9-1,1.9-2c0-1.3-0.9-2.2-2.6-2.2c-0.7,0-1.2,0.1-1.6,0.2l-0.1-0.1
		c0.2-1.2,0.6-3.1,0.8-4.3L70.7,107.6L70.7,107.6z"/>
</g>
<g>
	<path class="st1" d="M64.1,93.6c-0.2,0.7-0.5,1.4-0.7,2h-6.1v-0.3c0.9-0.8,1.8-1.6,2.6-2.4c1-1.1,1.9-2.2,1.9-3.4
		c0-1.2-0.7-1.8-1.8-1.8c-1.1,0-1.8,0.7-2.2,1.3l-0.4-0.3l0.9-1.2c0.5-0.5,1.3-0.9,2.2-0.9c1.5,0,2.8,0.9,2.8,2.5c0,1.2-0.5,2-2,3.4
		c-0.7,0.6-1.7,1.5-2.3,2h3c0.9,0,1.1-0.1,1.7-1L64.1,93.6L64.1,93.6z"/>
	<path class="st1" d="M68,86.5c2.5,0,3.3,2.4,3.3,4.6s-0.9,4.6-3.3,4.6s-3.4-2.4-3.4-4.6C64.6,89,65.5,86.5,68,86.5z M68,87
		c-1.4,0-1.8,2.1-1.8,4.1s0.4,4.1,1.8,4.1s1.7-2.1,1.7-4.1S69.3,87,68,87L68,87z"/>
</g>
<g>
	<path class="st1" d="M64.1,72.7c-0.2,0.7-0.5,1.4-0.7,2h-6.1v-0.3c0.9-0.8,1.8-1.6,2.6-2.4c1-1.1,1.9-2.2,1.9-3.4
		c0-1.2-0.7-1.8-1.8-1.8c-1.1,0-1.8,0.7-2.2,1.3l-0.4-0.3l0.9-1.2c0.5-0.5,1.3-0.9,2.2-0.9c1.5,0,2.8,0.9,2.8,2.5c0,1.2-0.5,2-2,3.4
		c-0.7,0.6-1.7,1.5-2.3,2h3c0.9,0,1.1-0.1,1.7-1L64.1,72.7L64.1,72.7z"/>
	<path class="st1" d="M70.7,65.8l0.1,0.1l-0.4,1h-3.7c-0.1,0.8-0.3,1.8-0.5,2.5c0.6-0.2,1.5-0.4,1.9-0.4c2,0,3,1.2,3,2.4
		c0,0.9-0.4,1.7-1.4,2.4c-0.9,0.6-2,1-2.9,1c-0.7,0-1.3-0.3-1.7-0.5c-0.2-0.2-0.3-0.3-0.3-0.5c0-0.2,0.1-0.4,0.4-0.5
		c0.2-0.1,0.3-0.1,0.5,0c0.4,0.4,1,0.8,2,0.8c1.3,0,1.9-1,1.9-2c0-1.3-0.9-2.2-2.6-2.2c-0.7,0-1.2,0.1-1.6,0.2l-0.1-0.1
		c0.2-1.2,0.6-3.1,0.8-4.3L70.7,65.8L70.7,65.8z"/>
</g>
<rect x="99.2" y="140.3" class="st2" width="21.7" height="34.3"/>
<rect x="87.6" y="247.2" class="st3" width="7.5" height="7.1"/>
<rect x="87.6" y="286.4" class="st4" width="7.5" height="7.1"/>
<rect x="184.9" y="83.7" class="st2" width="21.7" height="91"/>
<rect x="120.8" y="174.7" class="st5" width="21.7" height="6.7"/>
<rect x="88.3" y="267.1" class="st6" width="7.5" height="7.2"/>
<rect x="81.7" y="240" class="st0" width="154.2" height="62.7"/>
<rect x="206.6" y="117.4" class="st5" width="20.8" height="57.2"/>
<rect x="142.5" y="76.8" class="st7" width="21.7" height="97.9"/>
<rect x="227.4" y="102" class="st7" width="21.7" height="72.7"/>
</svg>
